<svg width="44" height="45" viewBox="0 0 44 45" fill="none" xmlns="http://www.w3.org/2000/svg">
<path d="M15.1087 1.23049C10.5697 2.80511 6.65522 5.79381 3.94033 9.75757C1.22543 13.7213 -0.146819 18.4513 0.0251386 23.2526C0.197096 28.0539 1.9042 32.6735 4.8957 36.4329C7.8872 40.1923 12.0054 42.8933 16.6454 44.1392C20.4072 45.1098 24.3485 45.1525 28.1303 44.2634C31.5564 43.4938 34.7238 41.8477 37.3225 39.4863C40.0272 36.9535 41.9904 33.7313 43.0011 30.1663C44.0996 26.2895 44.2951 22.2126 43.5725 18.2484H22.4482V27.0112H34.682C34.4375 28.4088 33.9135 29.7427 33.1415 30.9331C32.3695 32.1234 31.3652 33.1458 30.1888 33.939C28.6949 34.9272 27.0109 35.5921 25.2449 35.891C23.4737 36.2204 21.657 36.2204 19.8858 35.891C18.0906 35.5199 16.3924 34.779 14.8993 33.7154C12.5006 32.0175 10.6995 29.6053 9.75308 26.8231C8.79062 23.9887 8.79062 20.916 9.75308 18.0816C10.4268 16.0949 11.5405 14.286 13.0112 12.7899C14.6941 11.0464 16.8248 9.80014 19.1694 9.18785C21.514 8.57556 23.982 8.6209 26.3026 9.3189C28.1153 9.87537 29.773 10.8476 31.1435 12.1582C32.523 10.7859 33.9 9.40999 35.2747 8.03057C35.9845 7.28881 36.7582 6.58254 37.4574 5.82303C35.3654 3.87626 32.9099 2.36143 30.2314 1.36535C25.3539 -0.405685 20.017 -0.45328 15.1087 1.23049Z" fill="white"/>
<path d="M15.1085 1.23075C20.0165 -0.454165 25.3533 -0.407822 30.2313 1.36206C32.9102 2.36491 35.3646 3.88703 37.4537 5.84103C36.7439 6.60054 35.995 7.31036 35.271 8.04858C33.8939 9.42326 32.5181 10.7932 31.1434 12.1584C29.7729 10.8479 28.1152 9.87563 26.3024 9.31916C23.9826 8.61871 21.5147 8.57075 19.1695 9.18054C16.8242 9.79033 14.6923 11.0343 13.0075 12.776C11.5368 14.2721 10.4231 16.081 9.74938 18.0677L2.39209 12.3714C5.02555 7.1491 9.58523 3.15445 15.1085 1.23075Z" fill="#E33629"/>
<path d="M0.440079 18.0142C0.835524 16.0543 1.49205 14.1564 2.39209 12.3711L9.74938 18.0816C8.78691 20.9159 8.78691 23.9887 9.74938 26.823C7.29813 28.7159 4.8457 30.6182 2.39209 32.53C0.13894 28.0451 -0.548231 22.935 0.440079 18.0142Z" fill="#F8BD00"/>
<path d="M22.4481 18.2451H43.5724C44.295 22.2092 44.0995 26.2862 43.001 30.163C41.9903 33.728 40.0271 36.9501 37.3224 39.483C34.9481 37.6303 32.5631 35.7919 30.1887 33.9393C31.3659 33.1452 32.3706 32.1217 33.1427 30.9301C33.9147 29.7384 34.4383 28.4032 34.6819 27.0043H22.4481C22.4446 24.0869 22.4481 21.166 22.4481 18.2451Z" fill="#587DBD"/>
<path d="M2.38843 32.5302C4.84204 30.6373 7.29447 28.735 9.74572 26.8232C10.6941 29.6064 12.4977 32.0188 14.899 33.7156C16.3968 34.7742 18.0986 35.5091 19.8962 35.8735C21.6674 36.2028 23.4841 36.2028 25.2553 35.8735C27.0213 35.5745 28.7053 34.9096 30.1992 33.9215C32.5736 35.7741 34.9586 37.6125 37.3329 39.4652C34.7346 41.8279 31.5671 43.4752 28.1407 44.2458C24.3588 45.1349 20.4176 45.0922 16.6558 44.1216C13.6806 43.3272 10.9016 41.9268 8.49289 40.0082C5.94343 37.9841 3.86115 35.4333 2.38843 32.5302Z" fill="#319F43"/>
</svg>
