<svg width="155" height="39" viewBox="0 0 155 39" fill="none" xmlns="http://www.w3.org/2000/svg">
<g filter="url(#filter0_i_658_3)">
<path d="M19.5072 10.0025C21.6619 10.0025 23.4086 8.24322 23.4086 6.07299C23.4086 3.90275 21.6619 2.14343 19.5072 2.14343C17.3524 2.14343 15.6057 3.90275 15.6057 6.07299C15.6057 8.24322 17.3524 10.0025 19.5072 10.0025Z" fill="#03039E"/>
</g>
<path d="M3.45893 25.4609C5.9868 22.7589 8.16645 21.369 8.94028 21.0117C7.10887 22.6745 4.89251 28.1565 4.26501 29.6502C3.18733 32.2158 4.351 33.1034 5.0711 33.1902C5.84492 33.2874 8.00522 33.1382 10.4557 31.7612C12.9062 30.3843 14.959 28.2646 15.6791 27.377C16.3885 26.3379 17.4609 24.6735 17.1856 22.2458C16.8543 19.323 12.059 16.5951 11.1884 15.9456C21.1838 18.4462 21.6675 24.714 19.4749 31.6962C17.1276 34.4502 15.3245 35.3444 14.0992 35.983C12.1216 37.098 7.32166 39.0161 3.94257 37.7691C0.563486 36.5221 -0.0878145 33.5473 0.00890294 32.2158C0.10562 31.0901 0.931059 28.1628 3.45893 25.4609Z" fill="url(#paint0_linear_658_3)"/>
<path d="M8.67343 14.0619C9.44774 14.8822 9.5655 14.9388 11.2207 15.978C21.4418 18.706 21.8287 25.6557 18.3464 32.9303C25.9236 25.7531 22.5379 18.1863 20.1932 16.1729C18.1207 14.0619 13.5833 12.3407 11.7777 11.0417C11.1006 10.5546 9.83019 9.50886 10.2945 6.88482C10.7588 4.26079 12.9384 1.20161 13.9702 0C10.6403 1.26656 8.44774 3.96202 8.06081 4.90382C5.15892 10.7819 7.60049 12.9253 8.67343 14.0619Z" fill="url(#paint1_linear_658_3)"/>
<path d="M33.4941 32.4702L34.4771 32.3843C34.5236 32.7782 34.631 33.1022 34.7993 33.3564C34.9712 33.6071 35.2362 33.8112 35.5942 33.9688C35.9523 34.1227 36.3551 34.1997 36.8027 34.1997C37.2002 34.1997 37.5511 34.1406 37.8555 34.0225C38.1598 33.9043 38.3854 33.7432 38.5322 33.5391C38.6826 33.3314 38.7578 33.1058 38.7578 32.8623C38.7578 32.6152 38.6862 32.4004 38.543 32.2178C38.3997 32.0316 38.1634 31.8758 37.834 31.7505C37.6227 31.6681 37.1554 31.541 36.4321 31.3691C35.7088 31.1937 35.2021 31.029 34.9121 30.875C34.5361 30.6781 34.255 30.4346 34.0688 30.1445C33.8862 29.8509 33.7949 29.5233 33.7949 29.1616C33.7949 28.7642 33.9077 28.3936 34.1333 28.0498C34.3589 27.7025 34.6883 27.4393 35.1216 27.2603C35.5549 27.0812 36.0365 26.9917 36.5664 26.9917C37.1501 26.9917 37.6639 27.0866 38.1079 27.2764C38.5555 27.4626 38.8993 27.7383 39.1392 28.1035C39.3791 28.4688 39.508 28.8823 39.5259 29.3442L38.5269 29.4194C38.4731 28.9217 38.2905 28.5457 37.979 28.2915C37.6711 28.0373 37.2145 27.9102 36.6094 27.9102C35.9792 27.9102 35.519 28.0265 35.229 28.2593C34.9425 28.4884 34.7993 28.766 34.7993 29.0918C34.7993 29.3747 34.9014 29.6074 35.1055 29.79C35.306 29.9727 35.8288 30.1606 36.6738 30.354C37.5225 30.5438 38.1043 30.7103 38.4194 30.8535C38.8778 31.0648 39.2161 31.3333 39.4346 31.6592C39.653 31.9814 39.7622 32.3538 39.7622 32.7764C39.7622 33.1953 39.6423 33.591 39.4023 33.9634C39.1624 34.3322 38.8169 34.6204 38.3657 34.8281C37.9181 35.0322 37.4132 35.1343 36.8511 35.1343C36.1385 35.1343 35.5405 35.0304 35.0571 34.8228C34.5773 34.6151 34.1995 34.3035 33.9238 33.8882C33.6517 33.4692 33.5085 32.9966 33.4941 32.4702ZM43.1729 34.1353L43.3125 34.9893C43.0404 35.0465 42.7969 35.0752 42.582 35.0752C42.2311 35.0752 41.959 35.0197 41.7656 34.9087C41.5723 34.7977 41.4362 34.6527 41.3574 34.4736C41.2786 34.291 41.2393 33.9097 41.2393 33.3296V30.0479H40.5303V29.2959H41.2393V27.8833L42.2007 27.3032V29.2959H43.1729V30.0479H42.2007V33.3833C42.2007 33.659 42.2168 33.8363 42.249 33.915C42.2848 33.9938 42.3403 34.0565 42.4155 34.103C42.4943 34.1496 42.6053 34.1729 42.7485 34.1729C42.856 34.1729 42.9974 34.1603 43.1729 34.1353ZM47.8457 34.2964C47.4876 34.6007 47.1421 34.8156 46.8091 34.9409C46.4797 35.0662 46.1252 35.1289 45.7456 35.1289C45.119 35.1289 44.6374 34.9767 44.3008 34.6724C43.9642 34.3644 43.7959 33.9723 43.7959 33.4961C43.7959 33.2168 43.8586 32.9626 43.9839 32.7334C44.1128 32.5007 44.2793 32.3145 44.4834 32.1748C44.6911 32.0352 44.9238 31.9295 45.1816 31.8579C45.3714 31.8078 45.6579 31.7594 46.041 31.7129C46.8216 31.6198 47.3963 31.5088 47.7651 31.3799C47.7687 31.2474 47.7705 31.1632 47.7705 31.1274C47.7705 30.7336 47.6792 30.4561 47.4966 30.2949C47.2495 30.0765 46.8825 29.9673 46.3955 29.9673C45.9408 29.9673 45.6042 30.0479 45.3857 30.209C45.1709 30.3665 45.0116 30.6476 44.9077 31.0522L43.9624 30.9233C44.0483 30.5187 44.1898 30.1929 44.3867 29.9458C44.5837 29.6951 44.8683 29.5036 45.2407 29.3711C45.6131 29.235 46.0446 29.167 46.5352 29.167C47.0221 29.167 47.4178 29.2243 47.7222 29.3389C48.0265 29.4535 48.2503 29.5985 48.3936 29.7739C48.5368 29.9458 48.637 30.1642 48.6943 30.4292C48.7266 30.5939 48.7427 30.8911 48.7427 31.3208V32.6099C48.7427 33.5086 48.7624 34.078 48.8018 34.3179C48.8447 34.5542 48.9271 34.7816 49.0488 35H48.0391C47.9388 34.7995 47.8743 34.5649 47.8457 34.2964ZM47.7651 32.1372C47.4142 32.2804 46.8879 32.4022 46.186 32.5024C45.7886 32.5597 45.5075 32.6242 45.3428 32.6958C45.1781 32.7674 45.0509 32.873 44.9614 33.0127C44.8719 33.1488 44.8271 33.3009 44.8271 33.4692C44.8271 33.7271 44.9238 33.9419 45.1172 34.1138C45.3141 34.2856 45.6006 34.3716 45.9766 34.3716C46.349 34.3716 46.6802 34.291 46.9702 34.1299C47.2603 33.9652 47.4733 33.7414 47.6094 33.4585C47.7132 33.2401 47.7651 32.9178 47.7651 32.4917V32.1372ZM50.2036 37.1968L50.0962 36.2891C50.3075 36.3464 50.4919 36.375 50.6494 36.375C50.8643 36.375 51.0361 36.3392 51.165 36.2676C51.2939 36.196 51.3996 36.0957 51.4819 35.9668C51.5428 35.8701 51.6413 35.6302 51.7773 35.2471C51.7952 35.1934 51.8239 35.1146 51.8633 35.0107L49.6987 29.2959H50.7407L51.9277 32.5991C52.0817 33.0181 52.2196 33.4585 52.3413 33.9204C52.4523 33.4764 52.5848 33.0431 52.7388 32.6206L53.958 29.2959H54.9248L52.7549 35.0967C52.5221 35.7233 52.3413 36.1548 52.2124 36.3911C52.0405 36.7098 51.8436 36.9425 51.6216 37.0894C51.3996 37.2397 51.1346 37.3149 50.8267 37.3149C50.6405 37.3149 50.4328 37.2756 50.2036 37.1968ZM58.9854 35V27.126H64.2974V28.0552H60.0273V30.4937H63.7227V31.4229H60.0273V35H58.9854ZM65.5381 28.2378V27.126H66.5049V28.2378H65.5381ZM65.5381 35V29.2959H66.5049V35H65.5381ZM70.0928 34.1353L70.2324 34.9893C69.9603 35.0465 69.7168 35.0752 69.502 35.0752C69.151 35.0752 68.8789 35.0197 68.6855 34.9087C68.4922 34.7977 68.3561 34.6527 68.2773 34.4736C68.1986 34.291 68.1592 33.9097 68.1592 33.3296V30.0479H67.4502V29.2959H68.1592V27.8833L69.1206 27.3032V29.2959H70.0928V30.0479H69.1206V33.3833C69.1206 33.659 69.1367 33.8363 69.1689 33.915C69.2048 33.9938 69.2603 34.0565 69.3354 34.103C69.4142 34.1496 69.5252 34.1729 69.6685 34.1729C69.7759 34.1729 69.9173 34.1603 70.0928 34.1353ZM71.2959 35V33.8989H72.397V35C72.397 35.4046 72.3254 35.7305 72.1821 35.9775C72.0389 36.2282 71.8115 36.4215 71.5 36.5576L71.2314 36.144C71.4355 36.0545 71.5859 35.922 71.6826 35.7466C71.7793 35.5747 71.833 35.3258 71.8438 35H71.2959ZM76.9355 32.4702L77.9185 32.3843C77.965 32.7782 78.0724 33.1022 78.2407 33.3564C78.4126 33.6071 78.6776 33.8112 79.0356 33.9688C79.3937 34.1227 79.7965 34.1997 80.2441 34.1997C80.6416 34.1997 80.9925 34.1406 81.2969 34.0225C81.6012 33.9043 81.8268 33.7432 81.9736 33.5391C82.124 33.3314 82.1992 33.1058 82.1992 32.8623C82.1992 32.6152 82.1276 32.4004 81.9844 32.2178C81.8411 32.0316 81.6048 31.8758 81.2754 31.7505C81.0641 31.6681 80.5968 31.541 79.8735 31.3691C79.1502 31.1937 78.6436 31.029 78.3535 30.875C77.9775 30.6781 77.6965 30.4346 77.5103 30.1445C77.3276 29.8509 77.2363 29.5233 77.2363 29.1616C77.2363 28.7642 77.3491 28.3936 77.5747 28.0498C77.8003 27.7025 78.1297 27.4393 78.563 27.2603C78.9963 27.0812 79.4779 26.9917 80.0078 26.9917C80.5915 26.9917 81.1053 27.0866 81.5493 27.2764C81.9969 27.4626 82.3407 27.7383 82.5806 28.1035C82.8205 28.4688 82.9494 28.8823 82.9673 29.3442L81.9683 29.4194C81.9146 28.9217 81.7319 28.5457 81.4204 28.2915C81.1125 28.0373 80.6559 27.9102 80.0508 27.9102C79.4206 27.9102 78.9604 28.0265 78.6704 28.2593C78.384 28.4884 78.2407 28.766 78.2407 29.0918C78.2407 29.3747 78.3428 29.6074 78.5469 29.79C78.7474 29.9727 79.2702 30.1606 80.1152 30.354C80.9639 30.5438 81.5457 30.7103 81.8608 30.8535C82.3192 31.0648 82.6576 31.3333 82.876 31.6592C83.0944 31.9814 83.2036 32.3538 83.2036 32.7764C83.2036 33.1953 83.0837 33.591 82.8438 33.9634C82.6038 34.3322 82.2583 34.6204 81.8071 34.8281C81.3595 35.0322 80.8547 35.1343 80.2925 35.1343C79.5799 35.1343 78.9819 35.0304 78.4985 34.8228C78.0187 34.6151 77.641 34.3035 77.3652 33.8882C77.0931 33.4692 76.9499 32.9966 76.9355 32.4702ZM86.6143 34.1353L86.7539 34.9893C86.4818 35.0465 86.2383 35.0752 86.0234 35.0752C85.6725 35.0752 85.4004 35.0197 85.207 34.9087C85.0137 34.7977 84.8776 34.6527 84.7988 34.4736C84.7201 34.291 84.6807 33.9097 84.6807 33.3296V30.0479H83.9717V29.2959H84.6807V27.8833L85.6421 27.3032V29.2959H86.6143V30.0479H85.6421V33.3833C85.6421 33.659 85.6582 33.8363 85.6904 33.915C85.7262 33.9938 85.7817 34.0565 85.8569 34.103C85.9357 34.1496 86.0467 34.1729 86.1899 34.1729C86.2974 34.1729 86.4388 34.1603 86.6143 34.1353ZM91.2871 34.2964C90.929 34.6007 90.5835 34.8156 90.2505 34.9409C89.9211 35.0662 89.5666 35.1289 89.187 35.1289C88.5604 35.1289 88.0788 34.9767 87.7422 34.6724C87.4056 34.3644 87.2373 33.9723 87.2373 33.4961C87.2373 33.2168 87.3 32.9626 87.4253 32.7334C87.5542 32.5007 87.7207 32.3145 87.9248 32.1748C88.1325 32.0352 88.3652 31.9295 88.623 31.8579C88.8128 31.8078 89.0993 31.7594 89.4824 31.7129C90.263 31.6198 90.8377 31.5088 91.2065 31.3799C91.2101 31.2474 91.2119 31.1632 91.2119 31.1274C91.2119 30.7336 91.1206 30.4561 90.938 30.2949C90.6909 30.0765 90.3239 29.9673 89.8369 29.9673C89.3822 29.9673 89.0456 30.0479 88.8271 30.209C88.6123 30.3665 88.453 30.6476 88.3491 31.0522L87.4038 30.9233C87.4897 30.5187 87.6312 30.1929 87.8281 29.9458C88.0251 29.6951 88.3097 29.5036 88.6821 29.3711C89.0545 29.235 89.486 29.167 89.9766 29.167C90.4635 29.167 90.8592 29.2243 91.1636 29.3389C91.4679 29.4535 91.6917 29.5985 91.835 29.7739C91.9782 29.9458 92.0785 30.1642 92.1357 30.4292C92.168 30.5939 92.1841 30.8911 92.1841 31.3208V32.6099C92.1841 33.5086 92.2038 34.078 92.2432 34.3179C92.2861 34.5542 92.3685 34.7816 92.4902 35H91.4805C91.3802 34.7995 91.3158 34.5649 91.2871 34.2964ZM91.2065 32.1372C90.8556 32.2804 90.3293 32.4022 89.6274 32.5024C89.23 32.5597 88.9489 32.6242 88.7842 32.6958C88.6195 32.7674 88.4924 32.873 88.4028 33.0127C88.3133 33.1488 88.2686 33.3009 88.2686 33.4692C88.2686 33.7271 88.3652 33.9419 88.5586 34.1138C88.7555 34.2856 89.042 34.3716 89.418 34.3716C89.7904 34.3716 90.1216 34.291 90.4116 34.1299C90.7017 33.9652 90.9147 33.7414 91.0508 33.4585C91.1546 33.2401 91.2065 32.9178 91.2065 32.4917V32.1372ZM93.645 37.1968L93.5376 36.2891C93.7489 36.3464 93.9333 36.375 94.0908 36.375C94.3057 36.375 94.4775 36.3392 94.6064 36.2676C94.7354 36.196 94.841 36.0957 94.9233 35.9668C94.9842 35.8701 95.0827 35.6302 95.2188 35.2471C95.2367 35.1934 95.2653 35.1146 95.3047 35.0107L93.1401 29.2959H94.1821L95.3691 32.5991C95.5231 33.0181 95.661 33.4585 95.7827 33.9204C95.8937 33.4764 96.0262 33.0431 96.1802 32.6206L97.3994 29.2959H98.3662L96.1963 35.0967C95.9635 35.7233 95.7827 36.1548 95.6538 36.3911C95.4819 36.7098 95.285 36.9425 95.063 37.0894C94.841 37.2397 94.576 37.3149 94.2681 37.3149C94.0819 37.3149 93.8742 37.2756 93.645 37.1968ZM107.991 32.2393L109.033 32.5024C108.815 33.3582 108.421 34.0117 107.852 34.4629C107.286 34.9105 106.593 35.1343 105.773 35.1343C104.924 35.1343 104.233 34.9624 103.7 34.6187C103.17 34.2713 102.765 33.77 102.486 33.1147C102.21 32.4595 102.072 31.7559 102.072 31.0039C102.072 30.1839 102.228 29.4696 102.54 28.8608C102.855 28.2485 103.3 27.7848 103.877 27.4697C104.457 27.151 105.094 26.9917 105.789 26.9917C106.577 26.9917 107.239 27.1922 107.776 27.5933C108.313 27.9943 108.688 28.5583 108.899 29.2852L107.873 29.5269C107.69 28.9539 107.425 28.5368 107.078 28.2754C106.731 28.014 106.294 27.8833 105.768 27.8833C105.162 27.8833 104.656 28.0283 104.248 28.3184C103.843 28.6084 103.558 28.9987 103.394 29.4893C103.229 29.9762 103.146 30.4793 103.146 30.9985C103.146 31.6681 103.243 32.2536 103.437 32.7549C103.633 33.2526 103.938 33.625 104.35 33.8721C104.761 34.1191 105.207 34.2427 105.687 34.2427C106.271 34.2427 106.765 34.0744 107.169 33.7378C107.574 33.4012 107.848 32.9017 107.991 32.2393ZM109.839 32.1479C109.839 31.0916 110.132 30.3092 110.72 29.8008C111.21 29.3783 111.808 29.167 112.514 29.167C113.298 29.167 113.939 29.4248 114.437 29.9404C114.934 30.4525 115.183 31.1615 115.183 32.0674C115.183 32.8014 115.072 33.3797 114.85 33.8022C114.632 34.2212 114.311 34.547 113.889 34.7798C113.47 35.0125 113.011 35.1289 112.514 35.1289C111.715 35.1289 111.069 34.8729 110.575 34.3608C110.084 33.8488 109.839 33.1112 109.839 32.1479ZM110.833 32.1479C110.833 32.8784 110.992 33.4263 111.311 33.7915C111.629 34.1532 112.03 34.334 112.514 34.334C112.993 34.334 113.393 34.1514 113.711 33.7861C114.03 33.4209 114.189 32.8641 114.189 32.1157C114.189 31.4103 114.028 30.8768 113.706 30.5151C113.387 30.1499 112.99 29.9673 112.514 29.9673C112.03 29.9673 111.629 30.1481 111.311 30.5098C110.992 30.8714 110.833 31.4175 110.833 32.1479ZM116.322 35V29.2959H117.192V30.1069C117.611 29.4803 118.216 29.167 119.007 29.167C119.351 29.167 119.666 29.2297 119.953 29.355C120.243 29.4767 120.459 29.6379 120.603 29.8384C120.746 30.0389 120.846 30.277 120.903 30.5527C120.939 30.7318 120.957 31.0451 120.957 31.4927V35H119.99V31.5303C119.99 31.1364 119.953 30.8428 119.877 30.6494C119.802 30.4525 119.668 30.2967 119.475 30.1821C119.285 30.064 119.061 30.0049 118.803 30.0049C118.391 30.0049 118.035 30.1356 117.734 30.397C117.437 30.6584 117.289 31.1543 117.289 31.8848V35H116.322ZM122.445 35V29.2959H123.315V30.1069C123.734 29.4803 124.339 29.167 125.13 29.167C125.474 29.167 125.789 29.2297 126.076 29.355C126.366 29.4767 126.582 29.6379 126.726 29.8384C126.869 30.0389 126.969 30.277 127.026 30.5527C127.062 30.7318 127.08 31.0451 127.08 31.4927V35H126.113V31.5303C126.113 31.1364 126.076 30.8428 126 30.6494C125.925 30.4525 125.791 30.2967 125.598 30.1821C125.408 30.064 125.184 30.0049 124.926 30.0049C124.514 30.0049 124.158 30.1356 123.857 30.397C123.56 30.6584 123.412 31.1543 123.412 31.8848V35H122.445ZM132.473 33.1631L133.472 33.2866C133.314 33.8703 133.022 34.3232 132.596 34.6455C132.17 34.9678 131.626 35.1289 130.963 35.1289C130.129 35.1289 129.467 34.8729 128.976 34.3608C128.489 33.8452 128.246 33.1237 128.246 32.1963C128.246 31.2367 128.493 30.4919 128.987 29.9619C129.481 29.432 130.122 29.167 130.91 29.167C131.672 29.167 132.295 29.4266 132.779 29.9458C133.262 30.465 133.504 31.1955 133.504 32.1372C133.504 32.1945 133.502 32.2804 133.499 32.395H129.245C129.28 33.0216 129.458 33.5015 129.776 33.8345C130.095 34.1675 130.493 34.334 130.969 34.334C131.323 34.334 131.626 34.2409 131.876 34.0547C132.127 33.8685 132.326 33.5713 132.473 33.1631ZM129.298 31.6001H132.483C132.44 31.1203 132.319 30.7604 132.118 30.5205C131.81 30.1481 131.411 29.9619 130.92 29.9619C130.476 29.9619 130.102 30.1105 129.798 30.4077C129.497 30.7049 129.331 31.1024 129.298 31.6001ZM138.413 32.9106L139.364 33.0342C139.26 33.6895 138.993 34.2033 138.563 34.5757C138.137 34.9445 137.613 35.1289 136.99 35.1289C136.209 35.1289 135.581 34.8747 135.104 34.3662C134.632 33.8542 134.396 33.1219 134.396 32.1694C134.396 31.5535 134.498 31.0146 134.702 30.5527C134.906 30.0908 135.215 29.7453 135.631 29.5161C136.05 29.2834 136.505 29.167 136.995 29.167C137.615 29.167 138.121 29.3245 138.515 29.6396C138.909 29.9512 139.161 30.3952 139.272 30.9717L138.333 31.1167C138.243 30.7336 138.084 30.4453 137.854 30.252C137.629 30.0586 137.355 29.9619 137.033 29.9619C136.546 29.9619 136.15 30.1374 135.846 30.4883C135.541 30.8356 135.389 31.387 135.389 32.1426C135.389 32.9089 135.536 33.4657 135.83 33.813C136.123 34.1603 136.506 34.334 136.979 34.334C137.359 34.334 137.675 34.2176 137.93 33.9849C138.184 33.7521 138.345 33.394 138.413 32.9106ZM142.302 34.1353L142.441 34.9893C142.169 35.0465 141.926 35.0752 141.711 35.0752C141.36 35.0752 141.088 35.0197 140.895 34.9087C140.701 34.7977 140.565 34.6527 140.486 34.4736C140.408 34.291 140.368 33.9097 140.368 33.3296V30.0479H139.659V29.2959H140.368V27.8833L141.33 27.3032V29.2959H142.302V30.0479H141.33V33.3833C141.33 33.659 141.346 33.8363 141.378 33.915C141.414 33.9938 141.469 34.0565 141.544 34.103C141.623 34.1496 141.734 34.1729 141.877 34.1729C141.985 34.1729 142.126 34.1603 142.302 34.1353ZM147.157 33.1631L148.156 33.2866C147.999 33.8703 147.707 34.3232 147.281 34.6455C146.855 34.9678 146.31 35.1289 145.648 35.1289C144.814 35.1289 144.151 34.8729 143.661 34.3608C143.174 33.8452 142.93 33.1237 142.93 32.1963C142.93 31.2367 143.177 30.4919 143.671 29.9619C144.166 29.432 144.806 29.167 145.594 29.167C146.357 29.167 146.98 29.4266 147.463 29.9458C147.947 30.465 148.188 31.1955 148.188 32.1372C148.188 32.1945 148.187 32.2804 148.183 32.395H143.929C143.965 33.0216 144.142 33.5015 144.461 33.8345C144.78 34.1675 145.177 34.334 145.653 34.334C146.008 34.334 146.31 34.2409 146.561 34.0547C146.812 33.8685 147.01 33.5713 147.157 33.1631ZM143.983 31.6001H147.168C147.125 31.1203 147.003 30.7604 146.803 30.5205C146.495 30.1481 146.096 29.9619 145.605 29.9619C145.161 29.9619 144.787 30.1105 144.482 30.4077C144.182 30.7049 144.015 31.1024 143.983 31.6001ZM153.076 35V34.2803C152.715 34.846 152.183 35.1289 151.481 35.1289C151.026 35.1289 150.607 35.0036 150.224 34.7529C149.845 34.5023 149.549 34.1532 149.338 33.7056C149.13 33.2544 149.026 32.737 149.026 32.1533C149.026 31.584 149.121 31.0684 149.311 30.6064C149.501 30.141 149.785 29.7847 150.165 29.5376C150.545 29.2905 150.969 29.167 151.438 29.167C151.782 29.167 152.088 29.2404 152.356 29.3872C152.625 29.5304 152.843 29.7184 153.012 29.9512V27.126H153.973V35H153.076ZM150.02 32.1533C150.02 32.8838 150.174 33.4299 150.482 33.7915C150.79 34.1532 151.153 34.334 151.572 34.334C151.995 34.334 152.353 34.1621 152.646 33.8184C152.944 33.471 153.092 32.9429 153.092 32.2339C153.092 31.4533 152.942 30.8804 152.641 30.5151C152.34 30.1499 151.97 29.9673 151.529 29.9673C151.1 29.9673 150.74 30.1427 150.45 30.4937C150.163 30.8446 150.02 31.3978 150.02 32.1533Z" fill="black"/>
<path d="M34.4746 19V4.68359H44.2891V7.10547H37.3652V10.4941H43.3418V12.916H37.3652V19H34.4746ZM46.6621 7.22266V4.68359H49.4062V7.22266H46.6621ZM46.6621 19V8.62891H49.4062V19H46.6621ZM56.9844 8.62891V10.8164H55.1094V14.9961C55.1094 15.8424 55.1257 16.3372 55.1582 16.4805C55.1973 16.6172 55.2786 16.7311 55.4023 16.8223C55.5326 16.9134 55.6888 16.959 55.8711 16.959C56.125 16.959 56.4928 16.8711 56.9746 16.6953L57.209 18.8242C56.571 19.0977 55.8483 19.2344 55.041 19.2344C54.5462 19.2344 54.1003 19.153 53.7031 18.9902C53.306 18.821 53.013 18.6061 52.8242 18.3457C52.6419 18.0788 52.515 17.7207 52.4434 17.2715C52.3848 16.9525 52.3555 16.3079 52.3555 15.3379V10.8164H51.0957V8.62891H52.3555V6.56836L55.1094 4.9668V8.62891H56.9844ZM68.0684 13.7363L70.8711 14.625C70.4414 16.1875 69.7253 17.3496 68.7227 18.1113C67.7266 18.8665 66.4603 19.2441 64.9238 19.2441C63.0228 19.2441 61.4603 18.5964 60.2363 17.3008C59.0124 15.9987 58.4004 14.2214 58.4004 11.9688C58.4004 9.58594 59.0156 7.73698 60.2461 6.42188C61.4766 5.10026 63.0944 4.43945 65.0996 4.43945C66.8509 4.43945 68.2734 4.95703 69.3672 5.99219C70.0182 6.60417 70.5065 7.48307 70.832 8.62891L67.9707 9.3125C67.8014 8.57031 67.4466 7.98438 66.9062 7.55469C66.3724 7.125 65.7214 6.91016 64.9531 6.91016C63.8919 6.91016 63.0293 7.29102 62.3652 8.05273C61.7077 8.81445 61.3789 10.0482 61.3789 11.7539C61.3789 13.5638 61.7044 14.8529 62.3555 15.6211C63.0065 16.3893 63.8529 16.7734 64.8945 16.7734C65.6628 16.7734 66.3236 16.5293 66.877 16.041C67.4303 15.5527 67.8275 14.7845 68.0684 13.7363ZM72.707 13.668C72.707 12.7565 72.9316 11.8743 73.3809 11.0215C73.8301 10.1686 74.4648 9.51758 75.2852 9.06836C76.112 8.61914 77.0332 8.39453 78.0488 8.39453C79.6178 8.39453 80.9036 8.9056 81.9062 9.92773C82.9089 10.9434 83.4102 12.2292 83.4102 13.7852C83.4102 15.3542 82.9023 16.6562 81.8867 17.6914C80.8776 18.7201 79.6048 19.2344 78.0684 19.2344C77.1178 19.2344 76.2096 19.0195 75.3438 18.5898C74.4844 18.1602 73.8301 17.5319 73.3809 16.7051C72.9316 15.8717 72.707 14.8594 72.707 13.668ZM75.5195 13.8145C75.5195 14.8431 75.7637 15.6309 76.252 16.1777C76.7402 16.7246 77.3424 16.998 78.0586 16.998C78.7747 16.998 79.3737 16.7246 79.8555 16.1777C80.3438 15.6309 80.5879 14.8366 80.5879 13.7949C80.5879 12.7793 80.3438 11.998 79.8555 11.4512C79.3737 10.9043 78.7747 10.6309 78.0586 10.6309C77.3424 10.6309 76.7402 10.9043 76.252 11.4512C75.7637 11.998 75.5195 12.7858 75.5195 13.8145ZM95.002 19H92.2578V13.707C92.2578 12.5872 92.1992 11.8646 92.082 11.5391C91.9648 11.207 91.7728 10.9499 91.5059 10.7676C91.2454 10.5853 90.9297 10.4941 90.5586 10.4941C90.0833 10.4941 89.6569 10.6243 89.2793 10.8848C88.9017 11.1452 88.6413 11.4902 88.498 11.9199C88.3613 12.3496 88.293 13.1439 88.293 14.3027V19H85.5488V8.62891H88.0977V10.1523C89.0026 8.98047 90.1419 8.39453 91.5156 8.39453C92.1211 8.39453 92.6745 8.50521 93.1758 8.72656C93.6771 8.94141 94.0547 9.2181 94.3086 9.55664C94.569 9.89518 94.748 10.2793 94.8457 10.709C94.9499 11.1387 95.002 11.7539 95.002 12.5547V19ZM107.229 19H104.484V13.707C104.484 12.5872 104.426 11.8646 104.309 11.5391C104.191 11.207 103.999 10.9499 103.732 10.7676C103.472 10.5853 103.156 10.4941 102.785 10.4941C102.31 10.4941 101.883 10.6243 101.506 10.8848C101.128 11.1452 100.868 11.4902 100.725 11.9199C100.588 12.3496 100.52 13.1439 100.52 14.3027V19H97.7754V8.62891H100.324V10.1523C101.229 8.98047 102.368 8.39453 103.742 8.39453C104.348 8.39453 104.901 8.50521 105.402 8.72656C105.904 8.94141 106.281 9.2181 106.535 9.55664C106.796 9.89518 106.975 10.2793 107.072 10.709C107.176 11.1387 107.229 11.7539 107.229 12.5547V19ZM116.027 15.6992L118.762 16.1582C118.41 17.1608 117.854 17.9258 117.092 18.4531C116.337 18.974 115.389 19.2344 114.25 19.2344C112.447 19.2344 111.112 18.6452 110.246 17.4668C109.562 16.5228 109.221 15.3314 109.221 13.8926C109.221 12.1738 109.67 10.8294 110.568 9.85938C111.467 8.88281 112.603 8.39453 113.977 8.39453C115.52 8.39453 116.737 8.9056 117.629 9.92773C118.521 10.9434 118.947 12.5026 118.908 14.6055H112.033C112.053 15.4193 112.274 16.054 112.697 16.5098C113.12 16.959 113.648 17.1836 114.279 17.1836C114.709 17.1836 115.07 17.0664 115.363 16.832C115.656 16.5977 115.878 16.2201 116.027 15.6992ZM116.184 12.9258C116.164 12.1315 115.959 11.5293 115.568 11.1191C115.178 10.7025 114.702 10.4941 114.143 10.4941C113.544 10.4941 113.049 10.7122 112.658 11.1484C112.268 11.5846 112.076 12.1771 112.082 12.9258H116.184ZM130.197 11.6953L127.492 12.1836C127.401 11.6432 127.193 11.2363 126.867 10.9629C126.548 10.6895 126.132 10.5527 125.617 10.5527C124.934 10.5527 124.387 10.7904 123.977 11.2656C123.573 11.7344 123.371 12.5221 123.371 13.6289C123.371 14.8594 123.576 15.7285 123.986 16.2363C124.403 16.7441 124.96 16.998 125.656 16.998C126.177 16.998 126.604 16.8516 126.936 16.5586C127.268 16.2591 127.502 15.748 127.639 15.0254L130.334 15.4844C130.054 16.7214 129.517 17.6556 128.723 18.2871C127.928 18.9186 126.864 19.2344 125.529 19.2344C124.012 19.2344 122.801 18.7559 121.896 17.7988C120.998 16.8418 120.549 15.5169 120.549 13.8242C120.549 12.112 121.001 10.7806 121.906 9.83008C122.811 8.87305 124.035 8.39453 125.578 8.39453C126.841 8.39453 127.844 8.66797 128.586 9.21484C129.335 9.75521 129.872 10.582 130.197 11.6953ZM137.043 8.62891V10.8164H135.168V14.9961C135.168 15.8424 135.184 16.3372 135.217 16.4805C135.256 16.6172 135.337 16.7311 135.461 16.8223C135.591 16.9134 135.747 16.959 135.93 16.959C136.184 16.959 136.551 16.8711 137.033 16.6953L137.268 18.8242C136.63 19.0977 135.907 19.2344 135.1 19.2344C134.605 19.2344 134.159 19.153 133.762 18.9902C133.365 18.821 133.072 18.6061 132.883 18.3457C132.701 18.0788 132.574 17.7207 132.502 17.2715C132.443 16.9525 132.414 16.3079 132.414 15.3379V10.8164H131.154V8.62891H132.414V6.56836L135.168 4.9668V8.62891H137.043Z" fill="black"/>
<defs>
<filter id="filter0_i_658_3" x="7.60571" y="2.14343" width="15.803" height="11.8591" filterUnits="userSpaceOnUse" color-interpolation-filters="sRGB">
<feFlood flood-opacity="0" result="BackgroundImageFix"/>
<feBlend mode="normal" in="SourceGraphic" in2="BackgroundImageFix" result="shape"/>
<feColorMatrix in="SourceAlpha" type="matrix" values="0 0 0 0 0 0 0 0 0 0 0 0 0 0 0 0 0 0 127 0" result="hardAlpha"/>
<feOffset dx="-8" dy="4"/>
<feGaussianBlur stdDeviation="4"/>
<feComposite in2="hardAlpha" operator="arithmetic" k2="-1" k3="1"/>
<feColorMatrix type="matrix" values="0 0 0 0 0 0 0 0 0 0 0 0 0 0 0 0 0 0 0.25 0"/>
<feBlend mode="normal" in2="shape" result="effect1_innerShadow_658_3"/>
</filter>
<linearGradient id="paint0_linear_658_3" x1="10.2706" y1="15.9456" x2="10.2706" y2="38.1757" gradientUnits="userSpaceOnUse">
<stop stop-color="#010138"/>
<stop offset="1" stop-color="#03039E"/>
</linearGradient>
<linearGradient id="paint1_linear_658_3" x1="14.851" y1="0" x2="14.851" y2="32.9303" gradientUnits="userSpaceOnUse">
<stop stop-color="#010138"/>
<stop offset="1" stop-color="#03039E"/>
</linearGradient>
</defs>
</svg>
