<svg width="66" height="76" viewBox="0 0 66 76" fill="none" xmlns="http://www.w3.org/2000/svg">
<path d="M44.063 58.721V55.9425C44.063 55.9425 36.2192 53.9185 36.2192 39.9857H29.7132C29.7132 53.9185 21.8694 55.9425 21.8694 55.9425V58.721H44.063Z" fill="#E8A615"/>
<path d="M36.3261 42.7056C36.3572 43.0879 36.395 43.4594 36.439 43.8201C37.7102 54.3034 44.0628 55.9425 44.0628 55.9425V58.7211H42.4208V55.9425C42.4208 55.9425 36.4007 54.3893 34.9086 44.6356C34.3055 44.8516 33.6644 44.9676 33 44.9676C31.7094 44.9676 30.5071 44.5292 29.4985 43.7737C29.5416 43.4131 29.5787 43.042 29.6093 42.66L36.3261 42.7056Z" fill="#B7791D"/>
<path d="M39.4562 36.3002C39.4562 40.427 36.5656 43.7729 33.0001 43.7729C29.4345 43.7729 26.5439 40.4274 26.5439 36.3002H39.4558H39.4562Z" fill="#E8A615"/>
<path d="M39.4562 36.2997C39.4562 37.056 39.3578 37.8139 39.16 38.5441C38.6833 40.2988 37.6623 41.7743 36.3262 42.7055C35.3548 43.3828 34.2165 43.957 33.0001 43.957C31.7836 43.957 30.6244 43.4928 29.7182 42.7361C30.3548 43.0065 31.0426 43.1543 31.7602 43.1543C34.0892 43.1543 36.1042 41.5982 37.0712 39.335C35.7581 39.7206 34.3962 39.9164 33.0001 39.9164C30.8476 39.9164 28.7766 39.451 26.8401 38.5441C26.6475 37.8357 26.5439 37.0818 26.5439 36.2997H39.4562Z" fill="#B7791D"/>
<path d="M52.5374 7.02105C52.5374 27.4624 43.7903 39.1537 33.0003 39.1537C22.2103 39.1537 13.4631 27.4624 13.4631 7.02105V3.59012H52.537V7.02105H52.5374Z" fill="#E8A615"/>
<path d="M11.2166 29.3505C11.7517 29.6092 12.2686 29.7655 12.8654 29.7961C13.1285 29.8094 13.3916 29.7695 13.6507 29.7296C13.8207 29.7035 13.9867 29.662 14.1475 29.6003C14.9936 29.2768 15.7814 28.703 16.1686 27.8576C16.3962 27.3608 16.5159 26.8967 16.5518 26.3475C16.5796 25.9232 16.5219 25.4763 16.4095 25.0678C16.2822 24.604 16.0598 24.1455 15.81 23.7333C14.928 22.2771 13.6023 21.1288 12.2904 20.0731C11.3846 19.3442 10.4555 18.6447 9.53558 17.9339L9.7991 18.1374C8.28167 16.9649 6.77271 15.7606 5.45836 14.3584C5.09613 13.972 4.75041 13.5706 4.42686 13.1516L4.63034 13.4151C4.03401 12.6403 3.51665 11.8046 3.13266 10.9041L3.26401 11.2151C2.95658 10.4862 2.74142 9.72228 2.63384 8.93778C2.64915 9.05302 2.66486 9.16866 2.68017 9.28389C2.59072 8.61101 2.57219 7.92643 2.66003 7.25233L2.61369 7.59845C2.69186 7.02669 2.84376 6.46985 3.06658 5.93758C3.02266 6.04113 2.97914 6.14469 2.93523 6.24864C3.15643 5.73007 3.44211 5.24374 3.78621 4.7973C3.71852 4.88513 3.65042 4.97297 3.58273 5.06081C3.91917 4.63048 4.30558 4.24367 4.73631 3.90723L4.4728 4.11071C4.91924 3.76661 5.40557 3.48093 5.92414 3.25973L5.61308 3.39108C6.14535 3.16786 6.7022 3.01636 7.27395 2.93819L6.92783 2.98453C7.41618 2.92086 7.91219 2.90354 8.40094 2.96881C8.2857 2.9535 8.17006 2.93779 8.05482 2.92247C8.43075 2.97647 8.79621 3.0772 9.14676 3.22346L8.8357 3.09211C9.17698 3.23837 9.4969 3.42493 9.79265 3.65016L9.52913 3.44668C9.83173 3.68119 10.1017 3.95115 10.3362 4.25375L10.1327 3.99023C10.3576 4.28598 10.5441 4.60591 10.6908 4.94719L10.5594 4.63613C10.7057 4.98667 10.8064 5.35213 10.8604 5.72806C10.8451 5.61282 10.8294 5.49718 10.8141 5.38194C10.8411 5.58341 10.8548 5.78487 10.856 5.98795C10.8576 6.32278 10.9998 6.67131 11.2371 6.90823C11.4745 7.14516 11.8335 7.30391 12.1574 7.2894C12.8597 7.25798 13.4625 6.71725 13.4589 5.98795C13.4516 4.49067 12.8513 3.02442 11.7851 1.96834C10.719 0.91227 9.2495 0.314325 7.75102 0.323592C4.97202 0.340918 2.31713 1.89823 0.975789 4.33957C0.306124 5.55883 -0.0315295 6.9445 0.00231643 8.3354C0.0285067 9.4084 0.219897 10.4947 0.593411 11.5024C1.34447 13.5303 2.65076 15.2654 4.17987 16.7751C5.67433 18.251 7.35816 19.5191 9.02064 20.7959C9.21042 20.9418 9.4002 21.0877 9.58957 21.2339L9.32606 21.0304C10.4688 21.9137 11.6215 22.8082 12.6208 23.8558C12.8626 24.1092 13.0938 24.3731 13.309 24.6499L13.1055 24.3864C13.4234 24.7978 13.7043 25.239 13.9077 25.7189C13.8638 25.6154 13.8203 25.5118 13.7764 25.4078C13.8731 25.6395 13.9384 25.8797 13.9742 26.1283L13.9279 25.7822C13.9601 26.0328 13.9613 26.283 13.9299 26.5336L13.9762 26.1875C13.9452 26.4031 13.8908 26.6106 13.8078 26.812L13.9392 26.501C13.8654 26.6698 13.7744 26.8266 13.662 26.9724L13.8654 26.7089C13.7474 26.8548 13.6132 26.9837 13.4645 27.0985C13.5524 27.0308 13.6402 26.9627 13.728 26.8951C13.5725 27.0111 13.4065 27.1078 13.2292 27.1864L13.5403 27.055C13.3529 27.1332 13.1599 27.188 12.9589 27.2186C13.0741 27.2033 13.1897 27.1876 13.305 27.1723C13.0902 27.2009 12.8775 27.2005 12.6627 27.1731L13.0088 27.2194C12.7916 27.1868 12.5837 27.1275 12.3803 27.0445L12.6913 27.1759C12.6373 27.1525 12.5841 27.1279 12.5309 27.1026C12.2118 26.9482 11.8802 26.8745 11.5281 26.9712C11.2263 27.0542 10.8991 27.2879 10.75 27.5696C10.5904 27.8717 10.5103 28.2376 10.6187 28.5724C10.7182 28.8807 10.9144 29.2042 11.217 29.3505H11.2166Z" fill="#E8A615"/>
<path d="M10.7398 1.96794C9.79892 1.03557 8.54058 0.459782 7.22583 0.344947C7.4003 0.332054 7.57517 0.324801 7.75084 0.323592C9.24973 0.314325 10.7208 0.913075 11.7858 1.96794C12.8515 3.02401 13.4519 4.49027 13.4591 5.98795C13.4627 6.71725 12.86 7.25798 12.1577 7.2894C11.982 7.29706 11.7934 7.25113 11.621 7.17135C12.0819 6.97028 12.4163 6.5315 12.4135 5.98795C12.4059 4.49027 11.8055 3.02401 10.7398 1.96794Z" fill="#B7791D"/>
<path d="M16.5522 26.3471C16.516 26.8963 16.3963 27.3605 16.1686 27.8573C15.7818 28.7026 14.9937 29.2764 14.1475 29.5999C13.9868 29.6616 13.8212 29.7031 13.6511 29.7293C13.3917 29.7696 13.1289 29.8094 12.8654 29.7957C12.7232 29.7885 12.5854 29.774 12.4508 29.7526C12.5024 29.745 12.554 29.7373 12.6051 29.7293C12.7752 29.7031 12.9412 29.6616 13.1019 29.5999C13.9477 29.2764 14.7358 28.7026 15.123 27.8573C15.3507 27.3605 15.47 26.8963 15.5062 26.3471C15.534 25.9228 15.476 25.476 15.364 25.0674C15.2367 24.6036 15.0142 24.1451 14.7644 23.7329C13.8824 22.2767 12.5568 21.1284 11.2449 20.0727C10.3874 19.3829 9.50945 18.7193 8.63791 18.0476C7.15917 16.9033 5.69372 15.7251 4.41241 14.358C4.09571 14.0203 3.7915 13.6706 3.50341 13.308C3.53 13.3438 3.557 13.3793 3.5844 13.4147C3.51671 13.3269 3.44861 13.2391 3.38092 13.1516C3.42 13.2024 3.45949 13.2523 3.49938 13.3027C2.96953 12.6004 2.50576 11.849 2.14796 11.0443C1.89895 10.4194 1.71723 9.77025 1.61287 9.10542C1.54881 8.54374 1.53632 7.97561 1.59595 7.41312C1.66969 6.96507 1.78976 6.52668 1.95415 6.10321C2.14071 5.69222 2.36877 5.30219 2.6351 4.93794C2.91513 4.59626 3.22781 4.28359 3.57029 4.00355C3.93414 3.73802 4.32256 3.51037 4.73274 3.32422C5.16025 3.15821 5.60266 3.03733 6.05515 2.9636C6.42423 2.92411 6.79654 2.91323 7.16642 2.94748C7.11445 2.93781 7.06206 2.92935 7.00928 2.92169C7.07294 2.93015 7.13661 2.93902 7.19987 2.94748C7.22444 2.94426 7.24943 2.94063 7.274 2.93741C7.25023 2.94063 7.22646 2.94385 7.20309 2.94788C7.21155 2.94909 7.22001 2.9499 7.22807 2.95111C7.22444 2.95151 7.22082 2.95191 7.21759 2.95231C7.21195 2.95272 7.20672 2.95312 7.20148 2.95393C7.16763 2.95675 7.13379 2.95997 7.09994 2.964C6.64786 3.03773 6.20544 3.15821 5.77834 3.32422C5.36816 3.51077 4.97853 3.73843 4.61428 4.00476C4.273 4.28439 3.96073 4.59666 3.6811 4.93794C3.41557 5.30058 3.18872 5.68819 3.00257 6.09716C2.83576 6.52467 2.71488 6.96789 2.64074 7.42078C2.58232 7.98125 2.59521 8.54737 2.65887 9.10703C2.76323 9.77106 2.94455 10.4198 3.19396 11.0443C3.55176 11.849 4.01553 12.6004 4.54538 13.3027C4.54659 13.3043 4.5478 13.3059 4.54941 13.308C4.8371 13.6706 5.14131 14.0203 5.45841 14.358C6.71998 15.7046 8.16125 16.8678 9.61703 17.996C10.5103 18.6854 11.4117 19.3652 12.2909 20.0727C13.6028 21.1284 14.9284 22.2767 15.8104 23.7329C16.0598 24.1451 16.2823 24.6036 16.4096 25.0674C16.522 25.476 16.58 25.9228 16.5522 26.3471Z" fill="#B7791D"/>
<path d="M54.7835 29.3505C54.2484 29.6092 53.7315 29.7655 53.1347 29.7961C52.8716 29.8094 52.6085 29.7695 52.3494 29.7296C52.1794 29.7035 52.0134 29.662 51.8526 29.6003C51.0065 29.2768 50.2187 28.703 49.8315 27.8576C49.6039 27.3608 49.4842 26.8967 49.4483 26.3475C49.4205 25.9232 49.4781 25.4763 49.5906 25.0678C49.7179 24.604 49.9403 24.1455 50.1901 23.7333C51.0721 22.2771 52.3978 21.1288 53.7097 20.0731C54.6155 19.3442 55.5446 18.6447 56.4645 17.9339C56.3767 18.0016 56.2888 18.0697 56.201 18.1374C57.7184 16.9649 59.2274 15.7606 60.5417 14.3584C60.904 13.972 61.2497 13.5706 61.5732 13.1516L61.3697 13.4151C61.9661 12.6403 62.4834 11.8046 62.8674 10.9041C62.8235 11.0076 62.78 11.1112 62.7361 11.2151C63.0435 10.4862 63.2587 9.72228 63.3663 8.93778C63.3509 9.05302 63.3352 9.16866 63.3199 9.28389C63.4094 8.61101 63.4279 7.92643 63.3401 7.25233C63.3554 7.36757 63.3711 7.48321 63.3864 7.59845C63.3082 7.02669 63.1563 6.46985 62.9335 5.93758C62.9774 6.04113 63.0209 6.14469 63.0649 6.24864C62.8437 5.73007 62.558 5.24374 62.2139 4.7973C62.2816 4.88513 62.3497 4.97297 62.4174 5.06081C62.0809 4.63048 61.6945 4.24367 61.2638 3.90723L61.5273 4.11071C61.0808 3.76661 60.5945 3.48093 60.0759 3.25973C60.1795 3.30364 60.2831 3.34716 60.387 3.39108C59.8547 3.16786 59.2979 3.01636 58.7261 2.93819C58.8414 2.9535 58.957 2.96921 59.0723 2.98453C58.5839 2.92086 58.0879 2.90354 57.5992 2.96881L57.9453 2.92247C57.5693 2.97647 57.2039 3.0772 56.8533 3.22346L57.1644 3.09211C56.8231 3.23837 56.5032 3.42493 56.2074 3.65016L56.471 3.44668C56.1684 3.68119 55.8984 3.95115 55.6639 4.25375L55.8674 3.99023C55.6425 4.28598 55.456 4.60591 55.3093 4.94719L55.4407 4.63613C55.2944 4.98667 55.1937 5.35213 55.1397 5.72806C55.155 5.61282 55.1707 5.49718 55.186 5.38194C55.159 5.58341 55.1453 5.78487 55.1441 5.98795C55.1425 6.32278 55.0003 6.67131 54.7629 6.90823C54.5373 7.13387 54.1666 7.30391 53.8427 7.2894C53.1404 7.25797 52.5376 6.71725 52.5412 5.98795C52.5485 4.49067 53.1488 3.02442 54.215 1.96834C55.2791 0.913478 56.7502 0.314325 58.2491 0.323592C61.0281 0.340918 63.683 1.89823 65.0243 4.33957C65.694 5.55883 66.0316 6.9445 65.9978 8.3354C65.9716 9.4084 65.7802 10.4947 65.4067 11.5024C64.6556 13.5303 63.3493 15.2654 61.8202 16.7751C60.3258 18.251 58.6419 19.5191 56.9795 20.7959C56.7897 20.9418 56.5999 21.0877 56.4105 21.2339L56.674 21.0304C55.5313 21.9137 54.3786 22.8082 53.3793 23.8558C53.1375 24.1092 52.9063 24.3731 52.6911 24.6499L52.8946 24.3864C52.5767 24.7978 52.2958 25.239 52.0923 25.7189C52.1363 25.6154 52.1798 25.5118 52.2237 25.4078C52.127 25.6395 52.0617 25.8797 52.0259 26.1283C52.0412 26.013 52.0569 25.8974 52.0722 25.7822C52.04 26.0328 52.0388 26.283 52.0702 26.5336C52.0549 26.4184 52.0392 26.3027 52.0238 26.1875C52.0549 26.4031 52.1093 26.6106 52.1923 26.812C52.1483 26.7085 52.1048 26.6049 52.0609 26.501C52.1346 26.6698 52.2257 26.8266 52.3381 26.9724C52.2704 26.8846 52.2023 26.7967 52.1347 26.7089C52.2527 26.8548 52.3869 26.9837 52.5356 27.0985C52.4477 27.0308 52.3599 26.9627 52.2721 26.8951C52.4276 27.0111 52.5936 27.1078 52.7709 27.1864C52.6673 27.1424 52.5638 27.0989 52.4598 27.055C52.6472 27.1332 52.8402 27.188 53.0412 27.2186C52.926 27.2033 52.8104 27.1876 52.6951 27.1723C52.9099 27.2009 53.1226 27.2005 53.3374 27.1731C53.2222 27.1884 53.1065 27.2041 52.9913 27.2194C53.2085 27.1868 53.4164 27.1275 53.6198 27.0445C53.5163 27.0885 53.4127 27.132 53.3088 27.1759C53.3628 27.1525 53.416 27.1279 53.4691 27.1026C53.7883 26.9482 54.1199 26.8745 54.472 26.9712C54.7738 27.0542 55.101 27.2879 55.2501 27.5696C55.4096 27.8717 55.4898 28.2376 55.3814 28.5724C55.2819 28.8807 55.0857 29.2042 54.7831 29.3505H54.7835Z" fill="#E8A615"/>
<path d="M52.5374 3.59012V7.02105C52.5374 27.4624 43.7903 39.1537 33.0003 39.1537C27.5781 39.1537 22.672 36.2015 19.1323 30.6701C22.4392 35.037 26.7517 37.3522 31.4692 37.3522C41.8836 37.3522 50.3262 26.0678 50.3262 6.33768V3.59012H52.5374Z" fill="#B7791D"/>
<path d="M55.382 28.5724C55.282 28.8807 55.0858 29.2042 54.7836 29.3505C54.2485 29.6092 53.7316 29.7655 53.1348 29.7957C52.8794 29.809 52.6251 29.772 52.3733 29.7329C52.7597 29.6599 53.1219 29.5298 53.4926 29.3505C53.7948 29.2042 53.991 28.8807 54.0906 28.5724C54.199 28.2376 54.1192 27.8717 53.9596 27.5696C53.8605 27.3822 53.6824 27.2162 53.4858 27.1018C53.4834 27.1001 53.4813 27.0989 53.4793 27.0981C53.796 26.9466 54.1244 26.8753 54.4725 26.9716C54.7747 27.0546 55.1019 27.2879 55.2506 27.5696C55.4102 27.8717 55.4903 28.2376 55.382 28.5724Z" fill="#B7791D"/>
<path d="M65.9978 8.33499C65.9716 9.40838 65.7802 10.4947 65.4071 11.5024C64.656 13.5299 63.3497 15.2649 61.8202 16.7751C60.3258 18.2506 58.6419 19.5186 56.9794 20.7959C56.8062 20.9293 56.6325 21.0623 56.4597 21.196C56.4581 21.1972 56.4564 21.1984 56.4548 21.2001C56.4399 21.2113 56.425 21.2226 56.4105 21.2339C55.3548 22.0518 54.3012 22.8887 53.3789 23.8558C53.1746 24.0697 52.978 24.2913 52.7922 24.5218C52.5549 24.8417 52.3426 25.1794 52.1725 25.5392C52.1717 25.5392 52.1717 25.54 52.1717 25.5404C52.1218 25.6778 52.0831 25.818 52.0545 25.9611C52.0448 26.0924 52.0444 26.2234 52.0529 26.3547C52.073 26.4542 52.0992 26.5521 52.1314 26.6488C52.162 26.7081 52.1951 26.7653 52.2314 26.8213C52.2829 26.8773 52.3373 26.9305 52.3941 26.9813C52.4046 26.9885 52.4151 26.9954 52.426 27.0018C52.424 27.0022 52.4215 27.003 52.4195 27.0038C52.4179 27.0042 52.4159 27.0046 52.4143 27.0054C52.3389 27.0308 52.264 27.0618 52.1899 27.0973C52.0827 27.1352 51.9743 27.1662 51.8635 27.19C51.774 27.1952 51.6846 27.1952 51.5951 27.1904C51.5085 27.1714 51.4231 27.1477 51.3389 27.1195C51.2579 27.078 51.1797 27.032 51.1036 26.9817C51.0467 26.9309 50.9919 26.8777 50.9404 26.8213C50.9045 26.7657 50.8715 26.7085 50.8409 26.6501C50.8082 26.5534 50.782 26.4546 50.7619 26.3547C50.7534 26.2234 50.7538 26.092 50.7635 25.9606C50.7917 25.8176 50.8308 25.6774 50.8807 25.5404C50.8807 25.54 50.8807 25.5396 50.8815 25.5392C51.0516 25.1794 51.2639 24.8417 51.5012 24.5218C51.687 24.2913 51.8836 24.0697 52.0879 23.8558C53.0251 22.8734 54.0973 22.0253 55.1695 21.1952C55.3424 21.0619 55.5152 20.9289 55.6885 20.7959C57.3509 19.5186 59.0348 18.2506 60.5292 16.7751C62.0588 15.2649 63.365 13.5299 64.1157 11.5024C64.4888 10.4947 64.6806 9.40838 64.7068 8.33499C64.7406 6.94448 64.403 5.55841 63.7329 4.33956C62.4979 2.09122 60.1485 0.59233 57.6137 0.356214C57.824 0.333247 58.0363 0.322368 58.2491 0.323577C61.0281 0.340903 63.683 1.89822 65.0243 4.33956C65.694 5.55841 66.0316 6.94448 65.9978 8.33499Z" fill="#B7791D"/>
<path d="M47.1091 58.7924V73.4497H18.6479V58.7924C18.6479 58.3318 19.0247 57.9547 19.4852 57.9547H46.2723C46.7328 57.9547 47.1095 58.3314 47.1095 58.7924H47.1091Z" fill="#343B49"/>
<path d="M47.1091 58.7924V73.4497H45.4349V58.7924C45.4349 58.3318 45.0582 57.9547 44.5977 57.9547H46.2718C46.7324 57.9547 47.1091 58.3314 47.1091 58.7924Z" fill="#262D38"/>
<path d="M49.6206 73.0307V74.7056C49.6206 75.1662 49.2438 75.5433 48.7833 75.5433H16.9738C16.5132 75.5433 16.1365 75.1666 16.1365 74.7056V73.0307C16.1365 72.5701 16.5132 72.193 16.9738 72.193H48.7837C49.2442 72.193 49.621 72.5697 49.621 73.0307H49.6206Z" fill="#262D38"/>
<path d="M49.6206 73.0307V74.7056C49.6206 75.1662 49.2438 75.5433 48.7833 75.5433H47.1091C47.5697 75.5433 47.9464 75.1666 47.9464 74.7056V73.0307C47.9464 72.5701 47.5697 72.193 47.1091 72.193H48.7833C49.2438 72.193 49.6206 72.5697 49.6206 73.0307Z" fill="#171C23"/>
<path d="M42.9235 62.1423V68.0053C42.9235 68.4659 42.5468 68.843 42.0863 68.843H23.67C23.2095 68.843 22.8328 68.4663 22.8328 68.0053V62.1423C22.8328 61.6818 23.2095 61.3046 23.67 61.3046H42.0863C42.5468 61.3046 42.9235 61.6814 42.9235 62.1423Z" fill="#E8A615"/>
<path d="M42.9238 62.1423V68.0053C42.9238 68.4659 42.5471 68.843 42.0865 68.843H25.4702C28.852 68.7761 39.9937 68.0557 39.9937 61.3051H42.0865C42.5471 61.3051 42.9238 61.6818 42.9238 62.1427V62.1423Z" fill="#B7791D"/>
<path d="M23.6704 65.9114V62.4849C23.6704 62.2955 23.8235 62.1424 24.0129 62.1424H31.5182C31.5182 62.1424 25.5541 62.7706 23.6704 65.9114Z" fill="#FFCC66"/>
<path d="M19.5894 62.5614V59.1349C19.5894 58.9455 19.7425 58.7924 19.9318 58.7924H27.4372C27.4372 58.7924 21.473 59.4206 19.5894 62.5614Z" fill="#4E5868"/>
<path d="M26.0293 34.1284C23.4704 34.1284 16.3732 25.7008 15.5129 5.80301H19.5019C20.2066 30.1483 26.0293 34.1284 26.0293 34.1284Z" fill="#FFCC66"/>
<path d="M24.5789 56.2093C24.5789 56.2093 30.0184 52.5004 30.0184 47.1434V56.2093H24.5789Z" fill="#FFCC66"/>
<path d="M6.7541 2.33057C6.7541 2.33057 6.20209 2.17061 5.07309 2.40108C3.69628 2.68233 1.96289 4.1784 1.96289 4.1784C2.85135 2.40108 4.87324 1.3027 5.72623 1.3027C6.29396 1.3027 6.7541 1.76285 6.7541 2.33057Z" fill="#FFCC66"/>
</svg>
