<svg width="93" height="88" viewBox="0 0 93 88" fill="none" xmlns="http://www.w3.org/2000/svg">
<path d="M50.2325 65.6536L18.7893 71.955L15.2417 51.0323C15.2417 51.0323 22.9023 52.6153 31.4062 50.9093C40.3058 49.1265 46.6849 44.7309 46.6849 44.7309L50.2325 65.6485V65.6536Z" fill="#082567"/>
<path d="M18.4268 69.8289L18.7895 71.955L50.2327 65.6536L46.6851 44.736C46.6851 44.736 45.7523 45.3764 44.1081 46.2678C51.7969 66.6833 25.1686 69.4549 18.4315 69.8289H18.4268Z" fill="#082567"/>
<path d="M35.9675 65.1483L33.1089 65.7216L33.6618 68.9813L36.5204 68.4079L35.9675 65.1483Z" fill="#01133C"/>
<path d="M40.4474 0.826034C34.3368 -0.388138 24.0944 -0.249816 17.1264 1.14879C16.0381 1.36908 15.0346 1.61499 14.1536 1.88651C8.32102 3.66423 5.14089 5.62124 3.84528 8.23914C3.21397 9.50967 3.03965 10.9236 3.32704 12.4452C1.95134 13.5108 -1.16754 16.8562 0.457861 24.5049C2.22931 32.8505 4.92888 41.5495 12.0477 45.6223C13.0465 46.191 13.4186 47.2053 14.0971 48.6347C14.3798 49.2341 15.2796 51.2423 15.2796 51.2423L19.1711 51.3704C22.1958 51.6215 26.4878 51.8213 31.4017 50.8325C36.2637 49.8591 40.2778 47.9584 42.8925 46.6521L46.7087 44.9409C46.7087 44.9409 47.4013 41.9286 47.5426 41.1345C47.7782 39.823 49.5025 26.3544 50.0537 18.8491C50.6332 10.9441 47.8912 2.30148 40.4521 0.82091L40.4474 0.826034Z" fill="#000D2B"/>
<path d="M40.2587 1.93262C33.4509 0.580125 21.1214 0.928494 14.4267 2.96748C7.7319 5.00647 2.95935 7.67048 4.51408 12.978C4.51408 12.978 -0.432781 15.35 1.45645 24.259C3.35039 33.1681 6.07352 41.2831 12.594 45.0178C14.111 45.8836 14.4455 47.7587 15.2747 51.2475L19.1333 51.7495C22.1673 52.0006 26.6713 52.0774 31.4439 51.1245C36.0892 50.1921 40.0467 48.5527 42.7698 47.1951L46.7085 44.9512L46.9111 41.8825C46.9111 41.8825 48.4564 26.4005 49.017 18.7722C49.5777 11.1439 46.9865 3.27999 40.2587 1.93774V1.93262Z" fill="#082567"/>
<path d="M12.4907 44.9717C12.519 44.9871 12.5425 45.0024 12.5708 45.0178C14.0879 45.8836 14.4224 47.7587 15.2563 51.2475L19.1101 51.7496C22.1442 52.0006 26.6482 52.0826 31.416 51.1245C36.0614 50.1921 40.0189 48.5527 42.742 47.19L46.6806 44.9461L46.8832 41.8774C46.8832 41.8774 48.4285 26.3954 48.9892 18.7671C49.4226 12.896 47.981 6.88666 44.2308 3.81793C48.6924 41.903 22.3421 45.0844 12.4907 44.9666V44.9717Z" fill="#082567"/>
<path d="M15.6139 53.225C14.6057 53.599 13.9414 54.393 14.0733 55.1564C14.2052 55.9248 15.0862 56.4064 16.1463 56.3654L15.6139 53.225Z" fill="#082567"/>
<path d="M51.1562 65.4692C51.2504 66.0122 50.9159 66.5348 50.4165 66.6373L18.9451 72.9489C18.4457 73.0514 17.9651 72.6876 17.8709 72.1446C17.7767 71.6015 18.1112 71.079 18.6106 70.9765L50.082 64.6649C50.5814 64.5624 51.062 64.9261 51.1562 65.4692Z" fill="#000D2B"/>
<path d="M44.1927 62.0879C44.4518 63.6197 43.519 65.0952 42.1103 65.3769L19.1238 69.9826C17.7152 70.2644 16.462 69.2295 16.1981 67.6977L14.0356 54.9412C14.0356 54.9412 14.5162 56.6677 16.787 56.2117L39.7735 51.6009C41.1869 51.3192 42.539 52.3335 42.7981 53.8654L44.1927 62.0828V62.0879Z" fill="#000D2B"/>
<path d="M42.3461 61.4577C42.5487 62.6514 41.8232 63.799 40.7254 64.0193L18.3091 68.5122C17.2113 68.7325 16.2314 67.9282 16.0335 66.7345L14.3516 56.806C14.3516 56.806 14.7238 58.1482 16.4952 57.7947L38.9069 53.3018C40.0046 53.0815 41.0599 53.8704 41.2625 55.0641L42.3461 61.4629V61.4577Z" fill="#082567"/>
<path d="M14.3662 56.8483L14.3516 56.806V56.8483C14.3516 56.8483 14.3613 56.8483 14.3662 56.8483Z" fill="#082567"/>
<path d="M39.4723 53.2711C39.6089 53.5016 39.7078 53.768 39.755 54.0549L40.8386 60.4536C41.0411 61.6473 40.3156 62.7949 39.2179 63.0152L16.8015 67.5081C16.6366 67.544 16.4717 67.5491 16.3115 67.5389C16.7214 68.2612 17.4799 68.6813 18.3091 68.5122L40.7255 64.0193C41.8232 63.799 42.5488 62.6514 42.3462 61.4578L41.2626 55.059C41.0977 54.0754 40.3486 53.3633 39.4723 53.2711Z" fill="#082567"/>
<path d="M4.17049 29.7664C4.17049 29.7664 2.19646 24.1412 2.31895 20.6268C2.49327 15.6164 4.19876 14.725 5.28236 15.0221C7.2187 15.5549 7.16688 17.9423 5.51321 21.0264C4.05271 23.757 3.67581 27.4251 4.17049 29.7664Z" fill="#173A8A"/>
<path d="M3.10096 14.0846C4.15158 13.0805 6.22455 13.8643 7.20921 14.5098C8.8299 15.5703 8.61789 18.4392 8.7451 20.1913C8.86759 21.9127 9.22565 23.6545 9.48477 25.3605C9.75331 27.128 10.1349 28.9108 11.0631 30.4119C11.3834 30.9242 12.0477 30.294 11.7321 29.7817C10.4789 27.7632 10.3375 25.0787 10.003 22.7375C9.69678 20.5858 9.68264 18.3214 9.22565 16.2107C8.64616 13.5364 4.65569 11.3079 2.52147 13.352C2.09274 13.7618 2.66752 14.4944 3.09625 14.0795L3.10096 14.0846Z" fill="#000D2B"/>
<path d="M9.50858 23.1422C9.50858 23.1422 7.06342 23.3061 6.59229 24.9506C6.59229 24.9506 7.96798 23.675 9.6829 24.1668L9.50858 23.1422Z" fill="#000D2B"/>
<path d="M9.92262 27.5686C9.92262 27.5686 10.3419 28.9313 9.62109 29.6486C9.62109 29.6486 10.2995 29.167 10.5304 28.6086L9.92262 27.5686Z" fill="#000D2B"/>
<path d="M8.90484 19.5714C8.90484 19.5714 7.23705 19.1513 6.74707 20.6575C6.74707 20.6575 7.93432 19.4843 9.03205 20.304L8.90956 19.5765L8.90484 19.5714Z" fill="#000D2B"/>
<path d="M33.512 55.6841C33.1116 54.7876 25.1636 57.7385 21.7008 58.2713C18.2427 58.8041 15.0202 57.928 16.0802 59.8338C17.1403 61.7396 16.4571 64.46 16.7916 64.6905C17.5454 65.2079 17.9695 62.7949 18.5113 61.2888C19.0578 59.7826 34.8689 58.7272 33.5073 55.6892L33.512 55.6841Z" fill="#173A8A"/>
<path d="M18.3984 72.0318L18.1063 72.0882C18.0262 72.1036 17.9509 72.0472 17.932 71.9601C17.9179 71.873 17.9697 71.791 18.0498 71.7757L18.3419 71.7193C18.422 71.704 18.4974 71.7603 18.5162 71.8474C18.5303 71.9345 18.4785 72.0165 18.3984 72.0318Z" fill="#2959C8"/>
<path d="M49.8371 65.7304L49.2529 65.8482C49.1728 65.8636 49.0974 65.8072 49.0786 65.7201C49.0645 65.633 49.1163 65.5511 49.1964 65.5357L49.7759 65.4179C49.856 65.4025 49.9361 65.4589 49.9502 65.5459C49.9643 65.633 49.9125 65.715 49.8324 65.7355L49.8371 65.7304ZM48.6734 65.966L48.0892 66.0839C48.0091 66.0992 47.9338 66.0429 47.9149 65.9558C47.9008 65.8687 47.9526 65.7867 48.0327 65.7714L48.6122 65.6535C48.6923 65.6382 48.7724 65.6945 48.7865 65.7816C48.8006 65.8687 48.7488 65.9507 48.6687 65.966H48.6734ZM47.5097 66.1966L46.9255 66.3144C46.8454 66.3298 46.7701 66.2734 46.7559 66.1863C46.7418 66.0992 46.7936 66.0173 46.8737 66.0019L47.4579 65.8841C47.538 65.8687 47.6134 65.925 47.6322 66.0121C47.6464 66.0992 47.5945 66.1812 47.5144 66.1966H47.5097ZM46.346 66.4322L45.7619 66.5501C45.6818 66.5654 45.6064 66.5091 45.5922 66.422C45.5781 66.3349 45.6299 66.2529 45.71 66.2324L46.2895 66.1146C46.3696 66.0992 46.445 66.1556 46.4638 66.2427C46.478 66.3298 46.4261 66.4117 46.346 66.4271V66.4322ZM45.1824 66.6679L44.5982 66.7857C44.5181 66.8011 44.4427 66.7447 44.4286 66.6577C44.4144 66.5706 44.4662 66.4886 44.5463 66.4681L45.1305 66.3503C45.2106 66.3349 45.286 66.3912 45.3001 66.4783C45.3143 66.5654 45.2624 66.6474 45.1824 66.6628V66.6679ZM44.0187 66.9036L43.4392 67.0214C43.3591 67.0368 43.2837 66.9804 43.2649 66.8933C43.2507 66.8062 43.3026 66.7243 43.3826 66.7038L43.9668 66.5859C44.0469 66.5706 44.1223 66.6269 44.1364 66.714C44.1506 66.8011 44.0988 66.8831 44.0187 66.8984V66.9036ZM42.855 67.1392L42.2708 67.2571C42.1907 67.2724 42.1153 67.2161 42.0965 67.129C42.0823 67.0419 42.1341 66.9599 42.2142 66.9445L42.7984 66.8267C42.8785 66.8113 42.9539 66.8677 42.968 66.9548C42.9822 67.0419 42.9304 67.1239 42.8503 67.1392H42.855ZM41.6913 67.3749L41.1071 67.4927C41.027 67.5081 40.9516 67.4517 40.9328 67.3646C40.9186 67.2775 40.9705 67.1956 41.0506 67.1802L41.6347 67.0624C41.7148 67.047 41.7902 67.1034 41.8044 67.1905C41.8185 67.2775 41.7667 67.3595 41.6866 67.3749H41.6913ZM40.5276 67.6105L39.9434 67.7284C39.8633 67.7437 39.7879 67.6874 39.7738 67.6003C39.7597 67.5132 39.8115 67.4312 39.8916 67.4107L40.4758 67.2929C40.5559 67.2775 40.636 67.3339 40.6501 67.421C40.6642 67.5081 40.6124 67.5901 40.5323 67.6054L40.5276 67.6105ZM39.3639 67.8462L38.7797 67.964C38.6996 67.9794 38.6242 67.9231 38.6101 67.836C38.596 67.7489 38.6478 67.6669 38.7279 67.6515L39.3121 67.5337C39.3922 67.5183 39.4723 67.5747 39.4864 67.6618C39.5005 67.7489 39.4487 67.8308 39.3686 67.8462H39.3639ZM38.2002 68.0819L37.616 68.1997C37.5359 68.2151 37.4605 68.1587 37.4417 68.0716C37.4276 67.9845 37.4794 67.9026 37.5595 67.8872L38.1437 67.7694C38.2238 67.754 38.2991 67.8103 38.3133 67.8974C38.3274 67.9845 38.2756 68.0665 38.1955 68.0819H38.2002ZM37.0365 68.3175L36.4523 68.4354C36.3722 68.4507 36.2968 68.3944 36.2827 68.3073C36.2686 68.2202 36.3204 68.1382 36.4005 68.1177L36.9847 67.9999C37.0648 67.9845 37.1402 68.0409 37.1543 68.128C37.1684 68.2151 37.1166 68.297 37.0365 68.3124V68.3175ZM35.8728 68.5532L35.2933 68.671C35.2133 68.6864 35.1379 68.63 35.119 68.5429C35.1049 68.4559 35.1567 68.3739 35.2368 68.3585L35.821 68.2407C35.9011 68.2253 35.9765 68.2817 35.9906 68.3688C36.0047 68.4559 35.9529 68.5378 35.8728 68.5532ZM34.7091 68.7889L34.1249 68.9067C34.0448 68.9221 33.9695 68.8657 33.9553 68.7786C33.9412 68.6915 33.993 68.6095 34.0731 68.5942L34.6573 68.4764C34.7374 68.461 34.8128 68.5173 34.8316 68.6044C34.8458 68.6915 34.7939 68.7735 34.7138 68.794L34.7091 68.7889ZM33.5454 69.0245L32.9612 69.1423C32.8812 69.1577 32.8058 69.1014 32.7916 69.0143C32.7775 68.9272 32.8293 68.8452 32.9094 68.8247L33.4936 68.7069C33.5737 68.6915 33.6491 68.7479 33.6632 68.835C33.6774 68.9221 33.6255 69.004 33.5454 69.0194V69.0245ZM32.3818 69.2602L31.7976 69.378C31.7175 69.3934 31.6421 69.337 31.6232 69.2499C31.6091 69.1628 31.6609 69.0809 31.741 69.0655L32.3252 68.9477C32.4053 68.9323 32.4807 68.9887 32.4948 69.0758C32.509 69.1628 32.4571 69.2448 32.377 69.2602H32.3818ZM31.2181 69.4958L30.6339 69.6137C30.5538 69.629 30.4784 69.5727 30.4595 69.4856C30.4454 69.3985 30.4972 69.3165 30.5773 69.3012L31.1615 69.1833C31.2416 69.168 31.317 69.2243 31.3311 69.3114C31.3453 69.3985 31.2934 69.4805 31.2134 69.501L31.2181 69.4958ZM30.0544 69.7315L29.4749 69.8493C29.3948 69.8647 29.3194 69.8084 29.3006 69.7213C29.2864 69.6342 29.3383 69.5522 29.4183 69.5368L30.0025 69.419C30.0826 69.4036 30.158 69.46 30.1722 69.5471C30.1863 69.6342 30.1345 69.7161 30.0544 69.7366V69.7315ZM28.8907 69.9672L28.3112 70.085C28.2311 70.1004 28.1557 70.044 28.1369 69.9569C28.1227 69.8698 28.1746 69.7879 28.2547 69.7725L28.8389 69.6547C28.9189 69.6393 28.9943 69.6956 29.0132 69.7827C29.0273 69.8698 28.9755 69.9518 28.8954 69.9672H28.8907ZM27.727 70.2028L27.1428 70.3207C27.0627 70.336 26.9873 70.2797 26.9685 70.1926C26.9543 70.1055 27.0062 70.0235 27.0863 70.003L27.6705 69.8852C27.7505 69.8698 27.8259 69.9262 27.8401 70.0133C27.8542 70.1004 27.8024 70.1823 27.7223 70.2028H27.727ZM26.5633 70.4385L25.9838 70.5563C25.9037 70.5717 25.8283 70.5153 25.8142 70.4282C25.8001 70.3412 25.8519 70.2592 25.932 70.2438L26.5162 70.126C26.5963 70.1106 26.6717 70.167 26.6858 70.2541C26.6999 70.3411 26.6481 70.4231 26.568 70.4436L26.5633 70.4385ZM25.3996 70.669L24.8154 70.7869C24.7353 70.8022 24.6599 70.7459 24.6458 70.6588C24.6317 70.5717 24.6835 70.4897 24.7636 70.4692L25.3431 70.3514C25.4232 70.336 25.5033 70.3924 25.5174 70.4795C25.5315 70.5666 25.4797 70.6485 25.3996 70.6639V70.669ZM24.2359 70.9047L23.6517 71.0225C23.5716 71.0379 23.4962 70.9815 23.4821 70.8944C23.468 70.8073 23.5198 70.7254 23.5999 70.7049L24.1794 70.5871C24.2595 70.5717 24.3349 70.628 24.3537 70.7151C24.3678 70.8022 24.316 70.8842 24.2359 70.9047ZM23.0722 71.1404L22.488 71.2582C22.4079 71.2736 22.3326 71.2172 22.3184 71.1301C22.3043 71.043 22.3561 70.961 22.4362 70.9457L23.0204 70.8278C23.1005 70.8125 23.1759 70.8688 23.19 70.9559C23.2041 71.043 23.1523 71.125 23.0722 71.1404ZM21.9085 71.376L21.3243 71.4939C21.2442 71.5092 21.1689 71.4529 21.15 71.3658C21.1359 71.2787 21.1877 71.1967 21.2678 71.1762L21.852 71.0584C21.9321 71.043 22.0075 71.0994 22.0263 71.1865C22.0405 71.2736 21.9886 71.3555 21.9085 71.3709V71.376ZM20.7448 71.6117L20.1606 71.7295C20.0805 71.7449 20.0052 71.6885 19.9863 71.6014C19.9722 71.5143 20.024 71.4324 20.1041 71.417L20.6883 71.2992C20.7684 71.2838 20.8438 71.3402 20.8579 71.4272C20.8721 71.5143 20.8202 71.5963 20.7401 71.6117H20.7448ZM19.5812 71.8473L18.9969 71.9652C18.9169 71.9805 18.8415 71.9242 18.8226 71.8371C18.8085 71.75 18.8603 71.668 18.9404 71.6475L19.5246 71.5297C19.6047 71.5143 19.6801 71.5707 19.6942 71.6578C19.7084 71.7449 19.6565 71.8268 19.5764 71.8473H19.5812Z" fill="#2959C8"/>
<path d="M50.7087 65.5562L50.4166 65.6126C50.3365 65.628 50.2611 65.5716 50.2469 65.4845C50.2328 65.3974 50.2846 65.3155 50.3647 65.3001L50.6568 65.2437C50.7369 65.2284 50.8123 65.2847 50.8264 65.3718C50.8406 65.4589 50.7888 65.5409 50.7087 65.5562Z" fill="#2959C8"/>
<path d="M50.4965 64.6802C50.5766 64.798 50.6378 64.9363 50.6661 65.0951C50.7603 65.6382 50.4258 66.1607 49.9264 66.2632L18.4549 72.5749C18.3136 72.6056 18.1676 72.5902 18.0356 72.5492C18.2382 72.8464 18.5822 73.0103 18.9402 72.9386L50.4117 66.627C50.9111 66.5245 51.2456 66.0019 51.1514 65.4589C51.0854 65.0695 50.8216 64.7826 50.4965 64.6802Z" fill="#01133C"/>
<path d="M43.411 11.6973C43.0059 11.4257 42.4546 11.3489 41.9694 11.4565C41.9552 11.0364 41.9364 10.6163 41.9034 10.2013C41.8563 9.59679 40.9847 9.59167 41.0318 10.2013C41.3663 14.7045 40.7491 19.3255 38.4218 23.1525C35.2369 28.3832 28.9096 30.54 23.3786 30.2736C16.9571 29.9611 11.3224 24.5408 9.52264 17.9218C9.36245 17.3378 8.51913 17.5888 8.67931 18.1728C10.6251 25.3093 16.5425 30.7347 23.3786 31.2214C29.0934 31.6261 35.3123 29.1926 38.8269 24.1669C41.1496 20.8471 41.9976 16.5744 41.9882 12.4299C43.7691 11.769 43.8916 14.9299 43.8492 16.139C43.8256 16.7486 44.6972 16.7486 44.7208 16.139C44.7726 14.643 44.7396 12.5887 43.411 11.6973Z" fill="#000D2B"/>
<path d="M36.3299 51.0067L34.403 39.6283C33.9836 37.1692 31.8117 35.54 29.5503 35.996C27.2889 36.452 25.7907 38.8137 26.21 41.2728L28.1369 52.6512L36.3299 51.0067Z" fill="#082567"/>
<path d="M29.5503 35.996C27.2889 36.452 25.7907 38.8137 26.21 41.2728L28.1369 52.6512L28.8342 52.5128L26.912 41.1754C26.5681 39.1365 27.8071 37.1743 29.6822 36.8003C31.5573 36.4263 33.3618 37.7737 33.7057 39.8127L35.6279 51.1501L36.3252 51.0118L34.3982 39.6334C33.9789 37.1743 31.807 35.5452 29.5456 36.0011L29.5503 35.996Z" fill="#000D2B"/>
<path d="M33.5739 51.0271L31.6989 39.9715C31.5528 39.116 30.7943 38.5473 30.0075 38.7061C29.2207 38.8649 28.6978 39.6897 28.8438 40.5453L30.7189 51.6009L33.5739 51.0271Z" fill="#000D2B"/>
<path d="M32.5233 51.2372L30.6341 40.0945C30.5964 39.8691 30.3985 39.7205 30.1865 39.7615C29.9792 39.8025 29.8426 40.0176 29.8803 40.2482L31.7695 51.3909L32.5233 51.2423V51.2372Z" fill="#01133C"/>
<path d="M15.2749 51.2167L15.5529 52.8612L18.8838 53.2967C22.0215 53.5579 26.6763 53.6399 31.6043 52.6511C36.4051 51.688 40.4945 49.9923 43.3118 48.5834L46.9867 46.4881L46.7181 44.9153C46.7181 44.9153 40.339 49.3109 31.4394 51.0937C22.9355 52.7997 15.2749 51.2167 15.2749 51.2167Z" fill="#000D2B"/>
<path d="M15.9721 52.1901C15.9721 52.1901 15.9532 52.1901 15.9391 52.1901L15.6517 52.1491C15.5904 52.1389 15.548 52.0825 15.5575 52.0159C15.5622 51.9493 15.6187 51.9032 15.68 51.9135L15.9673 51.9545C16.0286 51.9596 16.071 52.0211 16.0616 52.0877C16.0569 52.1389 16.0192 52.1799 15.9721 52.1901Z" fill="#2959C8"/>
<path d="M31.4914 51.9647L31.3783 51.9852C31.317 51.9954 31.2605 51.9545 31.2511 51.8879C31.2417 51.8213 31.2794 51.7598 31.3406 51.7495L31.4537 51.729C31.6044 51.6983 31.7552 51.6676 31.9012 51.6368C31.9625 51.6368 32.019 51.6676 32.0284 51.729C32.0379 51.7905 32.0049 51.8571 31.9436 51.8674C31.7929 51.8981 31.6468 51.9288 31.4914 51.9596V51.9647ZM30.8129 52.0928C30.6245 52.1286 30.436 52.1594 30.2476 52.1901C30.1863 52.2004 30.1298 52.1543 30.1204 52.0877C30.1109 52.0211 30.1486 51.9596 30.2099 51.9493C30.3983 51.9186 30.5868 51.8879 30.7752 51.852C30.8365 51.8417 30.893 51.8827 30.9024 51.9493C30.9119 52.0108 30.8742 52.0723 30.8129 52.0877V52.0928ZM32.4996 51.7495C32.443 51.7598 32.3865 51.7188 32.3724 51.6573C32.3582 51.5907 32.3959 51.5292 32.4572 51.5139C32.6456 51.4729 32.8294 51.4268 33.0178 51.3807C33.0885 51.3704 33.1356 51.4063 33.1497 51.4729C33.1639 51.5395 33.1262 51.601 33.0696 51.6163C32.8859 51.6624 32.6975 51.7034 32.509 51.7495H32.4996ZM29.6775 52.2823C29.4891 52.3131 29.2959 52.3387 29.1074 52.3643C29.0462 52.3745 28.9944 52.3284 28.985 52.2618C28.9755 52.1952 29.0179 52.1338 29.0792 52.1286C29.2676 52.103 29.4561 52.0774 29.6445 52.0467C29.7058 52.0364 29.7576 52.0825 29.767 52.1491C29.7764 52.2106 29.734 52.2721 29.6775 52.2823ZM33.6162 51.478C33.5596 51.4883 33.5031 51.4524 33.489 51.3858C33.4748 51.3192 33.5125 51.2577 33.569 51.2424C33.7528 51.1962 33.9412 51.145 34.125 51.0989C34.1815 51.0835 34.2428 51.1245 34.2569 51.186C34.271 51.2475 34.238 51.3141 34.1768 51.3294C33.9931 51.3807 33.8046 51.4268 33.6162 51.478C33.6162 51.478 33.6162 51.478 33.6114 51.478H33.6162ZM28.5421 52.436C28.5421 52.436 28.5374 52.436 28.5327 52.436C28.3442 52.4565 28.151 52.4821 27.9626 52.5026C27.9013 52.5077 27.8495 52.4616 27.8448 52.395C27.8401 52.3284 27.8825 52.2721 27.9438 52.2618C28.1322 52.2413 28.3207 52.2209 28.5138 52.1952C28.5751 52.1901 28.6269 52.2362 28.6316 52.3028C28.6363 52.3643 28.5986 52.4207 28.5421 52.4309V52.436ZM34.728 51.1757C34.6715 51.186 34.6197 51.1501 34.6008 51.0887C34.5867 51.0272 34.6197 50.9606 34.6809 50.9452C34.8647 50.894 35.0531 50.8376 35.2321 50.7864C35.2887 50.771 35.3499 50.8069 35.364 50.8684C35.3829 50.9298 35.3452 50.9964 35.2887 51.0169C35.1049 51.0733 34.9212 51.1245 34.7327 51.1809C34.7327 51.1809 34.728 51.1809 34.7233 51.1809L34.728 51.1757ZM27.402 52.559C27.402 52.559 27.3972 52.559 27.3925 52.559C27.1994 52.5795 27.0109 52.5948 26.8178 52.6102C26.7565 52.6102 26.7047 52.5641 26.7 52.4975C26.7 52.4309 26.7377 52.3746 26.7989 52.3694C26.9874 52.3541 27.1758 52.3387 27.369 52.3182C27.4302 52.3131 27.482 52.3592 27.4868 52.4258C27.4915 52.4873 27.4538 52.5436 27.3972 52.5539L27.402 52.559ZM35.8352 50.8479C35.7786 50.8581 35.7268 50.8223 35.7127 50.7659C35.6986 50.7044 35.7315 50.6378 35.7881 50.6173C35.9718 50.561 36.1555 50.4995 36.3346 50.4431C36.3911 50.4226 36.4524 50.4585 36.4712 50.5251C36.4901 50.5866 36.4571 50.6532 36.3958 50.6737C36.2168 50.7352 36.0283 50.7915 35.8446 50.8479C35.8446 50.8479 35.8399 50.8479 35.8352 50.8479ZM26.2571 52.6512C26.2571 52.6512 26.2477 52.6512 26.243 52.6512C26.0498 52.6614 25.8614 52.6768 25.6729 52.6871C25.6117 52.6871 25.5598 52.6409 25.5551 52.5743C25.5551 52.5077 25.5975 52.4514 25.6588 52.4514C25.8472 52.4411 26.0357 52.4309 26.2288 52.4155C26.2901 52.4155 26.3419 52.4616 26.3419 52.5282C26.3419 52.5897 26.3089 52.641 26.2524 52.6512H26.2571ZM36.9329 50.4893C36.8811 50.4995 36.8246 50.4636 36.8104 50.4073C36.7916 50.3458 36.8246 50.2792 36.8811 50.2587C37.0648 50.1972 37.2439 50.1306 37.4276 50.0692C37.4841 50.0487 37.5454 50.0845 37.5642 50.146C37.5831 50.2075 37.5501 50.2741 37.4936 50.2946C37.3145 50.3561 37.1308 50.4227 36.947 50.4841C36.947 50.4841 36.9376 50.4841 36.9329 50.4841V50.4893ZM25.117 52.7127C25.117 52.7127 25.1075 52.7127 25.1028 52.7127C24.9097 52.7229 24.7165 52.728 24.5281 52.7332C24.4668 52.7332 24.415 52.6819 24.415 52.6153C24.415 52.5487 24.4621 52.4924 24.5186 52.4924C24.7071 52.4873 24.8955 52.477 25.0887 52.4719C25.15 52.4719 25.1971 52.518 25.2018 52.5846C25.2018 52.6461 25.1641 52.6973 25.1123 52.7075L25.117 52.7127ZM38.0259 50.0999C37.9741 50.1101 37.9223 50.0794 37.9034 50.0179C37.8846 49.9564 37.9129 49.8899 37.9694 49.8694C38.1531 49.8028 38.3322 49.7362 38.5112 49.6644C38.5677 49.6439 38.629 49.6747 38.6478 49.7362C38.6667 49.7976 38.6384 49.8642 38.5819 49.8898C38.4028 49.9564 38.2238 50.0282 38.0401 50.0948C38.0354 50.0948 38.0306 50.0948 38.0259 50.0948V50.0999ZM23.9721 52.7485C23.9721 52.7485 23.958 52.7485 23.9533 52.7485C23.7601 52.7485 23.567 52.7537 23.3785 52.7537C23.3173 52.7537 23.2701 52.7024 23.2701 52.6358C23.2701 52.5692 23.3173 52.518 23.3785 52.518C23.567 52.518 23.7601 52.518 23.9486 52.5129C24.0098 52.5129 24.0569 52.5641 24.0616 52.6307C24.0616 52.6922 24.024 52.7383 23.9721 52.7485ZM39.1095 49.69C39.0577 49.7003 39.0059 49.6696 38.987 49.6132C38.9682 49.5517 38.9965 49.4851 39.053 49.4595C39.232 49.3878 39.4111 49.3161 39.5901 49.2443C39.6466 49.2238 39.7079 49.2546 39.7314 49.3161C39.755 49.3775 39.722 49.4441 39.6655 49.4698C39.4864 49.5415 39.3074 49.6132 39.1284 49.6849C39.1237 49.6849 39.119 49.6849 39.1095 49.69ZM22.8273 52.7537C22.8273 52.7537 22.8131 52.7537 22.8084 52.7537C22.6153 52.7537 22.4221 52.7537 22.2337 52.7485C22.1724 52.7485 22.1253 52.6922 22.1253 52.6256C22.1253 52.559 22.1771 52.5077 22.2384 52.5077C22.4268 52.5077 22.6153 52.5129 22.8084 52.5129C22.8697 52.5129 22.9168 52.5692 22.9168 52.6307C22.9168 52.6871 22.8791 52.7383 22.8273 52.7485V52.7537ZM40.179 49.2495C40.1272 49.2597 40.0754 49.229 40.0565 49.1777C40.033 49.1163 40.0612 49.0497 40.1177 49.0241C40.2968 48.9472 40.4758 48.8704 40.6501 48.7935C40.7067 48.7679 40.7679 48.7986 40.7915 48.8601C40.815 48.9216 40.7868 48.9882 40.7302 49.0138C40.5559 49.0907 40.3769 49.1675 40.1978 49.2443C40.1931 49.2443 40.1837 49.2443 40.179 49.2495ZM21.6777 52.7332C21.6777 52.7332 21.6636 52.7332 21.6542 52.7332C21.461 52.728 21.2678 52.7229 21.0794 52.7127C21.0181 52.7127 20.971 52.6563 20.9757 52.5897C20.9757 52.5231 21.0276 52.4719 21.0888 52.477C21.2773 52.4873 21.4657 52.4924 21.6589 52.4975C21.7201 52.4975 21.7672 52.5539 21.7672 52.6205C21.7672 52.6768 21.7295 52.7229 21.6777 52.7332ZM41.239 48.7833C41.1919 48.7935 41.1401 48.7628 41.1166 48.7115C41.093 48.6501 41.1165 48.5783 41.1778 48.5578C41.3568 48.4759 41.5311 48.399 41.7055 48.3171C41.762 48.2914 41.8232 48.3171 41.8468 48.3785C41.8704 48.44 41.8468 48.5066 41.7903 48.5322C41.6159 48.6142 41.4416 48.6962 41.2626 48.773C41.2579 48.773 41.2485 48.7781 41.239 48.7781V48.7833ZM20.5329 52.6871C20.5329 52.6871 20.514 52.6871 20.5093 52.6871C20.3162 52.6768 20.123 52.6666 19.9345 52.6512C19.8733 52.6512 19.8262 52.5897 19.8309 52.5231C19.8309 52.4565 19.8874 52.4053 19.944 52.4104C20.1277 52.4207 20.3209 52.436 20.514 52.4463C20.5753 52.4463 20.6224 52.5078 20.6177 52.5692C20.6177 52.6256 20.58 52.6717 20.5282 52.6819L20.5329 52.6871ZM42.2944 48.2966C42.2473 48.3068 42.1954 48.2812 42.1766 48.2248C42.153 48.1634 42.1766 48.0916 42.2331 48.066C42.4122 47.9789 42.5865 47.897 42.7561 47.8099C42.8079 47.7843 42.8739 47.8099 42.9021 47.8714C42.9257 47.9328 42.9021 48.0046 42.8503 48.0302C42.6807 48.1121 42.5064 48.1992 42.3274 48.2863C42.3179 48.2863 42.3132 48.2915 42.3038 48.2966H42.2944ZM19.388 52.6153C19.388 52.6153 19.3692 52.6153 19.3598 52.6153C19.2137 52.6051 19.0724 52.5948 18.931 52.5795L18.7803 52.559C18.719 52.5487 18.6766 52.4924 18.686 52.4258C18.6955 52.3592 18.7473 52.3131 18.8085 52.3233L18.9546 52.3438C19.0912 52.3541 19.2326 52.3694 19.3739 52.3797C19.4351 52.3797 19.4775 52.4411 19.4775 52.5077C19.4775 52.5641 19.4351 52.6051 19.388 52.6153ZM43.3309 47.7638C43.2837 47.774 43.2366 47.7484 43.2131 47.7023C43.1848 47.6459 43.2037 47.5691 43.2602 47.5435L43.769 47.2515C43.8208 47.2207 43.8868 47.2463 43.9151 47.3027C43.9433 47.359 43.9245 47.4308 43.8679 47.4615L43.3591 47.7535C43.3591 47.7535 43.3403 47.7638 43.3261 47.7638H43.3309ZM18.2479 52.4873C18.2479 52.4873 18.2291 52.4873 18.2149 52.4873L17.6448 52.4104C17.5836 52.4002 17.5412 52.3438 17.5506 52.2772C17.5553 52.2106 17.6119 52.1645 17.6684 52.1747L18.2385 52.2516C18.2997 52.2618 18.3421 52.3182 18.3327 52.3848C18.328 52.436 18.2903 52.477 18.2432 52.4873H18.2479ZM44.3438 47.1797C44.2967 47.19 44.2496 47.1644 44.226 47.1183C44.1977 47.0619 44.2213 46.9902 44.2731 46.9594L44.7819 46.6674C44.8338 46.6367 44.8997 46.6572 44.928 46.7187C44.9563 46.775 44.9374 46.8519 44.8809 46.8775L44.3721 47.1695C44.3721 47.1695 44.3532 47.1797 44.3391 47.1797H44.3438ZM17.1078 52.3336C17.1078 52.3336 17.0889 52.3336 17.0748 52.3336L16.5047 52.2567C16.4435 52.2465 16.4011 52.1901 16.4105 52.1235C16.4152 52.0569 16.4717 52.0108 16.5283 52.0211L17.0983 52.0979C17.1596 52.1082 17.202 52.1645 17.1926 52.2311C17.1878 52.2823 17.1502 52.3233 17.1031 52.3336H17.1078ZM45.3567 46.5957C45.3096 46.606 45.2625 46.5803 45.2389 46.5342C45.2107 46.4779 45.2295 46.4062 45.286 46.3754L45.7949 46.0834C45.8467 46.0527 45.9126 46.0732 45.9409 46.1346C45.9692 46.191 45.9456 46.2678 45.8938 46.2934L45.385 46.5855C45.385 46.5855 45.3614 46.5957 45.352 46.5957H45.3567Z" fill="#2959C8"/>
<path d="M46.3744 46.027C46.3273 46.0373 46.2802 46.0117 46.2566 45.9656C46.2284 45.9092 46.2472 45.8324 46.3038 45.8067L46.5582 45.6582C46.61 45.6274 46.676 45.6479 46.7042 45.7094C46.7325 45.7709 46.7136 45.8375 46.6571 45.8733L46.4027 46.0219C46.4027 46.0219 46.3838 46.0321 46.3697 46.0321L46.3744 46.027Z" fill="#2959C8"/>
<path d="M35.7313 49.5415C35.6559 49.5568 35.5853 49.5056 35.5758 49.4236L35.4769 48.8447C35.4628 48.7628 35.5146 48.6859 35.5853 48.6757C35.6606 48.6603 35.7313 48.7115 35.7407 48.7935L35.8397 49.3775C35.8538 49.4595 35.8067 49.5363 35.7313 49.5466V49.5415ZM28.2121 51.0374C28.1367 51.0528 28.066 51.0016 28.0566 50.9196L27.9577 50.3407C27.9435 50.2587 27.9906 50.1819 28.066 50.1665C28.1414 50.1511 28.2074 50.2075 28.2215 50.2843L28.3204 50.8632C28.3346 50.9452 28.2875 51.022 28.2121 51.0323V51.0374ZM35.5334 48.3785C35.458 48.3939 35.3921 48.3427 35.378 48.2607L35.279 47.6818C35.2649 47.5998 35.3167 47.523 35.3874 47.5076C35.4628 47.4922 35.5334 47.5435 35.5429 47.6254L35.6418 48.2043C35.6559 48.2863 35.6088 48.3632 35.5334 48.3734V48.3785ZM28.0142 49.8796C27.9388 49.895 27.8681 49.8386 27.8587 49.7618L27.7598 49.1829C27.7456 49.1009 27.7928 49.024 27.8681 49.0138C27.9435 48.9984 28.0142 49.0497 28.0236 49.1316L28.1226 49.7105C28.1367 49.7925 28.0849 49.8693 28.0142 49.8796ZM35.3356 47.2207C35.2602 47.2361 35.1895 47.1849 35.1754 47.1029L35.0764 46.524C35.0623 46.442 35.1094 46.3652 35.1848 46.3549C35.2555 46.3395 35.3308 46.3908 35.3403 46.4727L35.4392 47.0568C35.4533 47.1387 35.4015 47.2105 35.3308 47.2258L35.3356 47.2207ZM27.8163 48.7167C27.7456 48.732 27.675 48.6808 27.6608 48.5988L27.5619 48.0199C27.5478 47.9379 27.5949 47.8611 27.6703 47.8508C27.7456 47.8355 27.8163 47.8867 27.8304 47.9687L27.9294 48.5527C27.9435 48.6347 27.8917 48.7064 27.821 48.7218L27.8163 48.7167ZM35.1377 46.0578C35.0623 46.0731 34.9963 46.0219 34.9822 45.9399L34.8833 45.361C34.8691 45.2791 34.9163 45.2073 34.9916 45.192C35.0623 45.1766 35.1377 45.2278 35.1471 45.3098L35.246 45.8887C35.2602 45.9707 35.2131 46.0424 35.1377 46.0578ZM27.6184 47.5588C27.5478 47.5742 27.4771 47.523 27.4583 47.441L27.3593 46.857C27.3452 46.775 27.397 46.6982 27.4677 46.6879C27.5431 46.6725 27.609 46.7238 27.6279 46.8057L27.7268 47.3898C27.7409 47.4717 27.6938 47.5486 27.6184 47.5588ZM34.9398 44.9C34.8644 44.9153 34.7938 44.8641 34.7843 44.7821L34.6854 44.1981C34.6713 44.1161 34.7184 44.0393 34.7938 44.029C34.8691 44.0137 34.9398 44.0649 34.9492 44.1469L35.0482 44.7258C35.0623 44.8077 35.0105 44.8846 34.9398 44.9ZM27.4206 46.3959C27.3452 46.4113 27.2745 46.36 27.2651 46.2781L27.1662 45.6992C27.152 45.6172 27.2038 45.5403 27.2745 45.5301C27.3499 45.5147 27.4206 45.5711 27.43 45.6479L27.5289 46.2268C27.5431 46.3088 27.4959 46.3856 27.4206 46.401V46.3959ZM34.7419 43.7319C34.6665 43.7473 34.6006 43.696 34.5865 43.6141L34.4875 43.0351C34.4734 42.9532 34.5205 42.8763 34.5959 42.8661C34.6713 42.8507 34.7419 42.9019 34.7514 42.9839L34.8503 43.5628C34.8644 43.6448 34.8173 43.7216 34.7419 43.7319ZM27.2227 45.233C27.1473 45.2483 27.0766 45.1971 27.0672 45.1151L26.9683 44.5362C26.9541 44.4542 27.0013 44.3774 27.0766 44.3671C27.1473 44.3518 27.218 44.403 27.2321 44.485L27.3311 45.0639C27.3452 45.1459 27.2981 45.2227 27.2227 45.233ZM34.5441 42.5741C34.4734 42.5894 34.398 42.5382 34.3886 42.4562L34.2896 41.8773C34.2755 41.7954 34.3226 41.7185 34.398 41.7083C34.4734 41.6929 34.5441 41.7441 34.5535 41.8261L34.6524 42.405C34.6666 42.487 34.6147 42.5638 34.5441 42.5792V42.5741ZM27.0248 44.0751C26.9494 44.0905 26.8788 44.0393 26.8693 43.9573L26.7704 43.3784C26.7563 43.2964 26.8081 43.2196 26.8788 43.2042C26.9494 43.1888 27.0201 43.2401 27.0342 43.322L27.1332 43.901C27.1473 43.9829 27.1002 44.0598 27.0248 44.0751ZM34.3462 41.4163C34.2708 41.4316 34.2001 41.3804 34.1907 41.2984L34.0918 40.7195C34.0776 40.6375 34.1295 40.5607 34.2001 40.5453C34.2755 40.53 34.3415 40.5812 34.3556 40.6632L34.4545 41.2421C34.4687 41.324 34.4216 41.4009 34.3462 41.4111V41.4163ZM26.8269 42.9173C26.7516 42.9327 26.6856 42.8815 26.6715 42.7995L26.5725 42.2206C26.5584 42.1386 26.6102 42.0618 26.6809 42.0464C26.7563 42.031 26.8269 42.0823 26.8364 42.1642L26.9353 42.7431C26.9494 42.8251 26.8976 42.9019 26.8269 42.9122V42.9173ZM34.1483 40.2533C34.0729 40.2687 34.0023 40.2174 33.9928 40.1355L33.9457 39.8691C33.9269 39.7666 33.908 39.6642 33.8845 39.5668C33.8656 39.49 33.908 39.408 33.9787 39.3875C34.0541 39.367 34.1248 39.4131 34.1436 39.49C34.1672 39.5976 34.1907 39.7051 34.2096 39.8127L34.252 40.0791C34.2661 40.1611 34.2143 40.2328 34.1436 40.2482L34.1483 40.2533ZM26.6291 41.7544C26.5537 41.7697 26.483 41.7185 26.4736 41.6365L26.4312 41.3804C26.4123 41.2677 26.3982 41.155 26.3841 41.0423C26.3747 40.9603 26.4312 40.8886 26.5066 40.8783C26.582 40.8681 26.6479 40.9296 26.6573 41.0115C26.6668 41.114 26.6809 41.2216 26.6997 41.324L26.7421 41.5802C26.7563 41.6622 26.7092 41.739 26.6338 41.7492L26.6291 41.7544ZM33.8609 39.1211C33.7997 39.1314 33.7384 39.1006 33.7102 39.034C33.6442 38.8598 33.5641 38.6908 33.4699 38.5268C33.4322 38.4551 33.451 38.368 33.517 38.327C33.5829 38.286 33.663 38.3065 33.7007 38.3783C33.7997 38.5524 33.8845 38.7369 33.9551 38.9213C33.9834 38.9982 33.9551 39.0801 33.8845 39.116C33.875 39.116 33.8656 39.1211 33.8562 39.1262L33.8609 39.1211ZM26.5254 40.5812C26.5254 40.5812 26.5066 40.5812 26.4972 40.5812C26.4218 40.5812 26.3652 40.5095 26.3652 40.4275C26.3747 40.2226 26.3935 40.0228 26.4265 39.8178C26.4406 39.7359 26.5113 39.6846 26.582 39.7C26.6573 39.7154 26.7044 39.7922 26.6903 39.8691C26.6573 40.0535 26.6385 40.2482 26.6338 40.4377C26.6338 40.5095 26.5867 40.5658 26.5254 40.5761V40.5812ZM33.305 38.1119C33.2579 38.1221 33.206 38.1016 33.1731 38.0606C33.0647 37.9172 32.9422 37.7737 32.815 37.6457C32.7585 37.5893 32.7585 37.4971 32.8056 37.4407C32.8574 37.3793 32.9422 37.3793 32.994 37.4305C33.1307 37.5688 33.2626 37.7174 33.3804 37.8762C33.4275 37.9377 33.4181 38.0299 33.3615 38.0811C33.3427 38.0965 33.3191 38.1067 33.3003 38.1119H33.305ZM26.7233 39.4234C26.7233 39.4234 26.6809 39.4234 26.6573 39.4234C26.5867 39.3978 26.549 39.3158 26.5725 39.2389C26.6338 39.0443 26.7045 38.8547 26.7893 38.6754C26.8222 38.6037 26.907 38.5729 26.973 38.6088C27.039 38.6447 27.0672 38.7318 27.0342 38.8086C26.9542 38.9777 26.8882 39.157 26.8317 39.3363C26.8175 39.3875 26.7751 39.4234 26.728 39.4336L26.7233 39.4234ZM32.5088 37.3127C32.4758 37.3178 32.4381 37.3127 32.4098 37.287C32.2638 37.1795 32.113 37.0821 31.9576 37.0001C31.8916 36.9643 31.8633 36.8772 31.8963 36.8055C31.9293 36.7337 32.0094 36.703 32.0753 36.7389C32.2449 36.8311 32.4051 36.9335 32.5606 37.0463C32.6218 37.0924 32.6407 37.1846 32.5983 37.2512C32.5794 37.287 32.5465 37.3075 32.5088 37.3127ZM27.2133 38.368C27.1803 38.3731 27.1426 38.368 27.1096 38.3424C27.0484 38.2963 27.0342 38.2041 27.0766 38.1375C27.185 37.9684 27.3028 37.8096 27.43 37.661C27.4818 37.5995 27.5666 37.5996 27.6232 37.6559C27.6797 37.7123 27.6797 37.8045 27.6279 37.866C27.5101 38.0043 27.397 38.1528 27.2981 38.3065C27.2792 38.3373 27.2462 38.3629 27.2133 38.368ZM31.5382 36.7901C31.5382 36.7901 31.4958 36.7901 31.4723 36.7901C31.3074 36.7286 31.1331 36.6825 30.9635 36.6518C30.8881 36.6364 30.841 36.5596 30.8551 36.4827C30.8692 36.4007 30.9399 36.3495 31.0106 36.3649C31.1943 36.4007 31.3781 36.452 31.5571 36.5135C31.6278 36.5391 31.6655 36.621 31.6419 36.6979C31.6278 36.7491 31.5854 36.7901 31.5382 36.7952V36.7901ZM27.9482 37.5073C27.9011 37.5176 27.8493 37.4971 27.8163 37.4561C27.7692 37.3946 27.7786 37.2973 27.8352 37.2512C27.9812 37.1231 28.1367 37.0053 28.2969 36.9028C28.3628 36.8618 28.4429 36.8823 28.4806 36.954C28.5183 37.0258 28.4995 37.1129 28.4335 37.1538C28.2827 37.2512 28.1414 37.3588 28.0048 37.4766C27.9859 37.492 27.9671 37.5022 27.9435 37.5073H27.9482ZM30.4735 36.5852C30.4735 36.5852 30.4546 36.5852 30.4452 36.5852C30.2709 36.5801 30.0966 36.5852 29.9223 36.6057C29.8469 36.6159 29.7809 36.5544 29.7715 36.4776C29.7621 36.3956 29.8139 36.3239 29.8893 36.3137C30.0777 36.288 30.2662 36.2829 30.4499 36.288C30.5253 36.288 30.5819 36.3598 30.5819 36.4417C30.5819 36.5135 30.5347 36.5698 30.4735 36.5801V36.5852ZM28.8811 36.9028C28.8198 36.9131 28.7586 36.8772 28.7303 36.8157C28.702 36.7389 28.7303 36.6518 28.8057 36.621C28.98 36.5442 29.159 36.4776 29.3381 36.4264C29.4087 36.411 29.4841 36.452 29.503 36.5339C29.5218 36.6108 29.4794 36.6928 29.404 36.7133C29.2344 36.7594 29.0695 36.8208 28.9093 36.8926C28.8999 36.8926 28.8905 36.8977 28.8811 36.9028Z" fill="#2959C8"/>
<path d="M49.1541 23.0346C49.1541 23.0346 47.8208 21.9537 45.2578 21.5899C45.2578 21.5899 48.2118 22.507 48.8337 25.2683L49.1541 23.0346Z" fill="#000D2B"/>
<path d="M48.885 24.7918C48.885 24.7918 47.4103 23.4906 45.9263 24.9045C45.9263 24.9045 48.6117 24.2283 48.6918 26.5081L48.8897 24.7918H48.885Z" fill="#000D2B"/>
<path d="M23.1377 37.1282C23.1377 37.1282 27.9338 33.5728 35.9006 34.5718C35.9006 34.5718 28.3578 31.206 23.1377 37.1282Z" fill="#000D2B"/>
<path d="M37.145 48.317C37.145 48.317 39.2651 43.363 36.4007 39.2235C33.5409 35.0841 36.9377 34.582 37.8517 36.2829C41.0648 42.2718 37.145 48.317 37.145 48.317Z" fill="#173A8A"/>
<path d="M26.7937 50.3919C26.7937 50.3919 23.1896 46.5855 24.5041 41.6058C25.8185 36.6262 22.4829 37.4766 22.1861 39.4183C21.1449 46.2576 26.7985 50.3868 26.7985 50.3868L26.7937 50.3919Z" fill="#173A8A"/>
<path d="M12.0947 27.7171C11.7366 28.3011 14.6105 29.628 12.5281 31.2059C10.441 32.7787 8.98049 30.0174 7.34567 29.3872C5.71085 28.7571 3.31279 31.4365 6.00295 35.1405C8.6931 38.8393 13.0134 44.4952 14.8413 41.032C16.6693 37.5688 13.9933 33.373 15.2748 32.5482C16.561 31.7182 12.8862 26.421 12.0947 27.7222V27.7171Z" fill="#173A8A"/>
<path d="M6.09232 11.7997C6.09232 11.7997 6.01694 7.38362 13.0556 4.79646C18.1108 2.93678 22.4829 2.3425 30.4592 2.48594C30.4592 2.48594 23.4959 2.67037 16.2734 4.62227C10.7753 6.10797 6.48807 9.33039 6.09232 11.7997Z" fill="white"/>
<path d="M35.9293 18.4392C35.9293 18.4392 31.7787 25.0224 26.0403 24.008C20.3067 22.9988 18.8226 18.3726 15.0441 19.0899C11.2657 19.8071 15.1384 29.1004 23.7648 28.9467C35.7739 28.7315 35.9293 18.4341 35.9293 18.4341V18.4392Z" fill="#173A8A"/>
<path d="M36.2636 23.5879C36.2636 23.5879 31.9056 28.9364 25.7715 29.3001C25.7715 29.3001 33.3096 29.9815 36.2636 23.5879Z" fill="white"/>
<path d="M45.9076 59.2907C44.8475 59.178 43.943 59.6083 43.7734 60.3614C43.599 61.1196 44.2209 61.9547 45.2056 62.3902L45.9076 59.2856V59.2907Z" fill="#082567"/>
<path d="M72.776 86.0845L41.7285 77.7851L46.3974 57.1288C46.3974 57.1288 52.7812 61.9957 61.1815 64.2396C69.9681 66.586 77.4449 65.4282 77.4449 65.4282L72.776 86.0845Z" fill="#082567"/>
<path d="M42.2044 75.6794L41.7285 77.7799L72.776 86.0793L77.4449 65.423C77.4449 65.423 76.3519 65.592 74.5145 65.6689C73.8078 87.7187 48.4892 78.3485 42.1996 75.6794H42.2044Z" fill="#082567"/>
<path d="M73.6856 86.3252C73.5631 86.8631 73.0637 87.191 72.569 87.0578L41.4886 78.7482C40.9939 78.615 40.6924 78.0719 40.8149 77.534C40.9374 76.9961 41.4368 76.6682 41.9315 76.8014L73.0119 85.111C73.5066 85.2442 73.8081 85.7873 73.6856 86.3252Z" fill="#000D2B"/>
<path d="M46.3597 57.3029L45.9922 58.9269L48.8614 60.8122C51.6222 62.4516 55.8341 64.6033 60.7056 65.9046C65.4499 67.17 69.8172 67.4518 72.9126 67.4261L77.0538 67.1597L77.4071 65.6023C77.4071 65.6023 69.9303 66.7601 61.1437 64.4138C52.7435 62.1699 46.3597 57.3029 46.3597 57.3029Z" fill="#000D2B"/>
<path d="M46.3929 58.4351C46.3929 58.4351 46.3741 58.4248 46.3647 58.4197L46.1103 58.2558C46.0584 58.2199 46.0396 58.1482 46.0726 58.0918C46.1055 58.0355 46.1715 58.015 46.2233 58.0509L46.4777 58.2148C46.5296 58.2507 46.5484 58.3224 46.5154 58.3787C46.4919 58.4248 46.44 58.4453 46.3929 58.4351Z" fill="#2959C8"/>
<path d="M60.8522 65.2438L60.7344 65.213C60.6778 65.1976 60.6401 65.131 60.6543 65.0696C60.6684 65.003 60.7297 64.9671 60.7862 64.9825L60.8993 65.0132C61.05 65.0542 61.2008 65.0901 61.3516 65.131C61.4081 65.1567 61.4505 65.213 61.4364 65.2745C61.4222 65.3411 61.361 65.3821 61.3044 65.3667C61.1537 65.3257 61.0029 65.2899 60.8522 65.2489V65.2438ZM60.1737 65.0542C59.9853 65.003 59.7968 64.9466 59.6084 64.8903C59.5518 64.8749 59.5141 64.8083 59.533 64.7417C59.5518 64.6751 59.6084 64.6341 59.6696 64.6597C59.8534 64.7161 60.0418 64.7724 60.2303 64.8237C60.2915 64.839 60.3245 64.9056 60.3104 64.9722C60.2962 65.0337 60.235 65.0747 60.1784 65.0593L60.1737 65.0542ZM61.8698 65.4999C61.8133 65.4845 61.7756 65.4231 61.7897 65.3565C61.8038 65.2899 61.8604 65.2489 61.9216 65.2642C62.1101 65.3104 62.2985 65.3513 62.487 65.3974C62.5576 65.4179 62.5859 65.4743 62.5718 65.5409C62.5576 65.6075 62.5011 65.6485 62.4399 65.6331C62.2514 65.5921 62.0582 65.546 61.8698 65.4999ZM59.0524 64.7161C58.864 64.6546 58.6802 64.5931 58.4918 64.5316C58.4353 64.5111 58.4023 64.4446 58.4211 64.3831C58.44 64.3216 58.5012 64.2806 58.5577 64.3062C58.7415 64.3677 58.9252 64.4292 59.1137 64.4855C59.1702 64.506 59.2079 64.5726 59.1891 64.6341C59.1702 64.6956 59.1137 64.7314 59.0571 64.7161H59.0524ZM63.0099 65.7612C62.9534 65.7458 62.9157 65.6843 62.9298 65.6229C62.944 65.5563 63.0005 65.5153 63.057 65.5306C63.2502 65.5716 63.4387 65.6075 63.6271 65.6485C63.6836 65.6587 63.726 65.7253 63.7166 65.7868C63.7072 65.8534 63.6507 65.8944 63.5894 65.8841C63.401 65.8483 63.2078 65.8073 63.0146 65.7663C63.0146 65.7663 63.0146 65.7663 63.0099 65.7663V65.7612ZM57.9406 64.3472C57.9406 64.3472 57.9359 64.3472 57.9311 64.3472C57.7474 64.2806 57.559 64.2191 57.3752 64.1525C57.3187 64.132 57.2857 64.0654 57.3045 63.9988C57.3234 63.9374 57.3846 63.9015 57.4459 63.922C57.6296 63.9886 57.8134 64.0552 57.9971 64.1167C58.0536 64.1372 58.0866 64.2038 58.0678 64.2652C58.0489 64.3267 57.9924 64.3626 57.9359 64.3472H57.9406ZM64.1548 65.9917C64.0982 65.9764 64.0653 65.92 64.0747 65.8534C64.0841 65.7868 64.1406 65.7458 64.2019 65.7561C64.3951 65.7919 64.5835 65.8278 64.7767 65.8585C64.8332 65.8688 64.8756 65.9302 64.8662 65.9968C64.8568 66.0634 64.8002 66.1096 64.739 66.0993C64.5505 66.0686 64.3574 66.0327 64.1642 65.9968C64.1642 65.9968 64.1595 65.9968 64.1548 65.9968V65.9917ZM56.8381 63.9476C56.8381 63.9476 56.8334 63.9476 56.8287 63.9476C56.645 63.8759 56.4612 63.8093 56.2775 63.7376C56.2209 63.7171 56.1927 63.6454 56.2115 63.5839C56.2304 63.5224 56.2963 63.4865 56.3529 63.5122C56.5319 63.5839 56.7156 63.6556 56.8994 63.7222C56.9559 63.7427 56.9889 63.8144 56.97 63.8759C56.9512 63.9322 56.8947 63.9681 56.8381 63.9527V63.9476ZM65.3043 66.1915C65.2478 66.1762 65.2148 66.1198 65.2195 66.0583C65.2289 65.9917 65.2855 65.9456 65.3467 65.9559C65.5399 65.9866 65.7331 66.0173 65.9215 66.043C65.9828 66.0532 66.0252 66.1147 66.0157 66.1762C66.0063 66.2428 65.9498 66.2889 65.8932 66.2786C65.7048 66.253 65.5116 66.2223 65.3138 66.1915C65.3138 66.1915 65.309 66.1915 65.3043 66.1915ZM55.7451 63.5173C55.7451 63.5173 55.7357 63.5173 55.731 63.5173C55.5472 63.4404 55.3682 63.3687 55.1845 63.2919C55.1279 63.2662 55.0997 63.1996 55.1232 63.1382C55.1468 63.0767 55.208 63.0459 55.2646 63.0716C55.4436 63.1484 55.6226 63.2253 55.8064 63.297C55.8629 63.3226 55.8912 63.3892 55.8723 63.4507C55.8535 63.507 55.7969 63.5378 55.7451 63.5275V63.5173ZM66.4586 66.3606C66.4068 66.3452 66.3691 66.2889 66.3738 66.2274C66.3832 66.1608 66.435 66.1147 66.4963 66.1249C66.6895 66.1505 66.8826 66.1762 67.0711 66.1966C67.1323 66.2018 67.1747 66.2633 67.17 66.3299C67.1653 66.3965 67.1088 66.4426 67.0475 66.4374C66.8543 66.4169 66.6612 66.3913 66.468 66.3657C66.468 66.3657 66.4586 66.3657 66.4539 66.3657L66.4586 66.3606ZM54.6615 63.0613C54.6615 63.0613 54.6521 63.0613 54.6474 63.0613C54.4636 62.9845 54.2846 62.9025 54.1056 62.8205C54.049 62.7949 54.0208 62.7232 54.0443 62.6617C54.0679 62.6002 54.1338 62.5746 54.1904 62.5951C54.3694 62.6771 54.5484 62.7539 54.7275 62.8308C54.784 62.8564 54.8123 62.9281 54.7887 62.9896C54.7699 63.0459 54.7133 63.0767 54.6615 63.0613ZM67.6176 66.504C67.5658 66.4887 67.5281 66.4374 67.5328 66.376C67.5375 66.3094 67.594 66.2632 67.6553 66.2684C67.8484 66.2889 68.0416 66.3094 68.2348 66.3247C68.296 66.3298 68.3431 66.3862 68.3337 66.4528C68.329 66.5194 68.2724 66.5655 68.2159 66.5604C68.0228 66.5399 67.8296 66.5245 67.6364 66.4989C67.6317 66.4989 67.627 66.4989 67.6223 66.4989L67.6176 66.504ZM53.5873 62.5797C53.5873 62.5797 53.5779 62.5797 53.5685 62.5746C53.3895 62.4927 53.2104 62.4056 53.0314 62.3236C52.9749 62.298 52.9513 62.2263 52.9749 62.1648C52.9984 62.1033 53.0644 62.0777 53.1209 62.1033C53.2952 62.1853 53.4743 62.2724 53.6533 62.3543C53.7098 62.3799 53.7334 62.4517 53.7098 62.5132C53.6863 62.5695 53.6344 62.5951 53.5826 62.5849L53.5873 62.5797ZM68.7766 66.6167C68.7247 66.6014 68.687 66.5501 68.6918 66.4938C68.6965 66.4272 68.7483 66.376 68.8095 66.3811C69.0027 66.3964 69.1959 66.4118 69.389 66.4272C69.4503 66.4272 69.4974 66.4887 69.4927 66.5553C69.4927 66.6219 69.4361 66.6731 69.3749 66.668C69.1864 66.6526 68.9886 66.6372 68.7954 66.6219C68.7907 66.6219 68.7813 66.6219 68.7766 66.6219V66.6167ZM52.5226 62.0674C52.5226 62.0674 52.5084 62.0674 52.5037 62.0623C52.3247 61.9752 52.1504 61.883 51.9761 61.7959C51.9195 61.7703 51.896 61.6986 51.9242 61.6371C51.9525 61.5756 52.0185 61.55 52.0703 61.5807C52.2446 61.6678 52.4189 61.7549 52.598 61.8471C52.6545 61.8728 52.678 61.9445 52.6545 62.006C52.6309 62.0572 52.5791 62.0879 52.5273 62.0726L52.5226 62.0674ZM69.9355 66.6987C69.8837 66.6833 69.8507 66.6321 69.8507 66.5758C69.8507 66.5092 69.9073 66.4579 69.9685 66.463C70.1664 66.4733 70.3596 66.4835 70.548 66.4938C70.6093 66.4938 70.6564 66.5501 70.6517 66.6167C70.6517 66.6833 70.5998 66.7346 70.5386 66.7295C70.3454 66.7192 70.1523 66.709 69.9544 66.6987C69.945 66.6987 69.9403 66.6987 69.9355 66.6987ZM51.4672 61.5346C51.4672 61.5346 51.4531 61.5346 51.4437 61.5244C51.2647 61.4322 51.0903 61.34 50.9207 61.2477C50.8642 61.217 50.8454 61.1453 50.8689 61.0838C50.8972 61.0223 50.9631 61.0018 51.015 61.0274C51.1846 61.1197 51.3589 61.2119 51.5379 61.3041C51.5944 61.3348 51.618 61.4066 51.5897 61.4629C51.5662 61.5141 51.5144 61.5398 51.4625 61.5295L51.4672 61.5346ZM71.0992 66.7551C71.0474 66.7397 71.0144 66.6936 71.0144 66.6321C71.0144 66.5655 71.0663 66.5143 71.1275 66.5143C71.3254 66.5194 71.5185 66.5245 71.707 66.5297C71.7682 66.5297 71.8153 66.586 71.8153 66.6526C71.8153 66.7192 71.7635 66.7704 71.7023 66.7704C71.5138 66.7704 71.316 66.7602 71.1181 66.7551C71.1087 66.7551 71.1039 66.7551 71.0945 66.7551H71.0992ZM50.426 60.9762C50.426 60.9762 50.4119 60.9711 50.4025 60.966C50.2235 60.8686 50.0539 60.7713 49.8842 60.674C49.8277 60.6432 49.8089 60.5715 49.8371 60.51C49.8654 60.4485 49.9361 60.428 49.9879 60.4588C50.1575 60.5561 50.3271 60.6483 50.5061 60.7457C50.558 60.7764 50.5815 60.8481 50.5533 60.9096C50.5297 60.9609 50.4779 60.9865 50.426 60.9711V60.9762ZM72.2629 66.7807C72.2158 66.7653 72.1781 66.7192 72.1781 66.6628C72.1781 66.5962 72.2299 66.545 72.2912 66.545C72.4891 66.545 72.6822 66.545 72.8707 66.545C72.9319 66.545 72.979 66.6014 72.979 66.6628C72.979 66.7243 72.9319 66.7858 72.8707 66.7858C72.6822 66.7858 72.4891 66.7858 72.2865 66.7858C72.2771 66.7858 72.2676 66.7858 72.2582 66.7858L72.2629 66.7807ZM49.3943 60.3871C49.3943 60.3871 49.3754 60.3819 49.366 60.3768C49.2341 60.3 49.1069 60.2283 48.9844 60.1514L48.8525 60.0643C48.8006 60.0284 48.7818 59.9567 48.8148 59.9004C48.8478 59.844 48.9137 59.8235 48.9655 59.8594L49.0927 59.9414C49.2105 60.0131 49.3424 60.0848 49.4697 60.1616C49.5215 60.1924 49.545 60.2641 49.5168 60.3256C49.4932 60.3768 49.4414 60.3973 49.3943 60.3871ZM73.4266 66.7551C73.3795 66.7448 73.3465 66.6987 73.3418 66.6424C73.3418 66.5758 73.3842 66.5194 73.4455 66.5143L74.0249 66.4784C74.0862 66.4784 74.138 66.5245 74.1427 66.5911C74.1427 66.6577 74.1003 66.7141 74.0391 66.7192L73.4596 66.7551C73.4596 66.7551 73.436 66.7551 73.4266 66.7551ZM48.3861 59.7518C48.3861 59.7518 48.3672 59.7467 48.3531 59.7364L47.8537 59.4086C47.8018 59.3727 47.783 59.301 47.816 59.2446C47.849 59.1883 47.9149 59.1678 47.9667 59.2036L48.4661 59.5315C48.518 59.5674 48.5368 59.6391 48.5038 59.6955C48.4803 59.7416 48.4285 59.762 48.3813 59.7518H48.3861ZM74.5856 66.6833C74.5385 66.6731 74.5055 66.627 74.5008 66.5758C74.5008 66.5092 74.5432 66.4528 74.6044 66.4477L75.1839 66.4118C75.2452 66.4118 75.297 66.4579 75.3017 66.5245C75.3017 66.5911 75.2593 66.6475 75.1981 66.6526L74.6186 66.6885C74.6186 66.6885 74.595 66.6885 74.5856 66.6885V66.6833ZM47.3873 59.1012C47.3873 59.1012 47.3637 59.096 47.3543 59.0858L46.8549 58.7579C46.8031 58.7221 46.7842 58.6503 46.8172 58.594C46.8502 58.5376 46.9161 58.5171 46.968 58.553L47.4673 58.8809C47.5192 58.9167 47.538 58.9885 47.505 59.0448C47.4815 59.0909 47.4297 59.1114 47.3825 59.1012H47.3873ZM75.7446 66.6065C75.6975 66.5962 75.6645 66.5501 75.6598 66.4989C75.6598 66.4323 75.7022 66.376 75.7634 66.3708L76.3429 66.335C76.4042 66.335 76.456 66.3811 76.4607 66.4477C76.4607 66.5143 76.4183 66.5706 76.357 66.5758L75.7776 66.6116C75.7776 66.6116 75.754 66.6116 75.7446 66.6116V66.6065Z" fill="#2959C8"/>
<path d="M76.908 66.5193C76.8609 66.5091 76.828 66.463 76.8232 66.4117C76.8232 66.3451 76.8656 66.2888 76.9269 66.2837L77.219 66.2632C77.2802 66.2632 77.3321 66.3093 77.3368 66.3759C77.3368 66.4425 77.2944 66.4988 77.2331 66.504L76.941 66.5245C76.941 66.5245 76.9175 66.5245 76.908 66.5245V66.5193Z" fill="#2959C8"/>
<path d="M88.3519 22.6094C83.2401 18.7722 73.8458 14.3253 66.9673 12.4862C65.8884 12.1993 64.8849 11.9738 63.9756 11.8253C57.9875 10.8416 54.3457 11.2054 52.1785 13.0138C51.1232 13.8899 50.4353 15.0989 50.1197 16.6205C48.466 16.974 44.3578 18.6339 42.9491 26.3339C41.4132 34.7357 40.584 43.8702 45.5356 50.7659C46.2281 51.7341 46.1857 52.8202 46.2658 54.4289C46.2988 55.1 46.3601 57.3337 46.3601 57.3337L49.8606 59.1882C52.5224 60.7661 56.3574 62.8666 61.2148 64.1627C66.0156 65.4435 70.3924 65.5101 73.271 65.4845L77.3981 65.628C77.3981 65.628 79.1648 63.1945 79.5983 62.5285C80.305 61.4373 86.9667 49.9308 90.3071 43.3323C93.8217 36.3854 94.5849 27.2816 88.366 22.6094H88.3519Z" fill="#000D2B"/>
<path d="M87.7579 23.5315C82.062 19.2537 70.6889 14.064 63.8151 12.9318C56.9413 11.7996 51.5845 12.0968 50.9956 17.6297C50.9956 17.6297 45.5871 17.5836 43.9475 26.549C42.308 35.5144 41.7238 44.1314 46.2561 50.4482C47.3114 51.9185 46.9109 53.7731 46.3456 57.3285L49.6718 59.5109C52.3431 61.0991 56.4183 63.1791 61.1296 64.4394C65.7185 65.6638 69.9445 65.9353 72.9409 65.9148L77.3836 65.6279L78.7264 62.9229C78.7264 62.9229 85.9865 49.5004 89.3786 42.7943C92.7707 36.0882 93.3832 27.758 87.7532 23.5366L87.7579 23.5315Z" fill="#082567"/>
<path d="M68.6163 80.1314C68.2724 81.6478 66.8684 82.5699 65.4739 82.2011L42.7795 76.1353C41.385 75.7614 40.6359 74.2603 40.9751 72.7439L43.8207 60.1462C43.8207 60.1462 43.6087 61.9341 45.8513 62.5335L68.5456 68.5993C69.9355 68.9733 70.7882 70.4999 70.449 72.0164L68.6163 80.1314Z" fill="#000D2B"/>
<path d="M67.1698 78.7379C66.906 79.9162 65.8082 80.6386 64.7246 80.3466L42.5909 74.4294C41.5073 74.1374 40.9231 72.9693 41.187 71.791L43.406 61.9854C43.406 61.9854 43.2411 63.3738 44.9843 63.8451L67.118 69.7623C68.2016 70.0543 68.8659 71.2428 68.5973 72.4211L67.1698 78.7379Z" fill="#082567"/>
<path d="M43.406 62.0319C43.406 62.0061 43.406 61.9854 43.406 61.9854L43.3965 62.0268C43.3965 62.0268 43.3965 62.0268 43.4012 62.0268L43.406 62.0319Z" fill="#082567"/>
<path d="M67.6456 69.9877C67.6833 70.2592 67.6739 70.5461 67.6079 70.833L66.1804 77.1497C65.9118 78.3281 64.8188 79.0504 63.7352 78.7584L41.6015 72.8412C41.4366 72.7951 41.2859 72.7285 41.1445 72.6466C41.2435 73.4919 41.7758 74.2091 42.5956 74.4243L64.7293 80.3414C65.8129 80.6334 66.9106 79.9111 67.1745 78.7328L68.602 72.416C68.8234 71.4426 68.4088 70.4641 67.6456 69.9877Z" fill="#082567"/>
<path d="M46.2093 50.3765C46.2093 50.3765 46.2423 50.4278 46.2611 50.4534C47.3165 51.9186 46.9113 53.7783 46.3506 57.3337L49.6768 59.5161C52.3481 61.1043 56.4234 63.1843 61.1347 64.4445C65.7235 65.669 69.9495 65.9405 72.9459 65.92L77.384 65.6331L78.7267 62.9281C78.7267 62.9281 85.9868 49.5056 89.3789 42.7995C91.989 37.6405 92.9501 31.5184 90.6887 27.046C80.3662 63.7632 55.1372 54.89 46.2046 50.3817L46.2093 50.3765Z" fill="#082567"/>
<path d="M54.699 19.2076C54.553 17.3787 54.9016 14.5251 60.0275 14.6891C65.1534 14.8479 82.4533 19.9146 86.0386 26.8205C86.0386 26.8205 81.5958 23.0397 74.8069 22.4659C68.0179 21.8921 55.2832 26.4722 54.699 19.2128V19.2076Z" fill="#173A8A"/>
<path d="M44.3392 32.789C44.3392 32.789 44.669 26.7796 46.1059 23.6289C48.1601 19.141 50.0493 19.0898 50.9209 19.8429C52.485 21.1954 51.5333 23.342 48.862 25.4168C46.497 27.2509 44.7679 30.4272 44.3345 32.789H44.3392Z" fill="#173A8A"/>
<path d="M52.4942 33.8955C52.3481 31.9283 51.8676 29.9251 53.8228 29.2438C55.6036 28.6188 58.3597 31.4467 55.4387 39.0084C52.513 46.5649 53.9971 51.0938 57.9357 51.8161C61.8744 52.5385 59.7449 56.017 50.082 50.6224C40.9044 45.4993 43.5992 33.5779 46.3506 33.332C49.8135 33.0195 48.7487 38.3014 51.3399 37.6661C52.6779 37.3383 52.5507 34.6333 52.4942 33.9007V33.8955Z" fill="#173A8A"/>
<path d="M52.1646 16.4821C52.1646 16.4821 53.7664 12.4246 61.1631 13.2085C66.4728 13.772 70.6847 15.186 77.9024 18.8746C77.9024 18.8746 71.4856 15.9288 64.1642 14.4841C58.5908 13.3826 53.4602 14.4021 52.1693 16.4821H52.1646Z" fill="white"/>
<path d="M49.2903 18.0088C50.6283 17.5631 52.2207 19.2025 52.8756 20.2322C53.9498 21.9228 52.6777 24.4434 52.1265 26.0982C51.5847 27.7222 51.2549 29.4743 50.8497 31.1393C50.4257 32.8709 50.1006 34.664 50.3833 36.4519C50.4823 37.0616 51.3256 36.7849 51.2313 36.1804C50.8497 33.7828 51.7355 31.2674 52.3149 28.9876C52.8473 26.8871 53.6907 24.8174 54.0723 22.6862C54.5528 19.9914 51.759 16.1747 49.0406 17.0867C48.4941 17.2711 48.7438 18.1932 49.2903 18.0088Z" fill="#000D2B"/>
<path d="M53.6201 23.5315C53.6201 23.5315 55.3445 23.1267 56.8756 24.0745C56.8756 24.0745 54.4823 23.4495 53.1914 24.5612L53.6201 23.5315Z" fill="#000D2B"/>
<path d="M52.3618 18.6389C52.3618 18.6389 52.701 17.0508 53.8317 16.6665C53.8317 16.6665 52.7858 17.9576 52.9837 19.2178L52.3665 18.6389H52.3618Z" fill="#000D2B"/>
<path d="M51.7117 29.1311C51.7117 29.1311 49.4173 28.1884 48.3667 29.4743C48.3667 29.4743 50.1052 28.9262 51.4809 30.1403L51.7117 29.126V29.1311Z" fill="#000D2B"/>
<path d="M53.7378 21.0007C53.7378 21.0007 54.2183 20.4679 54.8167 20.5037C54.8167 20.5037 54.077 21.0365 53.8556 21.9894L53.7378 20.9956V21.0007Z" fill="#000D2B"/>
<path d="M51.1513 33.2192C51.1513 33.2192 51.3445 34.5358 52.2255 34.8945C52.2255 34.8945 51.5895 34.9559 51.043 34.3565L51.1513 33.2141V33.2192Z" fill="#000D2B"/>
<path d="M50.4165 33.3525C50.4165 33.3525 50.2846 34.7818 49.3564 35.1148C49.3564 35.1148 50.1621 34.9765 50.5814 34.5769L50.4212 33.3576L50.4165 33.3525Z" fill="#000D2B"/>
<path d="M52.3713 27.8349C52.3713 27.8349 54.2464 28.2806 55.3535 27.2867C55.3535 27.2867 54.1522 29.1208 52.0415 28.4958L52.3666 27.8349H52.3713Z" fill="#000D2B"/>
<path d="M52.5081 25.6063C52.5081 25.6063 51.1513 24.4793 50.1289 25.632C50.1289 25.632 51.6554 25.0889 52.3432 26.3287L52.5034 25.6063H52.5081Z" fill="#000D2B"/>
<path d="M61.295 69.5266C61.2667 68.5276 52.9041 67.6721 49.5497 66.6065C46.1953 65.546 43.5899 63.3072 43.8349 65.5204C44.0799 67.7335 42.4309 69.9057 42.6524 70.2695C43.147 71.0789 44.4379 69.0655 45.5074 67.9333C46.5722 66.8011 61.3892 72.9079 61.295 69.5266Z" fill="#173A8A"/>
<path d="M45.8369 22.594C45.8369 22.594 47.4717 18.4904 49.8321 18.68C49.8321 18.68 47.6602 19.6687 45.8369 22.594Z" fill="white"/>
<path d="M41.3423 77.6775L41.0549 77.6006C40.9748 77.5801 40.9277 77.4931 40.9465 77.406C40.9654 77.3189 41.0455 77.2676 41.1255 77.2881L41.4129 77.365C41.493 77.3855 41.5401 77.4726 41.5213 77.5597C41.5025 77.6467 41.4224 77.698 41.3423 77.6775Z" fill="#2959C8"/>
<path d="M72.3848 85.9768L71.8101 85.8231C71.73 85.8026 71.6829 85.7155 71.7017 85.6284C71.7206 85.5413 71.8006 85.4901 71.8807 85.5106L72.4555 85.6642C72.5356 85.6847 72.5827 85.7718 72.5639 85.8589C72.545 85.946 72.4649 85.9972 72.3848 85.9768ZM71.2353 85.6694L70.6605 85.5157C70.5804 85.4952 70.5333 85.4081 70.5522 85.321C70.571 85.2339 70.6511 85.1827 70.7312 85.2032L71.306 85.3569C71.386 85.3774 71.4332 85.4644 71.4143 85.5515C71.3955 85.6386 71.3154 85.6899 71.2353 85.6694ZM70.0857 85.362L69.511 85.2083C69.4309 85.1878 69.3838 85.1007 69.4026 85.0136C69.4214 84.9265 69.5015 84.8753 69.5816 84.8958L70.1564 85.0495C70.2365 85.07 70.2836 85.1571 70.2648 85.2442C70.2459 85.3313 70.1658 85.3825 70.0857 85.362ZM68.9362 85.0546L68.3614 84.9009C68.2813 84.8804 68.2342 84.7933 68.253 84.7062C68.2719 84.6191 68.352 84.5679 68.4321 84.5884L69.0068 84.7421C69.0869 84.7626 69.1341 84.8497 69.1152 84.9368C69.0964 85.0239 69.0163 85.0751 68.9362 85.0546ZM67.7866 84.7472L67.2118 84.5935C67.1318 84.573 67.0846 84.4859 67.1035 84.3988C67.1223 84.3118 67.2024 84.2605 67.2825 84.281L67.8573 84.4347C67.9374 84.4552 67.9845 84.5423 67.9656 84.6294C67.9468 84.7165 67.8667 84.7677 67.7866 84.7472ZM66.6371 84.4398L66.0623 84.2861C65.9822 84.2657 65.9351 84.1786 65.9539 84.0915C65.9728 84.0044 66.0529 83.9531 66.133 83.9736L66.7077 84.1273C66.7878 84.1478 66.8349 84.2349 66.8161 84.322C66.7972 84.4091 66.7172 84.4603 66.6371 84.4398ZM65.4875 84.1324L64.9127 83.9788C64.8326 83.9583 64.7855 83.8712 64.8044 83.7841C64.8232 83.697 64.9033 83.6458 64.9834 83.6662L65.5582 83.8199C65.6383 83.8404 65.6854 83.9275 65.6665 84.0146C65.6477 84.1017 65.5676 84.1529 65.4875 84.1324ZM64.3379 83.8251L63.7632 83.6714C63.6831 83.6509 63.636 83.5638 63.6548 83.4767C63.6737 83.3896 63.7537 83.3384 63.8338 83.3589L64.4086 83.5126C64.4887 83.533 64.5358 83.6201 64.517 83.7072C64.4981 83.7943 64.418 83.8456 64.3379 83.8251ZM63.1884 83.5177L62.6136 83.364C62.5335 83.3435 62.4864 83.2564 62.5053 83.1693C62.5241 83.0822 62.6042 83.031 62.6843 83.0515L63.2591 83.2052C63.3392 83.2257 63.3863 83.3128 63.3674 83.3998C63.3486 83.4869 63.2685 83.5382 63.1884 83.5177ZM62.0388 83.2103L61.4641 83.0566C61.384 83.0361 61.3368 82.949 61.3557 82.8619C61.3745 82.7748 61.4546 82.7236 61.5347 82.7441L62.1095 82.8978C62.1896 82.9183 62.2367 83.0054 62.2179 83.0925C62.199 83.1796 62.1189 83.2308 62.0388 83.2103ZM60.8893 82.9029L60.3145 82.7492C60.2344 82.7287 60.1873 82.6416 60.2061 82.5545C60.225 82.4674 60.3051 82.4162 60.3852 82.4367L60.9599 82.5904C61.04 82.6109 61.0871 82.698 61.0683 82.7851C61.0495 82.8722 60.9694 82.9234 60.8893 82.9029ZM59.7397 82.5955L59.1649 82.4418C59.0848 82.4213 59.0377 82.3342 59.0566 82.2471C59.0754 82.1601 59.1555 82.1088 59.2356 82.1293L59.8104 82.283C59.8905 82.3035 59.9376 82.3906 59.9187 82.4777C59.8999 82.5648 59.8198 82.616 59.7397 82.5955ZM58.5902 82.2881L58.0154 82.1344C57.9353 82.1139 57.8882 82.0269 57.907 81.9398C57.9259 81.8527 58.006 81.8014 58.0861 81.8219L58.6608 81.9756C58.7409 81.9961 58.788 82.0832 58.7692 82.1703C58.7503 82.2574 58.6703 82.3086 58.5902 82.2881ZM57.4406 81.9808L56.8658 81.8271C56.7857 81.8066 56.7386 81.7195 56.7575 81.6324C56.7763 81.5453 56.8564 81.4941 56.9365 81.5146L57.5113 81.6682C57.5914 81.6887 57.6385 81.7758 57.6196 81.8629C57.6008 81.95 57.5207 82.0012 57.4406 81.9808ZM56.291 81.6734L55.7163 81.5197C55.6362 81.4992 55.5891 81.4121 55.6079 81.325C55.6268 81.2379 55.7068 81.1867 55.7869 81.2072L56.3617 81.3609C56.4418 81.3813 56.4889 81.4684 56.4701 81.5555C56.4512 81.6426 56.3711 81.6939 56.291 81.6734ZM55.1415 81.366L54.5667 81.2123C54.4866 81.1918 54.4395 81.1047 54.4583 81.0176C54.4772 80.9305 54.5573 80.8793 54.6374 80.8998L55.2122 81.0535C55.2923 81.074 55.3394 81.1611 55.3205 81.2481C55.3017 81.3352 55.2216 81.3865 55.1415 81.366ZM53.9919 81.0586L53.4172 80.9049C53.3371 80.8844 53.2899 80.7973 53.3088 80.7102C53.3276 80.6231 53.4077 80.5719 53.4878 80.5924L54.0626 80.7461C54.1427 80.7666 54.1898 80.8537 54.171 80.9408C54.1521 81.0279 54.072 81.0791 53.9919 81.0586ZM52.8424 80.7512L52.2676 80.5975C52.1875 80.577 52.1404 80.4899 52.1592 80.4028C52.1781 80.3157 52.2582 80.2645 52.3383 80.285L52.913 80.4387C52.9931 80.4592 53.0402 80.5463 53.0214 80.6334C53.0026 80.7205 52.9225 80.7717 52.8424 80.7512ZM51.6928 80.4438L51.118 80.2901C51.0379 80.2696 50.9908 80.1825 51.0097 80.0955C51.0285 80.0084 51.1086 79.9571 51.1887 79.9776L51.7635 80.1313C51.8436 80.1518 51.8907 80.2389 51.8718 80.326C51.853 80.4131 51.7729 80.4643 51.6928 80.4438ZM50.5433 80.1364L49.9685 79.9827C49.8884 79.9623 49.8413 79.8752 49.8601 79.7881C49.879 79.701 49.9591 79.6497 50.0391 79.6702L50.6139 79.8239C50.694 79.8444 50.7411 79.9315 50.7223 80.0186C50.7034 80.1057 50.6234 80.1569 50.5433 80.1364ZM49.3937 79.8291L48.8189 79.6754C48.7388 79.6549 48.6917 79.5678 48.7106 79.4807C48.7294 79.3936 48.8095 79.3424 48.8896 79.3629L49.4644 79.5165C49.5445 79.537 49.5916 79.6241 49.5727 79.7112C49.5539 79.7983 49.4738 79.8495 49.3937 79.8291ZM48.2441 79.5217L47.6694 79.368C47.5893 79.3475 47.5422 79.2604 47.561 79.1733C47.5799 79.0862 47.6599 79.035 47.74 79.0555L48.3148 79.2092C48.3949 79.2297 48.442 79.3167 48.4232 79.4038C48.4043 79.4909 48.3242 79.5422 48.2441 79.5217ZM47.0946 79.2143L46.5198 79.0606C46.4397 79.0401 46.3926 78.953 46.4114 78.8659C46.4303 78.7788 46.5104 78.7276 46.5905 78.7481L47.1653 78.9018C47.2454 78.9223 47.2925 79.0094 47.2736 79.0965C47.2548 79.1835 47.1747 79.2348 47.0946 79.2143ZM45.945 78.9069L45.3703 78.7532C45.2902 78.7327 45.243 78.6456 45.2619 78.5585C45.2807 78.4714 45.3608 78.4202 45.4409 78.4407L46.0157 78.5944C46.0958 78.6149 46.1429 78.702 46.1241 78.7891C46.1052 78.8762 46.0251 78.9274 45.945 78.9069ZM44.7955 78.5995L44.2207 78.4458C44.1406 78.4253 44.0935 78.3382 44.1123 78.2511C44.1312 78.164 44.2113 78.1128 44.2914 78.1333L44.8661 78.287C44.9462 78.3075 44.9933 78.3946 44.9745 78.4817C44.9557 78.5688 44.8756 78.62 44.7955 78.5995ZM43.6459 78.2921L43.0711 78.1384C42.991 78.1179 42.9439 78.0308 42.9628 77.9438C42.9816 77.8567 43.0617 77.8054 43.1418 77.8259L43.7166 77.9796C43.7967 78.0001 43.8438 78.0872 43.8249 78.1743C43.8061 78.2614 43.726 78.3126 43.6459 78.2921ZM42.4964 77.9847L41.9216 77.831C41.8415 77.8106 41.7944 77.7235 41.8132 77.6364C41.8321 77.5493 41.9122 77.498 41.9923 77.5185L42.567 77.6722C42.6471 77.6927 42.6942 77.7798 42.6754 77.8669C42.6565 77.954 42.5765 78.0052 42.4964 77.9847Z" fill="#2959C8"/>
<path d="M73.2471 86.2073L72.9597 86.1305C72.8796 86.11 72.8325 86.0229 72.8513 85.9358C72.8702 85.8487 72.9502 85.7975 73.0303 85.818L73.3177 85.8948C73.3978 85.9153 73.4449 86.0024 73.4261 86.0895C73.4072 86.1766 73.3271 86.2278 73.2471 86.2073Z" fill="#2959C8"/>
<path d="M73.3842 85.316C73.4124 85.4594 73.4171 85.6131 73.3842 85.772C73.2617 86.3099 72.7623 86.6378 72.2676 86.5046L41.1871 78.1949C41.0458 78.159 40.9233 78.0822 40.8149 77.9849C40.8903 78.3435 41.14 78.6509 41.4934 78.7431L72.5738 87.0527C73.0685 87.1859 73.5679 86.858 73.6904 86.3201C73.7752 85.9359 73.6433 85.5568 73.3889 85.316H73.3842Z" fill="#01133C"/>
</svg>
