<svg width="292" height="72" viewBox="0 0 292 72" fill="none" xmlns="http://www.w3.org/2000/svg">
<path d="M36.7911 18.8655C40.8549 18.8655 44.1493 15.5473 44.1493 11.4542C44.1493 7.3611 40.8549 4.04297 36.7911 4.04297C32.7272 4.04297 29.4329 7.3611 29.4329 11.4542C29.4329 15.5473 32.7272 18.8655 36.7911 18.8655Z" fill="white"/>
<path d="M6.52363 48.0195C11.2913 42.9234 15.4021 40.3019 16.8616 39.6282C13.4075 42.7642 9.22739 53.1034 8.04393 55.9205C6.01139 60.7594 8.20609 62.4334 9.56422 62.5972C11.0237 62.7804 15.0981 62.499 19.7197 59.902C24.3414 57.305 28.2131 53.3073 29.5712 51.6332C30.9091 49.6734 32.9316 46.5344 32.4126 41.9557C31.7877 36.4432 22.7435 31.2982 21.1016 30.0732C39.9532 34.7895 40.8654 46.6107 36.7302 59.7794C32.3031 64.9734 28.9023 66.66 26.5914 67.8644C22.8617 69.9673 13.8088 73.5849 7.4358 71.233C1.06275 68.8812 -0.16562 63.2707 0.0167912 60.7594C0.199203 58.6363 1.756 53.1153 6.52363 48.0195Z" fill="white"/>
<path d="M16.3583 26.5212C17.8187 28.0683 18.0408 28.1749 21.1624 30.1349C40.4397 35.2799 41.1695 48.3874 34.6018 62.1073C48.8926 48.5711 42.5071 34.2999 38.0848 30.5024C34.1761 26.5212 25.6185 23.2749 22.213 20.8249C20.936 19.9062 18.54 17.934 19.4157 12.985C20.2914 8.03596 24.4022 2.26626 26.3482 0C20.0678 2.38877 15.9327 7.47247 15.2029 9.24872C9.72985 20.3349 14.3347 24.3774 16.3583 26.5212Z" fill="white"/>
<path d="M61.8984 62.4004L63.6855 62.2441C63.7702 62.9603 63.9655 63.5495 64.2715 64.0117C64.584 64.4674 65.0658 64.8385 65.7168 65.125C66.3678 65.4049 67.1003 65.5449 67.9141 65.5449C68.6367 65.5449 69.2747 65.4375 69.8281 65.2227C70.3815 65.0078 70.7917 64.7148 71.0586 64.3438C71.332 63.9661 71.4688 63.556 71.4688 63.1133C71.4688 62.6641 71.3385 62.2734 71.0781 61.9414C70.8177 61.6029 70.388 61.3197 69.7891 61.0918C69.4049 60.9421 68.5553 60.7109 67.2402 60.3984C65.9251 60.0794 65.0039 59.7799 64.4766 59.5C63.793 59.1419 63.2819 58.6992 62.9434 58.1719C62.6113 57.638 62.4453 57.0423 62.4453 56.3848C62.4453 55.6621 62.6504 54.9883 63.0605 54.3633C63.4707 53.7318 64.0697 53.2533 64.8574 52.9277C65.6452 52.6022 66.5208 52.4395 67.4844 52.4395C68.5456 52.4395 69.4798 52.612 70.2871 52.957C71.1009 53.2956 71.7259 53.7969 72.1621 54.4609C72.5983 55.125 72.8327 55.877 72.8652 56.7168L71.0488 56.8535C70.9512 55.9486 70.6191 55.265 70.0527 54.8027C69.4928 54.3405 68.6628 54.1094 67.5625 54.1094C66.4167 54.1094 65.5801 54.321 65.0527 54.7441C64.5319 55.1608 64.2715 55.6654 64.2715 56.2578C64.2715 56.7721 64.457 57.1953 64.8281 57.5273C65.1927 57.8594 66.1432 58.2012 67.6797 58.5527C69.2227 58.8978 70.2806 59.2005 70.8535 59.4609C71.6868 59.8451 72.3021 60.3333 72.6992 60.9258C73.0964 61.5117 73.2949 62.1888 73.2949 62.957C73.2949 63.7188 73.0768 64.4382 72.6406 65.1152C72.2044 65.7858 71.5762 66.3099 70.7559 66.6875C69.9421 67.0586 69.0241 67.2441 68.002 67.2441C66.7064 67.2441 65.6191 67.0553 64.7402 66.6777C63.8678 66.3001 63.181 65.7337 62.6797 64.9785C62.1849 64.2168 61.9245 63.3574 61.8984 62.4004ZM79.8961 65.4277L80.15 66.9805C79.6552 67.0846 79.2125 67.1367 78.8219 67.1367C78.1839 67.1367 77.6891 67.0358 77.3375 66.834C76.9859 66.6322 76.7385 66.3685 76.5953 66.043C76.4521 65.7109 76.3805 65.0176 76.3805 63.9629V57.9961H75.0914V56.6289H76.3805V54.0605L78.1285 53.0059V56.6289H79.8961V57.9961H78.1285V64.0605C78.1285 64.5618 78.1578 64.8841 78.2164 65.0273C78.2815 65.1706 78.3824 65.2845 78.5191 65.3691C78.6624 65.4538 78.8642 65.4961 79.1246 65.4961C79.3199 65.4961 79.5771 65.4733 79.8961 65.4277ZM88.7922 65.7207C88.1411 66.2741 87.5129 66.6647 86.9074 66.8926C86.3085 67.1204 85.6639 67.2344 84.9738 67.2344C83.8345 67.2344 82.9589 66.9577 82.3469 66.4043C81.7349 65.8444 81.4289 65.1315 81.4289 64.2656C81.4289 63.7578 81.5428 63.2956 81.7707 62.8789C82.0051 62.4557 82.3078 62.1172 82.6789 61.8633C83.0565 61.6094 83.4797 61.4173 83.9484 61.2871C84.2935 61.196 84.8143 61.1081 85.5109 61.0234C86.9302 60.8542 87.9751 60.6523 88.6457 60.418C88.6522 60.1771 88.6555 60.0241 88.6555 59.959C88.6555 59.2428 88.4895 58.7383 88.1574 58.4453C87.7082 58.0482 87.0409 57.8496 86.1555 57.8496C85.3286 57.8496 84.7167 57.9961 84.3195 58.2891C83.9289 58.5755 83.6392 59.0866 83.4504 59.8223L81.7316 59.5879C81.8879 58.8522 82.1451 58.2598 82.5031 57.8105C82.8612 57.3548 83.3788 57.0065 84.0559 56.7656C84.7329 56.5182 85.5174 56.3945 86.4094 56.3945C87.2948 56.3945 88.0142 56.4987 88.5676 56.707C89.121 56.9154 89.5279 57.179 89.7883 57.498C90.0487 57.8105 90.231 58.2077 90.3352 58.6895C90.3937 58.9889 90.423 59.5293 90.423 60.3105V62.6543C90.423 64.2884 90.4589 65.3236 90.5305 65.7598C90.6086 66.1895 90.7583 66.6029 90.9797 67H89.1437C88.9615 66.6354 88.8443 66.209 88.7922 65.7207ZM88.6457 61.7949C88.0077 62.0553 87.0507 62.2767 85.7746 62.459C85.052 62.5632 84.5409 62.6803 84.2414 62.8105C83.9419 62.9408 83.7108 63.1328 83.548 63.3867C83.3853 63.6341 83.3039 63.9108 83.3039 64.2168C83.3039 64.6855 83.4797 65.0762 83.8312 65.3887C84.1893 65.7012 84.7102 65.8574 85.3937 65.8574C86.0708 65.8574 86.673 65.7109 87.2004 65.418C87.7277 65.1185 88.1151 64.7116 88.3625 64.1973C88.5513 63.8001 88.6457 63.2142 88.6457 62.4395V61.7949ZM93.4793 70.9941L93.284 69.3438C93.6681 69.4479 94.0034 69.5 94.2898 69.5C94.6805 69.5 94.993 69.4349 95.2273 69.3047C95.4617 69.1745 95.6538 68.9922 95.8035 68.7578C95.9142 68.582 96.0932 68.1458 96.3406 67.4492C96.3732 67.3516 96.4253 67.2083 96.4969 67.0195L92.5613 56.6289H94.4559L96.6141 62.6348C96.894 63.3965 97.1447 64.1973 97.366 65.0371C97.5678 64.2298 97.8087 63.4421 98.0887 62.6738L100.305 56.6289H102.063L98.118 67.1758C97.6948 68.3151 97.366 69.0996 97.1316 69.5293C96.8191 70.1087 96.4611 70.5319 96.0574 70.7988C95.6538 71.0723 95.172 71.209 94.6121 71.209C94.2736 71.209 93.896 71.1374 93.4793 70.9941ZM110.246 67V52.6836H119.904V54.373H112.141V58.8066H118.859V60.4961H112.141V67H110.246ZM122.56 54.7051V52.6836H124.318V54.7051H122.56ZM122.56 67V56.6289H124.318V67H122.56ZM131.241 65.4277L131.495 66.9805C131.001 67.0846 130.558 67.1367 130.167 67.1367C129.529 67.1367 129.034 67.0358 128.683 66.834C128.331 66.6322 128.084 66.3685 127.941 66.043C127.797 65.7109 127.726 65.0176 127.726 63.9629V57.9961H126.437V56.6289H127.726V54.0605L129.474 53.0059V56.6289H131.241V57.9961H129.474V64.0605C129.474 64.5618 129.503 64.8841 129.562 65.0273C129.627 65.1706 129.728 65.2845 129.864 65.3691C130.008 65.4538 130.21 65.4961 130.47 65.4961C130.665 65.4961 130.922 65.4733 131.241 65.4277ZM133.829 67V64.998H135.831V67C135.831 67.7357 135.701 68.3281 135.44 68.7773C135.18 69.2331 134.766 69.5846 134.2 69.832L133.712 69.0801C134.083 68.9173 134.356 68.6764 134.532 68.3574C134.708 68.0449 134.805 67.5924 134.825 67H133.829ZM144.883 62.4004L146.67 62.2441C146.755 62.9603 146.95 63.5495 147.256 64.0117C147.568 64.4674 148.05 64.8385 148.701 65.125C149.352 65.4049 150.085 65.5449 150.898 65.5449C151.621 65.5449 152.259 65.4375 152.812 65.2227C153.366 65.0078 153.776 64.7148 154.043 64.3438C154.316 63.9661 154.453 63.556 154.453 63.1133C154.453 62.6641 154.323 62.2734 154.062 61.9414C153.802 61.6029 153.372 61.3197 152.773 61.0918C152.389 60.9421 151.54 60.7109 150.225 60.3984C148.91 60.0794 147.988 59.7799 147.461 59.5C146.777 59.1419 146.266 58.6992 145.928 58.1719C145.596 57.638 145.43 57.0423 145.43 56.3848C145.43 55.6621 145.635 54.9883 146.045 54.3633C146.455 53.7318 147.054 53.2533 147.842 52.9277C148.63 52.6022 149.505 52.4395 150.469 52.4395C151.53 52.4395 152.464 52.612 153.271 52.957C154.085 53.2956 154.71 53.7969 155.146 54.4609C155.583 55.125 155.817 55.877 155.85 56.7168L154.033 56.8535C153.936 55.9486 153.604 55.265 153.037 54.8027C152.477 54.3405 151.647 54.1094 150.547 54.1094C149.401 54.1094 148.564 54.321 148.037 54.7441C147.516 55.1608 147.256 55.6654 147.256 56.2578C147.256 56.7721 147.441 57.1953 147.812 57.5273C148.177 57.8594 149.128 58.2012 150.664 58.5527C152.207 58.8978 153.265 59.2005 153.838 59.4609C154.671 59.8451 155.286 60.3333 155.684 60.9258C156.081 61.5117 156.279 62.1888 156.279 62.957C156.279 63.7188 156.061 64.4382 155.625 65.1152C155.189 65.7858 154.561 66.3099 153.74 66.6875C152.926 67.0586 152.008 67.2441 150.986 67.2441C149.691 67.2441 148.604 67.0553 147.725 66.6777C146.852 66.3001 146.165 65.7337 145.664 64.9785C145.169 64.2168 144.909 63.3574 144.883 62.4004ZM162.88 65.4277L163.134 66.9805C162.64 67.0846 162.197 67.1367 161.806 67.1367C161.168 67.1367 160.673 67.0358 160.322 66.834C159.97 66.6322 159.723 66.3685 159.58 66.043C159.436 65.7109 159.365 65.0176 159.365 63.9629V57.9961H158.076V56.6289H159.365V54.0605L161.113 53.0059V56.6289H162.88V57.9961H161.113V64.0605C161.113 64.5618 161.142 64.8841 161.201 65.0273C161.266 65.1706 161.367 65.2845 161.504 65.3691C161.647 65.4538 161.849 65.4961 162.109 65.4961C162.304 65.4961 162.561 65.4733 162.88 65.4277ZM171.777 65.7207C171.126 66.2741 170.497 66.6647 169.892 66.8926C169.293 67.1204 168.648 67.2344 167.958 67.2344C166.819 67.2344 165.943 66.9577 165.331 66.4043C164.719 65.8444 164.413 65.1315 164.413 64.2656C164.413 63.7578 164.527 63.2956 164.755 62.8789C164.989 62.4557 165.292 62.1172 165.663 61.8633C166.041 61.6094 166.464 61.4173 166.933 61.2871C167.278 61.196 167.799 61.1081 168.495 61.0234C169.915 60.8542 170.96 60.6523 171.63 60.418C171.637 60.1771 171.64 60.0241 171.64 59.959C171.64 59.2428 171.474 58.7383 171.142 58.4453C170.693 58.0482 170.025 57.8496 169.14 57.8496C168.313 57.8496 167.701 57.9961 167.304 58.2891C166.913 58.5755 166.624 59.0866 166.435 59.8223L164.716 59.5879C164.872 58.8522 165.129 58.2598 165.488 57.8105C165.846 57.3548 166.363 57.0065 167.04 56.7656C167.717 56.5182 168.502 56.3945 169.394 56.3945C170.279 56.3945 170.999 56.4987 171.552 56.707C172.105 56.9154 172.512 57.179 172.773 57.498C173.033 57.8105 173.215 58.2077 173.32 58.6895C173.378 58.9889 173.407 59.5293 173.407 60.3105V62.6543C173.407 64.2884 173.443 65.3236 173.515 65.7598C173.593 66.1895 173.743 66.6029 173.964 67H172.128C171.946 66.6354 171.829 66.209 171.777 65.7207ZM171.63 61.7949C170.992 62.0553 170.035 62.2767 168.759 62.459C168.036 62.5632 167.525 62.6803 167.226 62.8105C166.926 62.9408 166.695 63.1328 166.532 63.3867C166.37 63.6341 166.288 63.9108 166.288 64.2168C166.288 64.6855 166.464 65.0762 166.816 65.3887C167.174 65.7012 167.695 65.8574 168.378 65.8574C169.055 65.8574 169.657 65.7109 170.185 65.418C170.712 65.1185 171.099 64.7116 171.347 64.1973C171.536 63.8001 171.63 63.2142 171.63 62.4395V61.7949ZM176.464 70.9941L176.268 69.3438C176.652 69.4479 176.988 69.5 177.274 69.5C177.665 69.5 177.977 69.4349 178.212 69.3047C178.446 69.1745 178.638 68.9922 178.788 68.7578C178.899 68.582 179.078 68.1458 179.325 67.4492C179.358 67.3516 179.41 67.2083 179.481 67.0195L175.546 56.6289H177.44L179.598 62.6348C179.878 63.3965 180.129 64.1973 180.35 65.0371C180.552 64.2298 180.793 63.4421 181.073 62.6738L183.29 56.6289H185.048L181.102 67.1758C180.679 68.3151 180.35 69.0996 180.116 69.5293C179.804 70.1087 179.445 70.5319 179.042 70.7988C178.638 71.0723 178.156 71.209 177.596 71.209C177.258 71.209 176.88 71.1374 176.464 70.9941ZM203.348 61.9805L205.242 62.459C204.845 64.015 204.129 65.2031 203.094 66.0234C202.065 66.8372 200.805 67.2441 199.314 67.2441C197.771 67.2441 196.515 66.9316 195.545 66.3066C194.581 65.6751 193.846 64.7637 193.338 63.5723C192.837 62.3809 192.586 61.1016 192.586 59.7344C192.586 58.2435 192.869 56.9447 193.436 55.8379C194.008 54.7246 194.819 53.8815 195.867 53.3086C196.922 52.7292 198.081 52.4395 199.344 52.4395C200.776 52.4395 201.98 52.804 202.957 53.5332C203.934 54.2624 204.614 55.2878 204.998 56.6094L203.133 57.0488C202.801 56.0072 202.319 55.2487 201.688 54.7734C201.056 54.2982 200.262 54.0605 199.305 54.0605C198.204 54.0605 197.283 54.3242 196.541 54.8516C195.805 55.3789 195.288 56.0885 194.988 56.9805C194.689 57.8659 194.539 58.7806 194.539 59.7246C194.539 60.9421 194.715 62.0065 195.066 62.918C195.424 63.8229 195.978 64.5 196.727 64.9492C197.475 65.3984 198.286 65.623 199.158 65.623C200.219 65.623 201.118 65.3171 201.854 64.7051C202.589 64.0931 203.087 63.1849 203.348 61.9805ZM207.107 61.8145C207.107 59.8939 207.641 58.4714 208.709 57.5469C209.601 56.7786 210.688 56.3945 211.97 56.3945C213.396 56.3945 214.561 56.8633 215.466 57.8008C216.371 58.7318 216.824 60.0208 216.824 61.668C216.824 63.0026 216.622 64.054 216.218 64.8223C215.821 65.584 215.239 66.1764 214.47 66.5996C213.709 67.0228 212.875 67.2344 211.97 67.2344C210.518 67.2344 209.343 66.7689 208.445 65.8379C207.553 64.9069 207.107 63.5658 207.107 61.8145ZM208.914 61.8145C208.914 63.1426 209.203 64.1387 209.783 64.8027C210.362 65.4603 211.091 65.7891 211.97 65.7891C212.843 65.7891 213.569 65.457 214.148 64.793C214.727 64.1289 215.017 63.1165 215.017 61.7559C215.017 60.4733 214.724 59.5033 214.138 58.8457C213.559 58.1816 212.836 57.8496 211.97 57.8496C211.091 57.8496 210.362 58.1784 209.783 58.8359C209.203 59.4935 208.914 60.4863 208.914 61.8145ZM219.294 67V56.6289H220.876V58.1035C221.638 56.9642 222.738 56.3945 224.177 56.3945C224.802 56.3945 225.375 56.5085 225.896 56.7363C226.423 56.9577 226.817 57.2507 227.077 57.6152C227.338 57.9798 227.52 58.4128 227.624 58.9141C227.689 59.2396 227.722 59.8092 227.722 60.623V67H225.964V60.6914C225.964 59.9753 225.896 59.4414 225.759 59.0898C225.622 58.7318 225.378 58.4486 225.027 58.2402C224.682 58.0254 224.275 57.918 223.806 57.918C223.057 57.918 222.409 58.1556 221.863 58.6309C221.322 59.1061 221.052 60.0078 221.052 61.3359V67H219.294ZM230.827 67V56.6289H232.409V58.1035C233.171 56.9642 234.271 56.3945 235.71 56.3945C236.335 56.3945 236.908 56.5085 237.429 56.7363C237.956 56.9577 238.35 57.2507 238.61 57.6152C238.871 57.9798 239.053 58.4128 239.157 58.9141C239.222 59.2396 239.255 59.8092 239.255 60.623V67H237.497V60.6914C237.497 59.9753 237.429 59.4414 237.292 59.0898C237.155 58.7318 236.911 58.4486 236.559 58.2402C236.214 58.0254 235.807 57.918 235.339 57.918C234.59 57.918 233.942 58.1556 233.395 58.6309C232.855 59.1061 232.585 60.0078 232.585 61.3359V67H230.827ZM249.459 63.6602L251.276 63.8848C250.989 64.946 250.459 65.7695 249.684 66.3555C248.909 66.9414 247.92 67.2344 246.715 67.2344C245.198 67.2344 243.994 66.7689 243.102 65.8379C242.217 64.9004 241.774 63.5885 241.774 61.9023C241.774 60.1576 242.223 58.8034 243.121 57.8398C244.02 56.8763 245.185 56.3945 246.618 56.3945C248.004 56.3945 249.137 56.8665 250.016 57.8105C250.895 58.7546 251.334 60.0827 251.334 61.7949C251.334 61.8991 251.331 62.0553 251.325 62.2637H243.59C243.655 63.403 243.978 64.2754 244.557 64.8809C245.136 65.4863 245.859 65.7891 246.725 65.7891C247.37 65.7891 247.92 65.6198 248.375 65.2812C248.831 64.9427 249.192 64.4023 249.459 63.6602ZM243.688 60.8184H249.479C249.401 59.946 249.179 59.2917 248.815 58.8555C248.255 58.1784 247.529 57.8398 246.637 57.8398C245.83 57.8398 245.149 58.11 244.596 58.6504C244.049 59.1908 243.746 59.9134 243.688 60.8184ZM260.66 63.2012L262.389 63.4258C262.2 64.6172 261.715 65.5514 260.934 66.2285C260.159 66.8991 259.205 67.2344 258.072 67.2344C256.653 67.2344 255.51 66.7721 254.645 65.8477C253.785 64.9167 253.355 63.5853 253.355 61.8535C253.355 60.7337 253.541 59.7539 253.912 58.9141C254.283 58.0742 254.846 57.446 255.602 57.0293C256.363 56.6061 257.19 56.3945 258.082 56.3945C259.208 56.3945 260.13 56.681 260.846 57.2539C261.562 57.8203 262.021 58.6276 262.223 59.6758L260.514 59.9395C260.351 59.2428 260.061 58.7188 259.645 58.3672C259.234 58.0156 258.736 57.8398 258.15 57.8398C257.265 57.8398 256.546 58.1589 255.992 58.7969C255.439 59.4284 255.162 60.431 255.162 61.8047C255.162 63.1979 255.429 64.2103 255.963 64.8418C256.497 65.4733 257.193 65.7891 258.053 65.7891C258.743 65.7891 259.319 65.5775 259.781 65.1543C260.243 64.7311 260.536 64.0801 260.66 63.2012ZM268.13 65.4277L268.384 66.9805C267.89 67.0846 267.447 67.1367 267.056 67.1367C266.418 67.1367 265.923 67.0358 265.572 66.834C265.22 66.6322 264.973 66.3685 264.83 66.043C264.686 65.7109 264.615 65.0176 264.615 63.9629V57.9961H263.326V56.6289H264.615V54.0605L266.363 53.0059V56.6289H268.13V57.9961H266.363V64.0605C266.363 64.5618 266.392 64.8841 266.451 65.0273C266.516 65.1706 266.617 65.2845 266.754 65.3691C266.897 65.4538 267.099 65.4961 267.359 65.4961C267.554 65.4961 267.811 65.4733 268.13 65.4277ZM277.359 63.6602L279.175 63.8848C278.889 64.946 278.358 65.7695 277.583 66.3555C276.808 66.9414 275.819 67.2344 274.614 67.2344C273.098 67.2344 271.893 66.7689 271.001 65.8379C270.116 64.9004 269.673 63.5885 269.673 61.9023C269.673 60.1576 270.122 58.8034 271.021 57.8398C271.919 56.8763 273.085 56.3945 274.517 56.3945C275.904 56.3945 277.036 56.8665 277.915 57.8105C278.794 58.7546 279.234 60.0827 279.234 61.7949C279.234 61.8991 279.23 62.0553 279.224 62.2637H271.489C271.555 63.403 271.877 64.2754 272.456 64.8809C273.036 65.4863 273.758 65.7891 274.624 65.7891C275.269 65.7891 275.819 65.6198 276.275 65.2812C276.73 64.9427 277.092 64.4023 277.359 63.6602ZM271.587 60.8184H277.378C277.3 59.946 277.079 59.2917 276.714 58.8555C276.154 58.1784 275.428 57.8398 274.536 57.8398C273.729 57.8398 273.049 58.11 272.495 58.6504C271.948 59.1908 271.646 59.9134 271.587 60.8184ZM288.52 67V65.6914C287.863 66.7201 286.896 67.2344 285.62 67.2344C284.793 67.2344 284.031 67.0065 283.335 66.5508C282.645 66.0951 282.108 65.4603 281.723 64.6465C281.346 63.8262 281.157 62.8854 281.157 61.8242C281.157 60.7891 281.33 59.8516 281.675 59.0117C282.02 58.1654 282.537 57.5176 283.227 57.0684C283.917 56.6191 284.689 56.3945 285.542 56.3945C286.167 56.3945 286.723 56.528 287.212 56.7949C287.7 57.0553 288.097 57.3971 288.403 57.8203V52.6836H290.151V67H288.52ZM282.964 61.8242C282.964 63.1523 283.244 64.1452 283.804 64.8027C284.363 65.4603 285.024 65.7891 285.786 65.7891C286.554 65.7891 287.205 65.4766 287.739 64.8516C288.279 64.2201 288.55 63.2598 288.55 61.9707C288.55 60.5514 288.276 59.5098 287.729 58.8457C287.182 58.1816 286.509 57.8496 285.708 57.8496C284.927 57.8496 284.272 58.1686 283.745 58.8066C283.224 59.4447 282.964 60.4505 282.964 61.8242Z" fill="white"/>
<path d="M63.9492 37V8.36719H83.5781V13.2109H69.7305V19.9883H81.6836V24.832H69.7305V37H63.9492ZM89.1242 13.4453V8.36719H94.6125V13.4453H89.1242ZM89.1242 37V16.2578H94.6125V37H89.1242ZM110.569 16.2578V20.6328H106.819V28.9922C106.819 30.6849 106.851 31.6745 106.916 31.9609C106.995 32.2344 107.157 32.4622 107.405 32.6445C107.665 32.8268 107.978 32.918 108.342 32.918C108.85 32.918 109.586 32.7422 110.549 32.3906L111.018 36.6484C109.742 37.1953 108.297 37.4688 106.682 37.4688C105.692 37.4688 104.801 37.306 104.006 36.9805C103.212 36.6419 102.626 36.2122 102.248 35.6914C101.884 35.1576 101.63 34.4414 101.487 33.543C101.37 32.9049 101.311 31.6159 101.311 29.6758V20.6328H98.7914V16.2578H101.311V12.1367L106.819 8.93359V16.2578H110.569ZM133.537 26.4727L139.142 28.25C138.283 31.375 136.851 33.6992 134.845 35.2227C132.853 36.7331 130.321 37.4883 127.248 37.4883C123.446 37.4883 120.321 36.1927 117.873 33.6016C115.425 30.9974 114.201 27.4427 114.201 22.9375C114.201 18.1719 115.431 14.474 117.892 11.8438C120.353 9.20052 123.589 7.87891 127.599 7.87891C131.102 7.87891 133.947 8.91406 136.134 10.9844C137.436 12.2083 138.413 13.9661 139.064 16.2578L133.341 17.625C133.003 16.1406 132.293 14.9688 131.213 14.1094C130.145 13.25 128.843 12.8203 127.306 12.8203C125.184 12.8203 123.459 13.582 122.13 15.1055C120.815 16.6289 120.158 19.0964 120.158 22.5078C120.158 26.1276 120.809 28.7057 122.111 30.2422C123.413 31.7786 125.106 32.5469 127.189 32.5469C128.726 32.5469 130.047 32.0586 131.154 31.082C132.261 30.1055 133.055 28.569 133.537 26.4727ZM143.614 26.3359C143.614 24.513 144.063 22.7487 144.962 21.043C145.86 19.3372 147.13 18.0352 148.77 17.1367C150.424 16.2383 152.266 15.7891 154.298 15.7891C157.436 15.7891 160.007 16.8112 162.012 18.8555C164.018 20.8867 165.02 23.4583 165.02 26.5703C165.02 29.7083 164.005 32.3125 161.973 34.3828C159.955 36.4401 157.41 37.4688 154.337 37.4688C152.436 37.4688 150.619 37.0391 148.887 36.1797C147.169 35.3203 145.86 34.0638 144.962 32.4102C144.063 30.7435 143.614 28.7188 143.614 26.3359ZM149.239 26.6289C149.239 28.6862 149.727 30.2617 150.704 31.3555C151.68 32.4492 152.885 32.9961 154.317 32.9961C155.749 32.9961 156.947 32.4492 157.911 31.3555C158.887 30.2617 159.376 28.6732 159.376 26.5898C159.376 24.5586 158.887 22.9961 157.911 21.9023C156.947 20.8086 155.749 20.2617 154.317 20.2617C152.885 20.2617 151.68 20.8086 150.704 21.9023C149.727 22.9961 149.239 24.5716 149.239 26.6289ZM189.004 37H183.516V26.4141C183.516 24.1745 183.398 22.7292 183.164 22.0781C182.93 21.4141 182.546 20.8997 182.012 20.5352C181.491 20.1706 180.859 19.9883 180.117 19.9883C179.167 19.9883 178.314 20.2487 177.559 20.7695C176.803 21.2904 176.283 21.9805 175.996 22.8398C175.723 23.6992 175.586 25.2878 175.586 27.6055V37H170.098V16.2578H175.195V19.3047C177.005 16.9609 179.284 15.7891 182.031 15.7891C183.242 15.7891 184.349 16.0104 185.352 16.4531C186.354 16.8828 187.109 17.4362 187.617 18.1133C188.138 18.7904 188.496 19.5586 188.691 20.418C188.9 21.2773 189.004 22.5078 189.004 24.1094V37ZM214.257 37H208.769V26.4141C208.769 24.1745 208.652 22.7292 208.417 22.0781C208.183 21.4141 207.799 20.8997 207.265 20.5352C206.744 20.1706 206.113 19.9883 205.37 19.9883C204.42 19.9883 203.567 20.2487 202.812 20.7695C202.057 21.2904 201.536 21.9805 201.249 22.8398C200.976 23.6992 200.839 25.2878 200.839 27.6055V37H195.351V16.2578H200.448V19.3047C202.258 16.9609 204.537 15.7891 207.284 15.7891C208.495 15.7891 209.602 16.0104 210.605 16.4531C211.607 16.8828 212.363 17.4362 212.87 18.1133C213.391 18.7904 213.749 19.5586 213.945 20.418C214.153 21.2773 214.257 22.5078 214.257 24.1094V37ZM232.655 30.3984L238.123 31.3164C237.42 33.3216 236.307 34.8516 234.784 35.9062C233.273 36.9479 231.379 37.4688 229.1 37.4688C225.493 37.4688 222.824 36.2904 221.092 33.9336C219.725 32.0456 219.041 29.6628 219.041 26.7852C219.041 23.3477 219.94 20.6589 221.737 18.7188C223.534 16.7656 225.806 15.7891 228.553 15.7891C231.639 15.7891 234.074 16.8112 235.858 18.8555C237.642 20.8867 238.495 24.0052 238.416 28.2109H224.666C224.705 29.8385 225.148 31.1081 225.995 32.0195C226.841 32.918 227.896 33.3672 229.159 33.3672C230.018 33.3672 230.741 33.1328 231.327 32.6641C231.913 32.1953 232.355 31.4401 232.655 30.3984ZM232.967 24.8516C232.928 23.263 232.518 22.0586 231.737 21.2383C230.955 20.4049 230.005 19.9883 228.885 19.9883C227.687 19.9883 226.698 20.4245 225.916 21.2969C225.135 22.1693 224.751 23.3542 224.764 24.8516H232.967ZM261.795 22.3906L256.384 23.3672C256.202 22.2865 255.785 21.4727 255.134 20.9258C254.496 20.3789 253.663 20.1055 252.634 20.1055C251.267 20.1055 250.173 20.5807 249.353 21.5312C248.546 22.4688 248.142 24.0443 248.142 26.2578C248.142 28.7188 248.552 30.457 249.373 31.4727C250.206 32.4883 251.319 32.9961 252.712 32.9961C253.754 32.9961 254.607 32.7031 255.271 32.1172C255.935 31.5182 256.404 30.4961 256.677 29.0508L262.068 29.9688C261.508 32.4427 260.434 34.3112 258.845 35.5742C257.257 36.8372 255.128 37.4688 252.459 37.4688C249.425 37.4688 247.003 36.5117 245.193 34.5977C243.396 32.6836 242.498 30.0339 242.498 26.6484C242.498 23.224 243.403 20.5612 245.212 18.6602C247.022 16.7461 249.47 15.7891 252.556 15.7891C255.082 15.7891 257.087 16.3359 258.572 17.4297C260.069 18.5104 261.143 20.1641 261.795 22.3906ZM276.286 16.2578V20.6328H272.536V28.9922C272.536 30.6849 272.568 31.6745 272.634 31.9609C272.712 32.2344 272.874 32.4622 273.122 32.6445C273.382 32.8268 273.695 32.918 274.059 32.918C274.567 32.918 275.303 32.7422 276.266 32.3906L276.735 36.6484C275.459 37.1953 274.014 37.4688 272.399 37.4688C271.41 37.4688 270.518 37.306 269.723 36.9805C268.929 36.6419 268.343 36.2122 267.966 35.6914C267.601 35.1576 267.347 34.4414 267.204 33.543C267.087 32.9049 267.028 31.6159 267.028 29.6758V20.6328H264.509V16.2578H267.028V12.1367L272.536 8.93359V16.2578H276.286Z" fill="white"/>
</svg>
