<svg width="70" height="66" viewBox="0 0 70 66" fill="none" xmlns="http://www.w3.org/2000/svg">
<path d="M58.1695 66H0V36.6667V0H33.3912H47.4494H58.1695V66Z" fill="#1B44A3"/>
<path d="M20.9746 30.9375H41.9492V36.1811H20.9746V30.9375Z" fill="#F3F5F9"/>
<path d="M20.9746 20.4502H47.1928V25.6938H20.9746V20.4502Z" fill="#F3F5F9"/>
<path d="M15.3813 40.5858H41.5996V45.8295H15.3813V40.5858Z" fill="#F3F5F9"/>
<path d="M15.6611 51.4576H41.3899V57.0509H15.6611V51.4576Z" fill="#F3F5F9"/>
<path d="M15.731 9.96289H41.9492V15.2065H15.731V9.96289Z" fill="#F3F5F9"/>
<path d="M28.8401 30.9375H41.9492V36.1811H28.8401V30.9375Z" fill="#E1E6F0"/>
<path d="M28.8401 20.4502H47.1928V25.6938H28.8401V20.4502Z" fill="#E1E6F0"/>
<path d="M28.8401 40.5858H47.1928V45.8295H28.8401V40.5858Z" fill="#E1E6F0"/>
<path d="M29.0847 51.4576H41.3898V57.0509H29.0847V51.4576Z" fill="#E1E6F0"/>
<path d="M28.8401 9.96289H41.9492V15.2065H28.8401V9.96289Z" fill="#E1E6F0"/>
<path d="M43.1018 65.5298C44.351 64.8819 46.1526 63.6117 48.5344 61.647L45.7144 58.8503C43.773 61.2089 42.5029 63.0104 41.855 64.2829C42.5472 64.3039 43.0785 64.8586 43.1018 65.5298Z" fill="#BDBDBD"/>
<path d="M41.4821 65.8981C41.6662 66.0822 42.0834 66.0146 42.708 65.7139C42.8245 65.6673 42.962 65.5974 43.0785 65.5298C43.0683 65.2018 42.9333 64.89 42.7013 64.6579C42.4692 64.4258 42.1574 64.2909 41.8293 64.2806C41.7594 64.4205 41.6895 64.5347 41.6452 64.6512C41.3679 65.2758 41.3213 65.7139 41.4821 65.8981Z" fill="#616161"/>
<path d="M43.1204 63.5559C43.0831 63.5885 43.0435 63.6212 43.0039 63.6561C42.9317 63.7167 42.8454 63.782 42.7522 63.7587C42.7941 63.5885 42.885 63.4347 42.9736 63.2832C43.6215 62.1879 44.0946 61.3512 45.0315 60.4726C45.0944 60.4143 45.1643 60.3537 45.2482 60.3397C45.3857 60.3187 45.5069 60.4306 45.5815 60.5448C45.6584 60.6613 45.7819 60.8827 45.761 61.0296C45.74 61.1857 45.5675 61.2789 45.451 61.3838C44.6003 62.1506 43.9921 62.8031 43.1204 63.5559Z" fill="#EEEEEE"/>
<path d="M65.4845 38.9147C65.2491 38.7073 64.832 38.3274 64.832 38.3274C64.5966 38.12 64.2889 38.0174 63.9673 38.0361C63.6457 38.0571 63.3544 38.1969 63.1516 38.4253C62.2217 39.3342 61.2895 40.2431 60.3596 41.1521C59.0918 42.3919 56.0177 45.4054 55.8126 45.6617C55.6075 45.9204 55.7451 46.0649 55.7684 46.0906C56.076 46.4285 56.6283 46.4751 57.0315 46.256C57.4324 46.037 57.6864 45.6011 57.761 45.149C57.8099 44.8554 57.8286 44.7085 58.0453 44.5174C58.1246 44.4475 62.541 40.3247 63.2169 39.5556C63.3287 39.4274 63.6643 39.1594 64.0326 39.4414C64.0908 39.4857 65.368 40.5624 65.368 40.5624L66.1814 39.6395L66.179 39.5859C66.1744 39.523 66.1744 39.523 65.4845 38.9147Z" fill="#BDBDBD"/>
<path d="M57.451 49.9197L55.6704 48.1392C48.413 55.4921 45.861 58.3144 45.2341 59.1232C45.1246 59.2653 45.1362 59.4657 45.2644 59.5939L47.7977 62.0364C47.9259 62.1645 48.1264 62.1762 48.2685 62.0667C49.0772 61.4397 51.9042 58.9833 59.2548 51.7259C59.2315 51.7003 57.451 49.9197 57.451 49.9197Z" fill="#1565C0"/>
<path d="M64.7948 39.5416C64.6503 39.3179 64.2983 39.001 64.056 38.8914C63.7786 38.7679 63.5735 38.8891 63.3964 39.0452C63.0841 39.3202 61.0076 41.476 60.5531 42.0424C60.5018 42.1076 60.4482 42.1799 60.4482 42.2614C61.6345 41.1358 62.8417 40.0241 63.2263 39.6908C63.5199 39.4368 63.8043 39.2107 64.035 39.4414C64.0583 39.4647 64.2191 39.5929 64.5104 39.8376L64.7948 39.5416Z" fill="#757575"/>
<path d="M69.0363 41.0634C69.323 40.6509 68.9198 39.7443 68.2742 39.1197C67.6263 38.4951 66.743 38.0616 66.3305 38.3576C65.9204 38.6536 60.8723 42.1728 55.0459 48.2789C54.8851 48.463 54.8851 48.7403 55.0459 48.9035L58.5138 52.3714C58.6746 52.5322 58.9543 52.5555 59.1384 52.3714C65.2212 46.5216 68.752 41.4759 69.0363 41.0634Z" fill="#1565C0"/>
<path d="M47.1872 59.0182C46.9285 59.221 46.1618 59.5846 46.7514 58.6617C46.8912 58.4449 47.3643 57.8599 47.5648 57.6245C48.3362 56.711 52.7549 52.2433 53.5404 51.4182C54.1789 50.747 54.7429 50.5839 54.927 51.05C55.0529 51.3716 54.7919 51.7445 53.4308 53.1941C52.2982 54.3967 48.5273 57.9578 47.1872 59.0182ZM59.8585 46.6452C59.8585 46.6452 59.0405 47.6334 58.4462 47.1323C57.9754 46.7338 59.0661 45.7899 59.0661 45.7899C59.0941 45.7596 62.8347 42.2451 63.9464 41.3525C64.4032 40.9843 64.9858 40.5741 65.1466 40.7162C65.3074 40.8584 65.0417 41.3105 64.3402 42.0074C63.6364 42.7042 59.8842 46.6173 59.8585 46.6452Z" fill="#2196F3"/>
<path d="M57.2018 44.6759C57.02 44.7947 57.0923 45.3378 56.9804 45.6151C56.8895 45.8365 56.8918 45.953 57.0783 45.8971C57.2764 45.8365 57.4978 45.5382 57.4978 45.0744C57.4955 44.8483 57.3906 44.55 57.2018 44.6759Z" fill="#EEEEEE"/>
<path d="M64.5943 39.6465L64.3845 39.8096C64.8739 40.1103 65.4915 40.5741 66.1278 41.2103C66.4098 41.4923 66.799 41.9421 66.9342 42.2148C67.06 42.4735 67.1066 42.8697 66.9994 43.2402C66.8829 43.6434 66.6988 43.8252 66.6242 44.2354C66.9948 43.7763 67.7429 42.8184 67.7429 42.8184C67.7429 42.8184 67.4189 41.9864 66.3119 40.877C65.2049 39.7677 64.5943 39.6465 64.5943 39.6465Z" fill="#0D47A1"/>
<path d="M68.2743 39.1197C67.7732 38.6373 67.1323 38.2691 66.6778 38.2621C66.6778 38.2621 67.4959 38.7002 67.9666 39.3132C68.4654 39.9611 68.7893 40.5507 68.5656 40.9213C68.1927 41.4573 64.8879 46.1487 59.0615 51.7957C59.0378 51.8189 59.0093 51.8366 58.9779 51.8474C58.9466 51.8583 58.9132 51.8621 58.8802 51.8585C58.8473 51.8549 58.8155 51.8441 58.7872 51.8268C58.7589 51.8095 58.7348 51.7862 58.7166 51.7584C58.3856 51.248 57.9428 50.7097 57.281 50.0501C56.3347 49.1039 55.7241 48.6774 55.0133 48.3185C55.0133 48.3185 54.8502 48.4047 54.8082 48.6914C54.7802 48.8755 54.7966 49.0247 54.7966 49.0247L54.997 48.8406C55.554 49.1529 56.2322 49.6563 56.9547 50.3811C57.2646 50.691 57.5443 51.0033 57.7867 51.304C57.8193 51.3646 58.0617 51.8773 57.5653 52.672C57.5653 52.672 57.4907 52.7676 57.3788 52.9167C51.5454 58.6383 48.8326 61.0784 48.2989 61.442C47.7396 61.8218 47.4436 61.6937 47.4436 61.6937C47.5135 61.7636 47.6673 61.936 47.8398 62.0712C48.0146 62.2087 48.2034 62.1155 48.2663 62.0642C48.9422 61.5399 51.0257 59.7406 55.9735 54.9373C55.9805 54.9303 55.9875 54.9257 55.9921 54.9187C56.7193 54.2125 57.5093 53.4411 58.3647 52.5998C58.3693 52.5998 58.5162 52.6161 58.6979 52.5881C58.9823 52.5462 59.0895 52.4133 59.0895 52.4133V52.411C59.1058 52.3993 59.1221 52.3854 59.1384 52.3714C65.2212 46.5216 68.7497 41.4759 69.0364 41.0634C69.323 40.6509 68.9222 39.7443 68.2743 39.1197Z" fill="#0D47A1"/>
<path d="M58.3088 49.027C57.5933 48.3115 56.7613 47.6566 56.0179 47.2767C56.0179 47.2767 55.8338 47.2651 55.6613 47.4562C55.5308 47.6007 55.5005 47.8058 55.5005 47.8058C56.0645 48.0552 56.8895 48.5889 57.8194 49.5164C58.5186 50.2156 59.0872 50.9521 59.4205 51.5953C59.4881 51.7258 59.5394 51.84 59.579 51.9449C59.579 51.9449 59.7841 51.9472 59.9565 51.7981C60.15 51.6279 60.1104 51.4228 60.1104 51.4228C59.7421 50.6514 59.0593 49.7775 58.3088 49.027Z" fill="#FFC107"/>
<path d="M67.1813 40.1569C66.6989 39.6745 66.1628 39.2223 65.6384 38.8611C65.6384 38.8611 65.2795 38.7236 64.9509 39.0266C64.6223 39.3295 64.5967 39.6488 64.5967 39.6488C65.0861 39.9495 65.6711 40.3969 66.3073 41.0332C66.9016 41.6275 67.4004 42.2521 67.743 42.8207C67.743 42.8207 68.1065 42.7928 68.3629 42.4875C68.6193 42.1822 68.5284 41.7766 68.5284 41.7766C68.1601 41.2243 67.687 40.6626 67.1813 40.1569Z" fill="#BDBDBD"/>
</svg>
