<svg width="71" height="48" viewBox="0 0 71 48" fill="none" xmlns="http://www.w3.org/2000/svg">
<g clip-path="url(#clip0_613_4037)">
<path d="M65.0492 8.47426C64.0661 7.86896 62.9446 7.52331 61.7904 7.46993C60.6362 7.41655 59.4874 7.65721 58.4524 8.16918L49.7474 12.5081C49.1866 12.7899 48.7151 13.2208 48.385 13.7534C48.0549 14.2858 47.8791 14.8991 47.8772 15.5251V33.2878C47.8791 33.9139 48.0549 34.527 48.385 35.0596C48.7151 35.5921 49.1866 36.0231 49.7474 36.3047L58.4524 40.6438C59.3925 41.1108 60.4284 41.3545 61.4788 41.3556C63.2824 41.3556 65.0122 40.6413 66.2876 39.3699C67.563 38.0985 68.2795 36.3741 68.2795 34.5759V14.2369C68.2782 13.0816 67.9808 11.9457 67.4154 10.9372C66.85 9.92866 66.0355 9.08085 65.0492 8.47426Z" fill="#00B6CD"/>
<path d="M47.8776 0.677734H7.07298C3.31703 0.677734 0.272217 3.71309 0.272217 7.45739V41.3557C0.272217 45.1 3.31703 48.1353 7.07298 48.1353H47.8776C51.6335 48.1353 54.6784 45.1 54.6784 41.3557V7.45739C54.6784 3.71309 51.6335 0.677734 47.8776 0.677734Z" fill="url(#paint0_linear_613_4037)"/>
<path d="M24.075 32.881C23.5426 32.8778 23.0185 32.7501 22.5448 32.5082C21.984 32.2265 21.5124 31.7955 21.1823 31.2629C20.8522 30.7305 20.6764 30.1172 20.6746 29.4912V19.3217C20.6746 18.6922 20.8504 18.0751 21.1824 17.5396C21.5144 17.0041 21.9894 16.5713 22.5543 16.2898C23.1191 16.0082 23.7514 15.8891 24.3804 15.9456C25.0092 16.0021 25.61 16.2322 26.1152 16.6098L32.9159 21.6946C33.3383 22.0104 33.681 22.4198 33.9171 22.8905C34.1532 23.3612 34.2761 23.8802 34.2761 24.4065C34.2761 24.9327 34.1532 25.4518 33.9171 25.9225C33.681 26.3931 33.3383 26.8026 32.9159 27.1183L26.1152 32.2031C25.5266 32.6431 24.8107 32.881 24.075 32.881Z" fill="white"/>
</g>
<defs>
<linearGradient id="paint0_linear_613_4037" x1="27.4753" y1="0.677734" x2="27.4753" y2="48.1353" gradientUnits="userSpaceOnUse">
<stop stop-color="#567DD5"/>
<stop offset="1" stop-color="#082567"/>
</linearGradient>
<clipPath id="clip0_613_4037">
<rect width="71" height="48" fill="white"/>
</clipPath>
</defs>
</svg>
