<svg width="46" height="32" viewBox="0 0 46 32" fill="none" xmlns="http://www.w3.org/2000/svg">
<path d="M11.0271 8.44145C9.61547 8.38415 8.20328 8.3262 6.7916 8.2689C6.11755 8.24159 5.66889 7.60737 5.77869 6.85323C6.00933 5.27433 6.20581 3.69877 6.36815 2.12721C6.44591 1.3764 7.04851 0.791476 7.72466 0.81879C9.14054 0.876083 10.5564 0.933377 11.9718 0.990004C12.6479 1.01732 13.1402 1.64688 13.0603 2.39768C12.8938 3.96991 12.6931 5.54614 12.4588 7.12504C12.3469 7.87917 11.7012 8.46876 11.0271 8.44078V8.44145ZM23.2115 7.5634C23.4522 5.98384 23.6586 4.40694 23.8315 2.83404C23.914 2.08324 23.4243 1.45301 22.7487 1.4257C21.3333 1.3684 19.9175 1.31111 18.5021 1.25382C17.826 1.2265 17.2213 1.81209 17.1404 2.5629C16.9712 4.13513 16.7684 5.71203 16.532 7.29092C16.419 8.04506 16.8651 8.67928 17.5396 8.7066C18.9513 8.76389 20.363 8.82185 21.7747 8.87914C22.4487 8.90646 23.097 8.31687 23.2115 7.56273V7.5634ZM33.9622 8.00109C34.2091 6.42087 34.4219 4.84397 34.6011 3.26974C34.6867 2.51827 34.1997 1.88804 33.5241 1.86073C32.1087 1.80343 30.6934 1.74614 29.278 1.68885C28.6019 1.66153 27.9951 2.24712 27.911 2.9986C27.736 4.57216 27.5269 6.14906 27.2837 7.72862C27.1676 8.48275 27.6115 9.11764 28.2856 9.14495C29.6973 9.20225 31.1084 9.26021 32.5201 9.3175C33.1936 9.34481 33.8445 8.75523 33.9622 8.00042V8.00109ZM44.7113 8.43945C44.9645 6.85922 45.1836 5.281 45.3691 3.70677C45.4579 2.95529 44.9729 2.3244 44.2973 2.29709C42.8825 2.23979 41.4671 2.1825 40.0518 2.12521C39.3756 2.09789 38.7667 2.68415 38.6795 3.43562C38.4983 5.00985 38.2829 6.58741 38.0333 8.16764C37.9146 8.92178 38.3554 9.55667 39.0294 9.58398C40.4406 9.64127 41.8517 9.69923 43.2629 9.75653C43.9364 9.78384 44.5894 9.19425 44.7103 8.43945H44.7113ZM8.6945 19.2632C7.28755 19.2059 5.88061 19.1479 4.47367 19.0907C3.80172 19.0633 3.40769 18.4291 3.58211 17.675C3.9483 16.0961 4.28033 14.5205 4.57822 12.949C4.72059 12.1981 5.3731 11.6132 6.04715 11.6405C7.4583 11.6978 8.86892 11.7551 10.2795 11.8118C10.9531 11.8391 11.3912 12.4686 11.2467 13.2194C10.9452 14.7917 10.6089 16.3679 10.2386 17.9468C10.062 18.7009 9.3654 19.2905 8.69345 19.2625L8.6945 19.2632ZM20.9546 18.3851C21.3312 16.8056 21.6733 15.2287 21.9817 13.6558C22.1288 12.905 21.6932 12.2748 21.0197 12.2474C19.6091 12.1902 18.1985 12.1329 16.7878 12.0756C16.1138 12.0483 15.4592 12.6338 15.3136 13.3847C15.0095 14.9569 14.6711 16.5338 14.2986 18.1127C14.1211 18.8668 14.5125 19.501 15.1844 19.5283C16.5914 19.5856 17.9978 19.6436 19.4047 19.7009C20.0761 19.7282 20.7754 19.1386 20.9551 18.3845L20.9546 18.3851ZM31.6679 18.8228C32.0509 17.2426 32.3992 15.6657 32.7139 14.0915C32.8642 13.34 32.4313 12.7098 31.7578 12.6825C30.3477 12.6252 28.937 12.5679 27.5264 12.5106C26.8529 12.4833 26.1951 13.0689 26.047 13.8203C25.7365 15.3939 25.3918 16.9708 25.013 18.5504C24.8323 19.3045 25.2211 19.9394 25.893 19.9667C27.2995 20.024 28.7059 20.082 30.1123 20.1392C30.7837 20.1666 31.4851 19.577 31.6679 18.8222V18.8228ZM42.3792 19.2612C42.7685 17.681 43.1231 16.1027 43.4441 14.5285C43.5975 13.777 43.1672 13.1461 42.4937 13.1188C41.0836 13.0615 39.6735 13.0043 38.2634 12.947C37.5899 12.9196 36.93 13.5059 36.7787 14.2574C36.4619 15.8316 36.111 17.4092 35.7254 18.9894C35.5415 19.7435 35.9282 20.3784 36.5996 20.4057C38.006 20.463 39.4119 20.521 40.8183 20.5783C41.4897 20.6056 42.1932 20.016 42.3792 19.2612ZM5.58325 29.9104C4.18104 29.8531 2.77882 29.7952 1.37661 29.7379C0.706758 29.7105 0.365267 29.0763 0.601684 28.3222C1.09816 26.7433 1.55996 25.1677 1.98761 23.5962C2.19198 22.8454 2.89283 22.2604 3.56425 22.2877C4.97067 22.345 6.37656 22.4023 7.78245 22.459C8.45388 22.4863 8.84002 23.1158 8.63408 23.8666C8.20275 25.4389 7.73675 27.0151 7.23659 28.594C6.99755 29.3481 6.25257 29.9377 5.58325 29.9097V29.9104ZM17.9153 29.0324C18.4217 27.4528 18.8941 25.8759 19.3322 24.303C19.5413 23.5522 19.1578 22.922 18.4864 22.8947C17.0805 22.8374 15.6746 22.7801 14.2687 22.7228C13.5973 22.6955 12.8938 23.281 12.6868 24.0319C12.2528 25.6041 11.7847 27.181 11.2819 28.7599C11.0424 29.514 11.3812 30.1482 12.0511 30.1756C13.4533 30.2328 14.855 30.2908 16.2572 30.3481C16.9265 30.3754 17.6741 29.7858 17.9158 29.0317L17.9153 29.0324ZM28.5924 29.47C29.1052 27.8898 29.5843 26.3129 30.0282 24.7387C30.2405 23.9872 29.8596 23.357 29.1882 23.3297C27.7823 23.2724 26.3769 23.2151 24.971 23.1578C24.2996 23.1305 23.594 23.7161 23.3839 24.4676C22.9436 26.0411 22.4692 27.618 21.9601 29.1976C21.7174 29.9517 22.0542 30.5866 22.7235 30.6139C24.1252 30.6712 25.5269 30.7292 26.9285 30.7865C27.5979 30.8138 28.3476 30.2242 28.5924 29.4694V29.47ZM39.2679 29.9084C39.7875 28.3282 40.2724 26.75 40.7227 25.1757C40.9381 24.4242 40.5593 23.7934 39.8884 23.766C38.483 23.7087 37.0777 23.6515 35.6723 23.5942C35.0009 23.5668 34.2927 24.1531 34.0794 24.9046C33.6328 26.4788 33.1516 28.0564 32.6362 29.6366C32.3903 30.3907 32.7244 31.0256 33.3938 31.0529C34.7955 31.1102 36.1966 31.1682 37.5983 31.2255C38.2671 31.2528 39.0194 30.6632 39.2674 29.9084H39.2679Z" fill="url(#paint0_linear_678_939)"/>
<defs>
<linearGradient id="paint0_linear_678_939" x1="21.6223" y1="-0.431001" x2="20.4866" y2="32.2025" gradientUnits="userSpaceOnUse">
<stop offset="0.05" stop-color="#BED8D9"/>
<stop offset="0.09" stop-color="#B0C7CA"/>
<stop offset="0.13" stop-color="#A8BEC0"/>
<stop offset="0.18" stop-color="#A6BBBE"/>
<stop offset="0.21" stop-color="#A2B7BA"/>
<stop offset="0.25" stop-color="#99ACAF"/>
<stop offset="0.28" stop-color="#88999C"/>
<stop offset="0.3" stop-color="#728083"/>
<stop offset="0.31" stop-color="#717F82"/>
<stop offset="0.39" stop-color="#BED8D9"/>
<stop offset="0.42" stop-color="#B2CACC"/>
<stop offset="0.46" stop-color="#A9BEC1"/>
<stop offset="0.51" stop-color="#A6BBBE"/>
<stop offset="0.55" stop-color="#A3B8BB"/>
<stop offset="0.58" stop-color="#9CB0B3"/>
<stop offset="0.6" stop-color="#8FA1A4"/>
<stop offset="0.62" stop-color="#7D8D90"/>
<stop offset="0.63" stop-color="#717F82"/>
<stop offset="0.72" stop-color="#BED8D9"/>
<stop offset="0.74" stop-color="#B6CFD0"/>
<stop offset="0.8" stop-color="#AAC0C2"/>
<stop offset="0.84" stop-color="#A6BBBE"/>
<stop offset="0.89" stop-color="#A4B8BB"/>
<stop offset="0.91" stop-color="#9DB1B4"/>
<stop offset="0.93" stop-color="#91A3A6"/>
<stop offset="0.94" stop-color="#819194"/>
<stop offset="0.95" stop-color="#717F82"/>
</linearGradient>
</defs>
</svg>
