<svg width="51" height="103" viewBox="0 0 51 103" fill="none" xmlns="http://www.w3.org/2000/svg">
<path fill-rule="evenodd" clip-rule="evenodd" d="M2.23643 34.7329C1.40158 35.1292 0.755248 36.1641 0.389762 36.7527C-1.91472 40.4422 6.69921 49.5909 13.0779 51.0451C13.328 51.1028 14.1513 49.1138 14.1513 49.1138C11.5929 44.878 6.99544 36.3218 2.24027 34.7329H2.23643Z" fill="#FAD3D2"/>
<path fill-rule="evenodd" clip-rule="evenodd" d="M13.5547 50.3948C13.8471 49.8331 14.1471 49.1098 14.1471 49.1098C11.9696 45.505 8.31475 38.7723 4.34442 35.8677L3.52881 35.7253C3.52881 35.7253 5.63324 38.2145 7.22214 40.3612C8.81104 42.508 13.3238 49.0944 13.3238 49.0944L13.5547 50.3948Z" fill="#F2C0BF"/>
<path fill-rule="evenodd" clip-rule="evenodd" d="M12.5041 49.0867C12.935 49.0867 14.1468 49.1098 14.1468 49.1098C14.1468 49.1098 15.9589 48.5596 17.1592 49.3753C18.3595 50.1909 17.7594 52.7223 17.3746 53.3687C15.6203 56.2926 12.3617 54.192 12.2463 53.6918C12.1193 53.134 12.8272 52.2761 12.8272 52.2761C12.8272 52.2761 12.2963 52.3992 11.8193 51.4604C11.3422 50.5217 12.5079 49.0906 12.5079 49.0906L12.5041 49.0867Z" fill="#FAD3D2"/>
<path fill-rule="evenodd" clip-rule="evenodd" d="M23.2576 6.60193C23.6885 6.77505 24.5887 7.86766 24.5887 8.01771C24.5887 8.16775 23.8808 11.2378 23.8808 11.2378L21.9688 8.33317L23.2576 6.60193Z" fill="#131F29"/>
<path fill-rule="evenodd" clip-rule="evenodd" d="M26.5086 26.5342C27.0241 25.8456 28.0552 24.5606 28.4822 24.5183C28.9131 24.476 32.3448 23.6604 36.5075 26.9651C40.6702 30.2699 42.5168 33.2323 42.5168 33.2323C42.5168 33.2323 41.9167 34.2595 36.9384 35.379C31.9601 36.4947 28.7823 34.6903 28.7823 34.4364C28.7823 34.1825 26.3778 25.8956 26.5086 26.5381V26.5342Z" fill="#FAD3D2"/>
<path fill-rule="evenodd" clip-rule="evenodd" d="M40.6816 33.9247C39.739 33.1514 37.8 31.0431 38.4002 28.5309C39.0004 26.0187 40.1161 17.8625 40.1161 17.8625C40.1161 17.8625 43.2054 20.9519 44.6673 24.4721C46.1562 28.0577 44.3288 35.3828 40.6816 33.9247Z" fill="#FAD3D2"/>
<path fill-rule="evenodd" clip-rule="evenodd" d="M40.8314 33.9478C39.8889 33.1745 38.3423 30.4507 38.4 28.5309C38.4 28.5309 40.8353 37.4719 43.8823 31.6472C44.8518 29.7928 43.0282 21.6406 43.0359 21.6444L43.1744 21.6944C43.7322 22.5485 44.2632 23.4949 44.6671 24.4721C46.156 28.0577 44.4786 35.4059 40.8314 33.9478Z" fill="#F2C0BF"/>
<path fill-rule="evenodd" clip-rule="evenodd" d="M9.5966 66.8839L9.11954 72.9894C9.11954 72.9894 5.99175 81.6919 5.90326 82.292C5.81862 82.8922 3.67188 100.235 3.67188 100.235L6.29184 100.32C6.29184 100.32 12.1742 84.6542 12.2589 84.1387C12.3435 83.6232 15.1327 75.4055 15.1327 75.4055L16.1253 71.262L9.60044 66.8839H9.5966Z" fill="#FAD3D2"/>
<path fill-rule="evenodd" clip-rule="evenodd" d="M22.3693 72.6586C21.8961 73.4319 21.3614 74.8246 21.3614 74.8246C21.3614 74.8246 21.2536 77.3368 21.169 77.7677C20.5304 80.957 19.2262 83.7616 20.5688 99.5314C21.0844 99.4891 24.216 99.6584 24.216 99.6584C24.216 99.6584 25.8472 85.0197 26.0203 81.9727C26.1935 78.9257 26.859 77.7869 26.859 77.7869C26.859 77.7869 28.3825 76.2173 27.9747 75.5979C27.4015 74.7207 23.7274 72.8394 22.3732 72.6586H22.3693Z" fill="#FAD3D2"/>
<path fill-rule="evenodd" clip-rule="evenodd" d="M19.8143 46.8361C18.2677 47.694 13.9934 50.7256 13.9934 50.7256C13.3278 52.9608 6.87605 74.1282 7.70705 74.1282C8.53805 74.1282 15.8516 75.1247 16.9904 75.5979C18.1292 76.0711 19.9027 62.9328 21.1031 63.2329C22.3034 63.533 19.9874 73.5358 20.4067 76.2211C20.7914 76.9713 29.4054 77.3022 29.4054 76.702C29.4054 68.3997 31.2328 60.3744 29.9017 51.3142L19.8181 46.8361H19.8143Z" fill="#131F29"/>
<path fill-rule="evenodd" clip-rule="evenodd" d="M13.0009 54.0226C11.035 60.586 7.03772 74.1282 7.70329 74.1282C8.56122 74.1282 15.8478 75.1247 16.9866 75.5979C18.1254 76.0711 19.899 62.9328 21.0993 63.2329C22.2996 63.533 19.9836 73.5357 20.403 76.2211C20.7838 76.9598 29.1246 77.2906 29.3939 76.7289C27.5819 75.8479 21.761 75.694 21.534 75.6171C21.4802 75.5979 23.4038 59.3164 21.1916 58.4469C19.9913 57.9737 16.7289 74.2436 16.7289 74.2436C16.7289 74.2436 10.0232 73.4126 9.12291 72.9856C8.22266 72.5547 12.9932 54.0573 13.0048 54.0188L13.0009 54.0226Z" fill="#0F1618"/>
<path fill-rule="evenodd" clip-rule="evenodd" d="M18.657 22.0253C17.8414 22.5408 16.4256 23.0986 15.3522 22.9717C14.2789 22.8409 10.6317 23.5719 9.34288 24.3875C8.05406 25.2031 7.15381 28.7656 7.15381 28.7656C7.15381 28.7656 7.28077 31.2124 11.7474 37.0487C16.2102 42.8849 14.9252 48.2941 14.4097 49.5829C13.8941 50.8717 13.6364 51.5565 14.4943 51.5565C15.3522 51.5565 29.8601 52.6722 29.8601 51.9874C29.8601 51.3026 30.9758 38.2528 31.3182 37.3064C31.6606 36.3639 32.4339 33.4438 31.8337 30.0082C31.2336 26.5727 28.4866 24.5144 28.4866 24.5144L18.657 22.0253Z" fill="#063CB6"/>
<path fill-rule="evenodd" clip-rule="evenodd" d="M8.78467 32.6859C9.45793 33.8516 10.4043 35.2982 11.747 37.0525C16.2098 42.8887 14.9248 48.2979 14.4093 49.5868C13.8938 50.8756 13.636 51.5604 14.4939 51.5604C15.1557 51.5604 23.9196 52.2221 27.9092 52.2144C29.1018 52.0798 29.8636 51.9913 29.8636 51.9913C29.8636 51.9913 26.9782 52.2067 23.9773 51.4834C20.9765 50.7602 18.3527 49.7676 18.4412 48.7365C18.5258 47.7055 19.8185 46.8398 20.6726 45.6472C21.5267 44.4546 20.5879 44.7469 18.8682 43.4158C17.1524 42.0847 17.1524 40.6266 17.4101 39.8533C17.6679 39.08 23.0348 37.6219 23.8042 37.3641C24.5775 37.1064 29.2557 39.2108 30.4137 38.653C30.7138 38.5068 30.9677 38.2913 31.1793 38.0528C31.2332 37.6796 31.2832 37.4218 31.3217 37.3141C31.3832 37.1487 31.4563 36.9179 31.5333 36.6332C30.5946 36.9256 28.5748 37.4603 27.3244 37.1064C25.6509 36.6332 23.0732 35.0904 23.0732 35.0904C23.0732 35.0904 18.0949 37.5373 16.8061 37.2795C15.5173 37.0217 13.0282 36.5908 12.9435 34.6595C12.8589 32.7282 14.5363 28.8118 14.5363 28.8118L10.1543 31.5664C10.1543 31.5664 9.52333 32.0511 8.78467 32.6859Z" fill="#082567"/>
<path fill-rule="evenodd" clip-rule="evenodd" d="M14.5323 28.808C13.5897 26.4035 12.0586 23.8335 9.77715 24.1529C7.49575 24.4722 5.30668 26.8344 4.14482 28.8503C2.98681 30.8663 2.29815 33.1015 2.29815 33.1015C2.29815 33.1015 1.14399 36.7564 1.44023 36.5794C1.65952 36.4486 2.4482 39.207 5.20281 38.7608C7.50344 38.3876 13.9052 32.0435 14.5362 28.8118L14.5323 28.808Z" fill="#FAD3D2"/>
<path fill-rule="evenodd" clip-rule="evenodd" d="M22.1768 17.9049C22.2615 18.7205 23.5734 23.2718 23.5734 23.2718L26.3203 24.4106C26.3203 24.4106 25.8702 26.4496 23.1656 26.5766C19.8223 26.7343 15.3095 22.9679 15.3519 22.9717C15.8058 22.9871 17.4563 22.9717 17.0677 19.5823C16.683 16.1929 17.2408 18.382 17.2408 18.382L22.1768 17.9088V17.9049Z" fill="#F2C4C3"/>
<path fill-rule="evenodd" clip-rule="evenodd" d="M23.4961 7.79448C23.4692 8.51391 23.6846 10.1259 23.6846 10.1259C25.6621 12.9882 27.2241 18.1281 26.1353 18.9553C22.3227 21.8561 15.5439 20.0863 14.7629 19.1207C14.0012 18.182 11.6351 8.05609 11.8198 7.96376C16.9135 5.4169 18.487 6.12479 23.4961 7.79063V7.79448Z" fill="#FAD3D2"/>
<path fill-rule="evenodd" clip-rule="evenodd" d="M13.9936 12.4496L14.7592 14.5771L15.1978 14.427L14.3283 10.0489L13.7705 8.29071C13.7705 8.29071 21.1802 8.77162 22.2267 8.2484C23.2731 7.72518 26.5394 5.37068 26.3893 5.41684C26.2393 5.45916 25.1236 5.63229 25.2506 5.45916C25.3775 5.28604 25.8315 3.03541 24.7774 1.70428C23.7271 0.373138 23.0807 -0.119305 23.1885 0.0307362C23.2962 0.180778 23.3385 3.03541 23.3154 2.84305C23.2923 2.65069 22.2228 1.57732 22.2228 1.57732C22.2228 1.57732 21.7304 3.59326 21.4918 3.68175C21.2572 3.76639 12.6702 4.7128 12.6702 4.7128L11.1659 6.81723L9.38463 7.05191C9.38463 7.05191 9.21151 12.3957 9.60007 12.6111C9.9848 12.8266 14.0321 17.5202 14.0667 17.3932C14.0667 17.3932 12.901 13.8269 13.0472 13.2652C13.3088 12.2726 13.7166 11.707 13.9859 12.4534L13.9936 12.4496Z" fill="#131F29"/>
<path fill-rule="evenodd" clip-rule="evenodd" d="M11.0003 12.0917C10.7233 12.9073 12.5007 15.0425 12.997 15.3657C13.4933 15.6888 14.4128 14.5616 14.4898 14.3077C14.5667 14.0499 13.9127 12.3033 13.601 11.7339C13.1855 10.976 11.3004 11.2145 11.0003 12.0955V12.0917Z" fill="#FAD3D2"/>
<path fill-rule="evenodd" clip-rule="evenodd" d="M12.847 11.9108C12.6008 11.857 11.9545 11.8031 11.7621 12.1263C11.5698 12.4494 12.5662 14.6693 13.0625 14.7655C13.5549 14.8616 13.9974 14.5616 13.955 14.1768C13.9127 13.7921 13.3664 13.9422 13.3318 13.5113C13.301 13.0804 13.6973 13.1573 13.5895 12.738C13.4818 12.3186 12.8509 11.9108 12.8509 11.9108H12.847Z" fill="#D3A8A8"/>
<path fill-rule="evenodd" clip-rule="evenodd" d="M24.2736 16.1007C24.3044 16.1007 24.3313 16.1238 24.3313 16.1546C24.3313 16.1854 24.3083 16.2123 24.2813 16.2123C24.2044 16.2161 23.9697 16.2508 23.6504 16.2969C22.654 16.4393 20.6842 16.8625 19.8378 16.7817C18.699 16.6701 18.0296 15.4467 18.0296 15.4428C18.0104 15.4198 18.0142 15.3851 18.0411 15.3659C18.0681 15.3467 18.0988 15.3505 18.1181 15.3774C18.1181 15.3774 18.8875 16.397 19.9763 16.5047C20.8111 16.5855 22.6424 16.3277 23.635 16.1854C23.9582 16.1392 24.1928 16.1046 24.2775 16.1007H24.2736Z" fill="#905750"/>
<path fill-rule="evenodd" clip-rule="evenodd" d="M17.6328 11.2339C18.0175 11.2339 18.356 11.6148 18.3907 12.0841C18.4253 12.5535 18.1406 12.9344 17.7559 12.9344C17.3711 12.9344 17.0326 12.5535 16.998 12.0841C16.9633 11.6148 17.248 11.2339 17.6328 11.2339Z" fill="#131F29"/>
<path fill-rule="evenodd" clip-rule="evenodd" d="M22.7457 10.7107C23.1073 10.7107 23.442 11.0685 23.492 11.5109C23.542 11.9533 23.2881 12.3111 22.9265 12.3111C22.5648 12.3111 22.2301 11.9533 22.1801 11.5109C22.1301 11.0685 22.384 10.7107 22.7457 10.7107Z" fill="#131F29"/>
<path fill-rule="evenodd" clip-rule="evenodd" d="M23.9309 13.7575C23.9693 15.3426 21.0185 15.7389 20.4645 14.123C20.1952 13.3382 20.1452 11.3915 20.176 11.4723C20.4645 12.2725 23.927 13.5844 23.9309 13.7575Z" fill="#EEB9B7"/>
<path fill-rule="evenodd" clip-rule="evenodd" d="M18.9407 10.4836C18.683 10.4952 17.2326 10.549 16.6978 10.6568C16.163 10.7645 15.5398 10.8491 15.5821 10.776C16.3169 9.4872 19.2908 9.15634 19.0792 10.2836C19.0485 10.4567 18.9407 10.4875 18.9407 10.4875V10.4836Z" fill="#131F29"/>
<path fill-rule="evenodd" clip-rule="evenodd" d="M21.2571 10.3375C21.4687 10.3068 22.6459 10.1336 23.0845 10.1529C23.5231 10.176 24.0271 10.1644 23.9924 10.0952C23.3923 8.92176 20.9685 9.06411 21.1416 10.1529C21.1686 10.3183 21.2571 10.3337 21.2571 10.3337V10.3375Z" fill="#131F29"/>
<path fill-rule="evenodd" clip-rule="evenodd" d="M17.8525 11.4763C17.9948 11.4763 18.1256 11.6417 18.1487 11.8456C18.1718 12.0496 18.0718 12.215 17.9294 12.215C17.7871 12.215 17.6563 12.0496 17.6332 11.8456C17.6101 11.6417 17.7101 11.4763 17.8525 11.4763Z" fill="#BBC2ED"/>
<path fill-rule="evenodd" clip-rule="evenodd" d="M22.9458 10.9185C23.0881 10.9185 23.2189 11.0839 23.242 11.2878C23.2651 11.4917 23.165 11.6571 23.0227 11.6571C22.8804 11.6571 22.7495 11.4917 22.7265 11.2878C22.7034 11.0839 22.8034 10.9185 22.9458 10.9185Z" fill="#BBC2ED"/>
<path fill-rule="evenodd" clip-rule="evenodd" d="M22.7234 16.8855C22.454 16.9163 20.3612 17.3356 20.4381 17.3356C20.515 17.3356 21.4268 17.4549 22.0155 17.4049C22.6041 17.3549 23.562 16.7124 23.4851 16.7355C23.4082 16.7586 22.7234 16.8855 22.7234 16.8855Z" fill="#F6BBB6"/>
<path fill-rule="evenodd" clip-rule="evenodd" d="M32.1641 10.549C30.2713 10.8453 28.7939 13.4806 28.7939 16.6815C28.7939 19.8824 30.2751 22.5177 32.1641 22.814L34.5532 22.8371L35.0572 21.1981C35.792 20.0709 36.2499 18.4666 36.2499 16.6815C36.2499 14.8964 35.792 13.2883 35.0572 12.1649V10.7529C34.9572 10.4144 32.9874 10.4067 32.1641 10.549Z" fill="#4D4D4D"/>
<path fill-rule="evenodd" clip-rule="evenodd" d="M34.4032 22.8447C36.4577 22.8447 38.1312 20.0747 38.1312 16.6814C38.1312 13.2882 36.4577 10.5182 34.4032 10.5182C32.3488 10.5182 30.6753 13.2882 30.6753 16.6814C30.6753 20.0747 32.3488 22.8447 34.4032 22.8447Z" fill="#404040"/>
<path fill-rule="evenodd" clip-rule="evenodd" d="M34.6109 10.5222C32.7181 10.8184 31.2407 13.4538 31.2407 16.6547C31.2407 19.8555 32.7219 22.4909 34.6109 22.7871L37 22.8102L37.504 21.1713C38.2388 20.0441 38.6966 18.4398 38.6966 16.6547C38.6966 14.8695 38.2388 13.2614 37.504 12.138V10.7261C37.404 10.3875 35.4342 10.3798 34.6109 10.5222Z" fill="#4D4D4D"/>
<path d="M36.8495 22.8178C38.9084 22.8178 40.5775 20.0584 40.5775 16.6546C40.5775 13.2507 38.9084 10.4913 36.8495 10.4913C34.7906 10.4913 33.1216 13.2507 33.1216 16.6546C33.1216 20.0584 34.7906 22.8178 36.8495 22.8178Z" fill="#404040"/>
<path fill-rule="evenodd" clip-rule="evenodd" d="M36.8494 12.7113C36.8494 12.7113 36.8378 12.7113 36.834 12.7113C36.5454 12.7652 36.153 13.3615 36.0261 13.5923C35.5336 14.4926 35.3374 15.639 35.3374 16.6547C35.3374 17.6704 35.5336 18.8168 36.0261 19.7171C36.1492 19.9441 36.5416 20.5442 36.834 20.5981C36.8378 20.5981 36.8455 20.5981 36.8494 20.5981C36.8532 20.5981 36.8609 20.5981 36.8647 20.5981C37.1533 20.5442 37.5457 19.9479 37.6727 19.7171C38.1651 18.8168 38.3613 17.6704 38.3613 16.6547C38.3613 15.639 38.1651 14.4926 37.6727 13.5923C37.5496 13.3653 37.1571 12.7652 36.8647 12.7113C36.8609 12.7113 36.8532 12.7113 36.8494 12.7113Z" fill="#525252"/>
<path fill-rule="evenodd" clip-rule="evenodd" d="M41.9856 17.3625C41.9048 17.2817 41.8432 17.2163 41.8047 17.1663C41.497 16.7546 40.7775 16.2929 40.5736 15.8313C40.3697 15.3696 39.9581 14.4963 39.4426 14.0846C38.9309 13.673 38.6731 14.0346 38.4423 14.0077C38.2114 13.9808 37.9806 13.7269 37.619 13.7769C37.2612 13.8269 37.0303 13.9038 37.0303 13.9038C37.0303 13.9038 36.7726 13.723 36.5687 13.7769C36.3648 13.8269 36.107 13.9577 36.107 13.9577C36.107 13.9577 35.6723 13.8807 35.4645 14.0346C35.2606 14.1885 34.8836 14.5232 34.6951 15.1503C34.5066 15.7813 34.3296 16.0967 34.5297 16.5045C34.7297 16.9123 35.1337 17.424 35.1337 17.424C35.1837 17.5241 37.2958 19.1591 38.7347 18.7398C39.4656 18.5282 39.6772 19.4284 39.6772 19.4284C39.6772 19.4284 39.6965 19.59 39.7234 19.8247C40.2851 19.3861 41.2892 18.2166 41.9856 17.3663V17.3625Z" fill="#FAD3D2"/>
<path fill-rule="evenodd" clip-rule="evenodd" d="M41.7167 17.0625C41.3781 16.6777 40.7587 16.2584 40.5702 15.8352C40.3663 15.3735 39.9547 14.5002 39.4391 14.0886C38.9275 13.6769 38.6697 14.0385 38.4389 14.0116C38.208 13.9847 37.9772 13.7308 37.6156 13.7808C37.2578 13.8308 37.0269 13.9077 37.0269 13.9077C37.0269 13.9077 36.7692 13.7269 36.5653 13.7808C36.3614 13.8308 36.1036 13.9616 36.1036 13.9616C36.1036 13.9616 35.6689 13.8846 35.4611 14.0385C35.2572 14.1924 34.8802 14.5271 34.6917 15.1542C34.5032 15.7852 34.3262 16.1006 34.5262 16.5084C34.6801 16.8239 34.9571 17.201 35.0764 17.3548C35.0764 17.3548 34.8648 16.9355 34.7609 16.62C34.657 16.3046 34.7224 15.8621 34.8571 15.4851C34.9917 15.1081 35.4726 14.1386 35.7112 14.0809C35.9497 14.0231 36.0921 14.1001 36.2652 14.0039C36.4383 13.9077 36.6422 13.877 36.7461 13.9577C36.85 14.0424 36.623 14.2578 36.8807 14.1963C37.1385 14.1347 37.2347 13.9654 37.5425 13.9577C37.8502 13.9501 37.9349 13.9693 38.0503 14.1232C38.1657 14.2771 38.0003 14.481 38.2542 14.4579C38.512 14.431 38.9236 14.0847 39.2814 14.2001C39.6392 14.3155 39.9893 15.4582 40.3201 16.2661C40.6549 17.074 41.5936 17.8357 41.5936 17.8357C41.5936 17.8357 41.6628 17.5126 41.7205 17.0586L41.7167 17.0625Z" fill="#EEB9B7"/>
<path fill-rule="evenodd" clip-rule="evenodd" d="M28.8013 15.362C28.759 15.3543 28.4858 15.4158 28.6051 15.4659C28.7205 15.5159 28.6551 15.6274 28.6628 15.7159C28.6667 15.8083 28.7667 15.7582 28.8359 15.7159C28.7975 15.7352 28.7513 15.6236 28.7898 15.4697C28.8013 15.4274 28.8436 15.3697 28.8051 15.362H28.8013Z" fill="#2A3F50"/>
<path fill-rule="evenodd" clip-rule="evenodd" d="M35.2572 16.4506C35.3072 16.6853 35.8689 17.5586 35.8689 17.5625L36.0228 17.5894C36.0228 17.5894 35.4611 16.6891 35.4073 16.4583C35.3572 16.2352 36.1767 14.7001 36.1767 14.6963C35.8458 14.8348 35.2303 16.3314 35.2572 16.4506Z" fill="#EEB9B7"/>
<path fill-rule="evenodd" clip-rule="evenodd" d="M36.1113 16.5085C36.1497 16.8586 36.6268 17.7665 36.6268 17.7704L36.7422 17.8204C36.1536 16.016 35.9381 17.1587 36.973 14.8734C36.8923 14.8465 36.0843 16.3046 36.1074 16.5123L36.1113 16.5085Z" fill="#EEB9B7"/>
<path fill-rule="evenodd" clip-rule="evenodd" d="M38.2384 16.5547C38.2615 16.6278 38.2999 17.6089 38.2999 17.6127C38.6039 17.6743 38.2037 16.7548 38.4115 16.4893C38.4654 16.4201 38.6231 16.3393 38.6731 16.3085C38.727 16.2777 38.777 16.2662 38.8231 16.2739C38.8693 16.2777 38.9155 16.3008 38.9578 16.3316C39.0117 16.3739 39.0617 16.4355 39.1001 16.5047C39.2117 16.6971 39.1617 17.1241 39.1425 17.3011C39.1386 17.3396 39.1348 17.3665 39.1348 17.378C39.1348 17.6243 39.0078 17.8474 38.8193 18.0205C38.5577 18.2629 37.8152 18.5707 37.592 18.1629C37.4805 17.959 37.3766 17.6974 37.292 17.4396C37.1996 17.1626 37.1496 16.9972 37.1304 16.8202C37.065 16.1816 37.442 15.616 37.7959 15.1967C37.8575 15.1236 37.9191 15.0505 37.9768 14.9812C37.8767 14.9004 36.9226 16.0854 36.9919 16.7432C37.0457 17.2511 37.1688 17.6743 37.4189 18.1282C37.669 18.663 38.4692 18.5399 38.9232 18.0244C38.9463 18.059 38.9963 18.1282 39.1194 18.2514C39.3387 18.4707 39.531 18.5514 39.531 18.5514C39.531 18.5514 39.1771 18.2129 39.0886 18.0705C39.0463 18.0013 39.0194 17.9551 39.0001 17.9282C39.1194 17.7666 39.204 17.5781 39.2348 17.3626C39.2733 17.1049 39.3233 16.7125 39.1694 16.4278C39.1232 16.347 39.0732 16.2893 39.0194 16.247C39.0347 16.247 39.0463 16.2431 39.0578 16.2393C39.1809 16.1969 39.5272 15.893 39.5272 15.893C39.5272 15.893 39.2502 16.0777 38.9386 16.1546C38.9078 16.1623 38.8809 16.17 38.8539 16.1739C38.5461 16.1277 38.2307 16.5009 38.2461 16.5509L38.2384 16.5547Z" fill="#EEB9B7"/>
<path fill-rule="evenodd" clip-rule="evenodd" d="M35.1108 17.401C34.7569 17.3625 34.4491 17.6049 34.4068 17.8858C34.2798 18.7475 35.8264 18.8245 36.4112 18.7822C37.423 18.7052 37.4115 18.1204 36.5535 17.6934C36.2188 17.528 35.1108 17.401 35.1108 17.401Z" fill="#EEB9B7"/>
<path fill-rule="evenodd" clip-rule="evenodd" d="M35.0991 17.455C34.649 17.4088 34.068 18.1244 34.8182 18.4707C35.176 18.6361 35.73 18.7592 36.3456 18.7131C37.2266 18.6438 37.2805 18.1552 36.5726 17.8013C36.2379 17.6358 35.0952 17.4589 35.0952 17.4589L35.0991 17.455Z" fill="#FAD3D2"/>
<path fill-rule="evenodd" clip-rule="evenodd" d="M37.5118 18.0665C37.3695 18.1396 37.1271 18.1473 37.0425 18.1473L37.1079 18.3243C37.2502 18.3243 37.4926 18.2897 37.6157 18.232L37.5118 18.0665Z" fill="#EEB9B7"/>
<path fill-rule="evenodd" clip-rule="evenodd" d="M38.7124 15.4812C38.3546 15.5389 38.0737 16.0391 38.0737 16.6469C38.0737 17.2548 38.3546 17.7549 38.7124 17.8126H39.1663L40.3282 17.905C40.3821 17.8242 40.5398 15.5736 40.5129 15.5351L39.2625 15.5235C39.2433 15.4581 38.8701 15.4581 38.7124 15.4851V15.4812Z" fill="#41586E"/>
<path fill-rule="evenodd" clip-rule="evenodd" d="M42.5899 10.7645C40.6971 11.0607 39.2197 13.6961 39.2197 16.897C39.2197 20.0979 40.7009 22.7332 42.5899 23.0294L44.979 23.0525L45.483 21.4136C46.2178 20.2864 46.6756 18.6821 46.6756 16.897C46.6756 15.1119 46.2178 13.5037 45.483 12.3803V10.9684C45.383 10.6298 43.4132 10.6221 42.5899 10.7645Z" fill="#4D4D4D"/>
<path fill-rule="evenodd" clip-rule="evenodd" d="M44.829 23.0603C46.8834 23.0603 48.557 20.2903 48.557 16.897C48.557 13.5038 46.8834 10.7338 44.829 10.7338C42.7746 10.7338 41.1011 13.5038 41.1011 16.897C41.1011 20.2903 42.7746 23.0603 44.829 23.0603Z" fill="#404040"/>
<path fill-rule="evenodd" clip-rule="evenodd" d="M45.0328 10.7375C43.1399 11.0338 41.6626 13.6691 41.6626 16.87C41.6626 20.0709 43.1438 22.7062 45.0328 23.0025L47.4219 23.0255L47.9259 21.3866C48.6607 20.2594 49.1185 18.6551 49.1185 16.87C49.1185 15.0849 48.6607 13.4767 47.9259 12.3534V10.9414C47.8258 10.6029 45.8561 10.5952 45.0328 10.7375Z" fill="#4D4D4D"/>
<path fill-rule="evenodd" clip-rule="evenodd" d="M47.2724 23.0334C49.3268 23.0334 51.0003 20.2634 51.0003 16.8702C51.0003 13.4769 49.3268 10.7069 47.2724 10.7069C45.218 10.7069 43.5444 13.4769 43.5444 16.8702C43.5444 20.2634 45.218 23.0334 47.2724 23.0334Z" fill="#404040"/>
<path fill-rule="evenodd" clip-rule="evenodd" d="M47.2722 12.4843C47.2414 12.4843 47.2068 12.4843 47.176 12.4919C46.7105 12.5766 46.2642 13.2191 46.0565 13.5961C45.5294 14.5656 45.314 15.7775 45.314 16.8701C45.314 17.9627 45.5294 19.1784 46.0565 20.1441C46.2642 20.5249 46.7067 21.1636 47.176 21.2482C47.2068 21.2521 47.2376 21.2559 47.2722 21.2559C47.3068 21.2559 47.3376 21.2559 47.3684 21.2482C47.8339 21.1636 48.2802 20.5211 48.4879 20.1441C49.015 19.1746 49.2304 17.9627 49.2304 16.8701C49.2304 15.7775 49.015 14.5618 48.4879 13.5961C48.2802 13.2152 47.8377 12.5766 47.3684 12.4919C47.3376 12.4881 47.3068 12.4843 47.2722 12.4843Z" fill="#525252"/>
<path fill-rule="evenodd" clip-rule="evenodd" d="M47.2067 15.7351C46.8566 15.789 46.5796 16.2814 46.5796 16.8778C46.5796 17.4741 46.8566 17.9627 47.2067 18.0204H47.653L47.7453 17.7203C47.8799 17.5125 47.9684 17.2125 47.9684 16.8816C47.9684 16.5507 47.8838 16.2507 47.7453 16.0429V15.7813C47.7261 15.7197 47.3606 15.7159 47.2067 15.7428V15.7351Z" fill="#566D85"/>
<path fill-rule="evenodd" clip-rule="evenodd" d="M47.6222 18.0241C48.0031 18.0241 48.3147 17.5086 48.3147 16.8777C48.3147 16.2467 48.0031 15.7312 47.6222 15.7312C47.2413 15.7312 46.9297 16.2467 46.9297 16.8777C46.9297 17.5086 47.2413 18.0241 47.6222 18.0241Z" fill="#41586E"/>
<path fill-rule="evenodd" clip-rule="evenodd" d="M31.8331 30.0084C32.2178 32.2013 32.0408 34.1826 31.7754 35.5753C33.1219 35.7984 34.8763 35.8369 36.9422 35.3753C39.2121 34.8674 40.574 34.375 41.3819 33.9903C40.3085 33.1015 38.5465 31.2318 38.3965 28.5657C38.2079 30.1738 38.408 31.5857 38.8004 32.4629C38.8004 32.4629 35.8188 34.3096 34.0145 33.0438C32.2101 31.7781 31.8369 30.0084 31.8369 30.0084H31.8331Z" fill="#F2C0BF"/>
<path fill-rule="evenodd" clip-rule="evenodd" d="M22.5305 98.7312C22.4189 98.7696 20.7915 99.4737 20.3645 98.2156C19.4373 98.635 19.3027 101.832 19.6066 102.655C19.6066 102.655 31.5792 102.809 31.8985 102.752C32.2178 102.69 33.6797 101.216 31.3368 99.8738C28.9938 98.5311 26.3623 98.358 25.7314 98.1887C25.0812 95.3802 23.8039 96.3651 22.5266 98.7312H22.5305Z" fill="#2A3F50"/>
<path fill-rule="evenodd" clip-rule="evenodd" d="M7.5573 98.9542C7.99204 96.4689 4.4449 95.561 3.39461 97.5577C2.96372 98.3733 2.77136 99.2312 2.77136 99.2312C1.89804 99.3082 0.301441 101.293 0.797733 102.613C0.863136 102.786 9.0077 102.655 9.0077 102.655C9.03464 101.751 9.21161 99.7006 7.5573 98.9542Z" fill="#2A3F50"/>
<path fill-rule="evenodd" clip-rule="evenodd" d="M19.5028 100.478C19.4181 101.37 19.4643 102.271 19.6067 102.655C19.6067 102.655 31.5792 102.809 31.8985 102.752C32.1524 102.705 33.1142 101.774 32.3602 100.728C31.9562 101.159 31.3522 101.736 30.4981 101.878C29.0593 102.113 21.311 101.986 20.7954 101.824C20.2799 101.663 19.5028 100.482 19.5028 100.482V100.478Z" fill="#905750"/>
<path fill-rule="evenodd" clip-rule="evenodd" d="M8.96146 101.659C8.60752 101.69 7.86501 101.794 7.75729 101.717C6.64544 100.336 2.95981 100.524 2.2096 101.747C1.46709 101.728 0.99003 101.747 0.724572 101.767C0.678405 102.063 0.693792 102.355 0.793819 102.621C0.859222 102.794 9.00378 102.663 9.00378 102.663C9.01148 102.405 9.03072 102.059 9.01918 101.674L8.96146 101.663V101.659Z" fill="#694B36"/>
<path fill-rule="evenodd" clip-rule="evenodd" d="M10.2923 35.0598C11.6427 33.6863 12.9161 32.1282 13.7202 30.747C14.0626 30.2007 14.3319 29.4928 14.3165 29.5275C14.3011 29.5621 11.7658 32.8207 9.77291 34.2865C9.63825 34.3865 9.49976 34.4788 9.36895 34.5635C7.26452 35.8946 5.97955 36.1524 5.97955 36.1524L4.34833 35.8677L3.53271 35.7253C3.53271 35.7253 4.62917 37.0218 5.8372 38.553C6.10651 38.4338 6.40659 38.2684 6.72976 38.0644C7.78774 37.3912 9.07656 36.3024 10.2961 35.0598H10.2923Z" fill="#F2C0BF"/>
<path fill-rule="evenodd" clip-rule="evenodd" d="M14.147 49.1098C14.147 49.1098 13.7469 49.1021 13.3237 49.0944L13.5546 50.3948L14.1547 50.2255C14.2278 50.0331 14.3125 49.8177 14.4048 49.583C14.4625 49.4407 14.5279 49.2483 14.5933 49.0098C14.3202 49.0598 14.147 49.1098 14.147 49.1098Z" fill="#F2C0BF"/>
<path fill-rule="evenodd" clip-rule="evenodd" d="M11.7314 50.6372C11.6775 50.9219 11.6891 51.2066 11.816 51.4567C12.2931 52.3954 12.824 52.2723 12.824 52.2723C12.824 52.2723 12.1161 53.1302 12.2431 53.6881C12.2738 53.8227 12.5277 54.0689 12.9163 54.3036C12.974 54.1074 13.0317 53.9189 13.0856 53.7342C12.9009 53.5919 12.7663 53.4303 12.7894 53.261C12.8548 52.7878 13.1318 51.953 13.1318 51.953C13.1318 51.953 12.1969 51.4798 12.1238 51.1143C12.1046 51.0143 12.1007 50.8911 12.1046 50.768C12.1161 50.4449 12.1892 50.1063 12.1892 50.1063C12.1892 50.1063 12.1123 50.0486 11.9661 49.9447C10.7888 49.0868 5.24496 45.0087 3.04435 42.6158C0.574439 39.9343 0.332063 37.9568 0.897605 36.9911C1.05534 36.7257 1.23616 36.4872 1.41313 36.2794C1.88634 35.7331 2.3557 35.4022 2.3557 35.4022C2.3557 35.4022 2.39417 35.1829 2.46342 34.8098C2.60577 34.0134 2.86738 32.5091 3.1136 30.9241C2.59038 32.1436 2.29799 33.0939 2.29799 33.0939C2.29799 33.0939 1.97098 34.1288 1.70937 35.0675C1.12844 35.5561 0.67062 36.2833 0.382079 36.7449C-1.76467 40.1805 5.56043 48.352 11.7275 50.6334L11.7314 50.6372Z" fill="#F2C0BF"/>
<path fill-rule="evenodd" clip-rule="evenodd" d="M21.6537 25.8111C19.53 25.4456 17.5525 23.7298 17.2986 23.1719C17.2409 23.0527 17.2447 22.8757 17.2794 22.6795C17.4063 21.9678 17.9873 20.9405 17.9873 20.9405C17.9873 20.9405 18.5682 21.1137 20.4341 21.0906C21.7383 21.0752 22.2384 20.9559 22.8578 20.7174C22.8271 20.5981 22.7924 20.4789 22.7617 20.3596C20.7765 20.7213 18.6759 20.5097 17.1139 20.1288C17.2678 22.9719 15.779 22.9873 15.3519 22.9719C15.3057 22.9719 19.8224 26.7383 23.1656 26.5767C24.7545 26.4998 25.5663 25.765 25.9625 25.1725C24.9238 25.5034 23.0694 26.0574 21.6575 25.8111H21.6537Z" fill="#DEAFAE"/>
<path fill-rule="evenodd" clip-rule="evenodd" d="M14.074 17.3856C14.351 18.2705 14.5934 18.9168 14.7627 19.1207C15.0166 19.4323 15.9015 19.8325 17.1133 20.1248C18.6753 20.5057 20.7759 20.7173 22.7611 20.3557C23.9806 20.1325 25.1579 19.6978 26.1351 18.9514C26.312 18.8168 26.4198 18.5667 26.4659 18.2282C26.1505 18.4898 25.6965 18.7822 25.054 19.0399C24.1768 19.39 23.3766 19.6132 22.5956 19.7363C21.9416 19.8401 21.2991 19.8748 20.6335 19.8555C19.7102 19.8286 18.1983 19.6901 17.0402 19.3439C16.367 19.14 15.813 18.8668 15.5706 18.5052C14.905 17.5164 14.628 14.9196 14.628 14.9196C14.628 14.9196 13.8432 15.1773 13.5393 15.3158C13.5239 15.3235 13.5046 15.3351 13.4893 15.3427C13.6932 16.0891 13.8932 16.7893 14.0779 17.3818L14.074 17.3856Z" fill="#F0CBCD"/>
<path fill-rule="evenodd" clip-rule="evenodd" d="M13.7742 8.28691C13.7742 8.28691 20.3029 8.71011 21.9687 8.32923C22.0765 8.30615 22.1649 8.27537 22.2303 8.24459C22.4573 8.12918 22.792 7.92912 23.1729 7.68675C23.4191 7.52901 23.6846 7.35204 23.9539 7.17122C25.1812 6.34406 26.4931 5.38611 26.3969 5.41304C26.2468 5.45536 25.1311 5.62848 25.2581 5.45536C25.3851 5.28223 25.839 3.03161 24.7849 1.70047C24.0693 0.796377 23.5422 0.277 23.3114 0.0846393C23.2306 0.0307782 23.1844 0 23.1844 0C23.1844 0 24.454 2.75461 24.1116 4.08575C23.7692 5.41689 23.2114 5.18221 23.1037 5.3938C22.9959 5.60925 22.9767 3.95494 22.9767 3.8049C22.9767 3.65486 21.8802 6.35946 20.2259 6.74418C19.218 6.97886 16.7673 6.81727 15.0053 6.65569C13.8703 6.55182 13.0201 6.44794 13.0201 6.44794L13.351 7.2597L13.4933 7.6098L12.9124 7.45207L12.293 7.28663L12.4507 7.66366L13.3433 9.79502L15.2053 14.4271L14.3358 10.0489L13.778 8.29076L13.7742 8.28691Z" fill="#182229"/>
<path fill-rule="evenodd" clip-rule="evenodd" d="M4.73721 96.5344C5.44125 92.464 7.20712 82.2304 7.24175 81.9534C7.28407 81.611 10.2888 75.4709 10.2888 75.4709C10.2888 75.4709 12.9472 75.9902 14.8054 76.3596C15.0054 75.771 15.1286 75.4016 15.1286 75.4016L15.1824 75.167C13.2126 74.7976 10.2464 74.3821 8.67677 74.209C7.81114 76.6289 5.96448 81.8303 5.89907 82.2881C5.83752 82.719 4.72182 91.7023 4.09473 96.7922C4.29093 96.6691 4.50638 96.5844 4.72952 96.5306L4.73721 96.5344Z" fill="#F2C0BF"/>
<path fill-rule="evenodd" clip-rule="evenodd" d="M21.1648 77.7639C20.5416 80.8802 19.2797 83.6271 20.4762 98.4581C21.0186 99.3738 22.4306 98.7659 22.5306 98.7313C23.0154 97.8349 23.5001 97.1347 23.9502 96.7653C23.7463 96.8384 23.5347 96.9231 23.3385 97.0193C22.5306 97.4155 21.7919 98.135 21.7919 98.135C21.7919 98.135 21.0186 88.7785 21.0186 87.9629C21.0186 87.1473 22.1767 78.0486 22.1767 78.0486L26.6087 78.3795C27.4781 77.6331 27.5051 77.0099 27.5051 77.0099C25.5853 77.0522 22.7037 76.8868 21.2687 76.579C21.2379 77.1099 21.1995 77.6023 21.1648 77.7678V77.7639Z" fill="#F2C0BF"/>
<path fill-rule="evenodd" clip-rule="evenodd" d="M26.6316 98.1156C26.7547 98.1464 26.8278 98.2695 26.797 98.3926C26.7662 98.5157 26.6431 98.5888 26.52 98.558C26.4738 98.5465 26.4277 98.5388 26.3815 98.5349C25.9968 98.4926 25.5928 98.6503 25.2697 98.8927C24.9426 99.1351 24.7003 99.4506 24.6349 99.7237C24.6272 99.7507 24.6233 99.7737 24.6195 99.8007C24.6041 99.9276 24.4925 100.016 24.3656 100.005C24.2386 99.9892 24.1501 99.8776 24.1617 99.7507C24.1655 99.7083 24.1732 99.6622 24.1847 99.616C24.2771 99.2428 24.5849 98.8312 24.9927 98.5272C25.4005 98.2233 25.916 98.0233 26.4277 98.081C26.4931 98.0887 26.5585 98.1002 26.6239 98.1156H26.6316Z" fill="#FFCE07"/>
<path fill-rule="evenodd" clip-rule="evenodd" d="M28.1392 98.4119C28.2623 98.4388 28.3431 98.5581 28.3162 98.6812C28.2892 98.8043 28.17 98.8851 28.0468 98.8582H28.0353C27.7237 98.7928 27.2889 98.8197 26.9004 98.9928C26.5233 99.1621 26.2002 99.4737 26.0886 99.9816V99.997C26.0578 100.12 25.9386 100.201 25.8155 100.174C25.6923 100.147 25.6116 100.028 25.6385 99.9046V99.8892C25.7885 99.216 26.2194 98.8043 26.7119 98.5812C27.1928 98.3657 27.7391 98.3311 28.1276 98.4119H28.1392Z" fill="#FFCE07"/>
<path fill-rule="evenodd" clip-rule="evenodd" d="M29.5898 98.839C29.7129 98.8544 29.8014 98.9698 29.786 99.0968C29.7706 99.2199 29.6552 99.3084 29.532 99.293C29.105 99.2353 28.7511 99.2199 28.4471 99.3622C28.1355 99.5046 27.847 99.8201 27.5392 100.428C27.4815 100.539 27.343 100.586 27.2314 100.528C27.1198 100.47 27.0737 100.332 27.1314 100.22C27.493 99.5123 27.8547 99.1314 28.2586 98.9467C28.6664 98.7582 29.0896 98.7698 29.5975 98.839H29.5898Z" fill="#FFCE07"/>
<path fill-rule="evenodd" clip-rule="evenodd" d="M7.52255 99.0506C7.62258 99.1237 7.64566 99.2661 7.57256 99.3699C7.49947 99.47 7.35712 99.493 7.25325 99.4199C6.08754 98.5659 4.19086 98.6005 2.99437 99.4199C2.8905 99.493 2.74815 99.4661 2.67505 99.3622C2.60196 99.2584 2.62889 99.116 2.73277 99.0429C3.96772 98.1965 6.36454 98.2004 7.52255 99.0506Z" fill="#FFCE07"/>
<path fill-rule="evenodd" clip-rule="evenodd" d="M10.7999 25.5262C11.7733 26.2649 13.3545 27.3421 12.6697 29.2657C11.9849 31.1893 8.63781 34.4556 6.84886 34.9558C5.05605 35.4559 3.37097 34.4287 3.50178 33.3207C3.63258 32.2127 4.76751 30.0005 6.0294 30.266C7.29513 30.5276 10.0344 29.712 9.61116 28.6309C9.18796 27.5499 7.66062 27.3152 8.37235 26.261C9.08409 25.2069 10.7961 25.5224 10.7961 25.5224L10.7999 25.5262Z" fill="#FBDADB"/>
<path fill-rule="evenodd" clip-rule="evenodd" d="M3.00187 37.0641C1.79 37.5912 1.44759 38.9877 1.5784 39.384C1.70921 39.7802 7.19149 45.0471 8.79578 46.4167C10.4039 47.7863 11.3503 48.5519 10.8502 47.1553C10.3501 45.7588 2.99802 37.0641 2.99802 37.0641H3.00187Z" fill="#FBDADB"/>
<path fill-rule="evenodd" clip-rule="evenodd" d="M31.7451 26.2919C32.6146 28.0847 32.9031 30.5085 34.2997 31.0586C35.6962 31.6126 37.7506 30.874 37.2236 29.4505C36.6965 28.027 31.7451 26.2881 31.7451 26.2881V26.2919Z" fill="#FBDADB"/>
<path fill-rule="evenodd" clip-rule="evenodd" d="M40.466 22.9718C40.3621 24.5261 39.6504 27.6192 40.5199 29.6621C41.3893 31.705 42.6551 33.0092 43.2052 31.3472C43.7592 29.689 42.7589 25.4186 41.9933 24.6838C41.2278 23.9451 40.466 22.9718 40.466 22.9718Z" fill="#FBDADB"/>
</svg>
